<svg width="20" height="20" viewBox="0 0 20 20" fill="none" xmlns="http://www.w3.org/2000/svg">
<path fill-rule="evenodd" clip-rule="evenodd" d="M9.16713 2.65814C9.22469 2.4756 9.33895 2.31617 9.4933 2.203C9.64766 2.08983 9.83407 2.02881 10.0255 2.02881C10.2169 2.02881 10.4033 2.08983 10.5576 2.203C10.712 2.31617 10.8262 2.4756 10.8838 2.65814L12.4338 7.4248H17.4338C17.632 7.41731 17.8273 7.47492 17.9897 7.58883C18.1521 7.70275 18.2728 7.8667 18.3332 8.05565C18.3937 8.24459 18.3906 8.44814 18.3245 8.63518C18.2584 8.82222 18.1329 8.98248 17.9671 9.09147L13.9088 12.0331L15.4588 16.8081C15.5201 16.99 15.5216 17.1867 15.4632 17.3696C15.4048 17.5524 15.2894 17.7118 15.134 17.8244C14.9786 17.937 14.7912 17.997 14.5993 17.9955C14.4073 17.9941 14.2209 17.9314 14.0671 17.8165L10.0005 14.8415L5.94213 17.7915C5.78839 17.9064 5.60193 17.9691 5.41 17.9705C5.21807 17.972 5.0307 17.912 4.87527 17.7994C4.71984 17.6868 4.60449 17.5274 4.54605 17.3446C4.48762 17.1617 4.48916 16.965 4.55046 16.7831L6.10046 12.0081L2.04213 9.06647C1.87637 8.95748 1.75084 8.79722 1.68473 8.61018C1.61862 8.42314 1.61556 8.21959 1.67603 8.03065C1.73649 7.8417 1.85715 7.67775 2.01956 7.56383C2.18198 7.44992 2.37722 7.39231 2.57546 7.3998H7.57546L9.16713 2.65814Z" stroke="#D1D1D1" stroke-width="1.5" stroke-linecap="round" stroke-linejoin="round"/>
</svg>
