<svg width="19" height="15" viewBox="0 0 19 15" fill="none" xmlns="http://www.w3.org/2000/svg">
<path fill-rule="evenodd" clip-rule="evenodd" d="M8.60106 14.6887L9.50044 13.1875L10.4224 14.675C9.86566 15.02 9.1629 15.0253 8.60106 14.6887ZM8.1811 2.69402C7.50471 2.23463 6.62105 1.8125 5.65752 1.8125C3.44783 1.8125 2.15084 3.4375 2.58317 5.66797C3.32336 9.48675 9.50044 13.1875 9.50044 13.1875C8.60106 14.6887 8.60106 14.6887 8.60106 14.6887L8.59756 14.6866L8.5918 14.6831L8.57365 14.6721C8.55865 14.663 8.53788 14.6503 8.5117 14.6342C8.45937 14.6019 8.38535 14.5557 8.29252 14.4965C8.10702 14.3781 7.84558 14.2073 7.5314 13.9911C6.90545 13.5602 6.05823 12.9406 5.1807 12.1887C4.30811 11.4409 3.37217 10.534 2.59161 9.52411C1.82201 8.52834 1.12258 7.32909 0.865149 6.00097C0.571423 4.48558 0.835474 2.97354 1.76148 1.81258C2.69345 0.644141 4.11231 0.0625 5.65752 0.0625C7.25322 0.0625 8.57964 0.814103 9.40253 1.41404C9.43567 1.4382 9.46831 1.46235 9.50044 1.48645C9.53257 1.46235 9.56521 1.4382 9.59835 1.41404C10.4212 0.814103 11.7477 0.0625 13.3434 0.0625C16.7954 0.0625 18.7868 3.26039 18.1205 6.07153C17.8151 7.36048 17.1074 8.53429 16.3363 9.51972C15.5545 10.5188 14.6305 11.4213 13.7707 12.169C12.9066 12.9205 12.0773 13.5415 11.4654 13.9742C11.1583 14.1913 10.9033 14.363 10.7225 14.4819C10.6321 14.5414 10.56 14.5878 10.5091 14.6203C10.4962 14.6285 10.4847 14.6358 10.4745 14.6422C10.4646 14.6485 10.4561 14.6539 10.4489 14.6584L10.4313 14.6694L10.4257 14.6729L10.4224 14.675C10.4224 14.675 10.4224 14.675 9.50044 13.1875C9.50044 13.1875 15.5198 9.45676 16.4177 5.66797C16.85 3.84375 15.5531 1.8125 13.3434 1.8125C12.3798 1.8125 11.4962 2.23463 10.8198 2.69402C10.0125 3.24234 9.50044 3.84375 9.50044 3.84375C9.50044 3.84375 8.98843 3.24234 8.1811 2.69402Z" fill="#4FA6B4"/>
</svg>
