<svg width="173" height="25" viewBox="0 0 173 25" fill="none" xmlns="http://www.w3.org/2000/svg">
<path d="M6.41251 13.3357V20.7118C6.41251 21.6816 6.78879 22.6118 7.45857 23.2976C8.12835 23.9834 9.03677 24.3686 9.98398 24.3686H7.70015C6.9004 24.369 6.1237 24.0944 5.49461 23.5888C4.86552 23.0832 4.4205 22.3759 4.23092 21.5803L0.104813 4.53877C-0.0255557 3.99983 -0.0344279 3.43757 0.0788686 2.89459C0.192165 2.35161 0.424659 1.84215 0.758739 1.4048C1.09282 0.967449 1.51972 0.613682 2.00712 0.370292C2.49451 0.126903 3.0296 0.000275259 3.57187 1.00851e-06H12.1786C12.8391 -0.000501586 13.4867 0.186857 14.0492 0.54118L18.4994 3.34061V3.67467L8.11342 10.22C7.59354 10.5473 7.16425 11.0055 6.86649 11.551C6.56872 12.0964 6.41243 12.7108 6.41251 13.3357Z" fill="#F15733"/>
<path d="M37.4248 4.53877L33.2922 21.5803C33.1002 22.3736 32.6542 23.0781 32.0254 23.5815C31.3965 24.0849 30.6212 24.3581 29.823 24.3575H27.5435C28.489 24.3575 29.396 23.9738 30.0658 23.2905C30.7357 22.6072 31.1137 21.6799 31.1171 20.7118V13.3357C31.1176 12.7105 30.9615 12.0956 30.6637 11.5497C30.3659 11.0038 29.9364 10.5453 29.4162 10.2178L19.0303 3.68135V3.34061L23.4892 0.541178C24.0507 0.188292 24.6965 0.00101718 25.3554 2.40641e-08H33.9556C34.4981 -6.36702e-05 35.0334 0.126316 35.5211 0.36956C36.0087 0.612804 36.4359 0.966528 36.7702 1.40392C37.1046 1.84131 37.3373 2.35089 37.4507 2.89404C37.5641 3.43719 37.5553 3.99964 37.4248 4.53877Z" fill="#4FA6B4"/>
<path d="M31.1165 13.336V20.7121C31.116 21.6821 30.7392 22.6123 30.0691 23.298C29.399 23.9837 28.4903 24.3689 27.5429 24.3689H9.98357C9.03636 24.3689 8.12795 23.9836 7.45817 23.2978C6.78839 22.6121 6.41211 21.6819 6.41211 20.7121V13.336C6.41165 12.7108 6.56777 12.0958 6.86555 11.55C7.16333 11.0041 7.59283 10.5456 8.11301 10.2181L18.499 3.68164V5.62365C18.4991 5.64992 18.4933 5.67588 18.482 5.69946C18.4707 5.72304 18.4541 5.74359 18.4337 5.7595L14.6926 8.65469C14.6635 8.67562 14.6417 8.70547 14.6303 8.73994C14.6189 8.7744 14.6185 8.8117 14.6291 8.84641C14.6398 8.88113 14.6609 8.91148 14.6896 8.93307C14.7182 8.95465 14.7528 8.96635 14.7883 8.96648H17.5833C17.6229 8.96659 17.6612 8.98126 17.6911 9.00783C17.721 9.0344 17.7407 9.0711 17.7464 9.11124C17.7822 9.36148 17.9048 9.59017 18.0917 9.75553C18.2786 9.92089 18.5173 10.0119 18.7643 10.0119C19.0113 10.0119 19.2501 9.92089 19.437 9.75553C19.6239 9.59017 19.7464 9.36148 19.7823 9.11124C19.788 9.0711 19.8076 9.0344 19.8376 9.00783C19.8675 8.98126 19.9058 8.96659 19.9454 8.96648H22.7382C22.7734 8.96698 22.8079 8.95592 22.8366 8.93491C22.8653 8.9139 22.8867 8.88405 22.8976 8.84971C22.9086 8.81538 22.9085 8.77836 22.8974 8.74408C22.8863 8.70979 22.8648 8.68003 22.8361 8.65915L19.0949 5.76395C19.0745 5.74805 19.058 5.72749 19.0467 5.70391C19.0353 5.68033 19.0295 5.65438 19.0297 5.6281V3.68164L29.4156 10.2203C29.9355 10.5476 30.3648 11.0058 30.6626 11.5512C30.9603 12.0967 31.1166 12.7111 31.1165 13.336Z" fill="#EFA143"/>
<path d="M54.4047 4.54548H50.2416V18.6629H47.4793V4.54548H43.3184V2.0957H54.4112L54.4047 4.54548Z" fill="white"/>
<path d="M60.8699 10.6145C60.5122 10.6076 60.1569 10.6753 59.8256 10.8135C59.4943 10.9517 59.1939 11.1576 58.9428 11.4184C58.6851 11.6703 58.4811 11.974 58.3437 12.3106C58.2063 12.6471 58.1385 13.0091 58.1445 13.3738V18.6631H55.3887V13.3738C55.3746 12.6365 55.5091 11.9042 55.7838 11.2225C56.0585 10.5408 56.4674 9.92445 56.9852 9.41185C57.4917 8.88653 58.0973 8.47226 58.7651 8.19429C59.433 7.91632 60.1491 7.78046 60.8699 7.795V10.6145Z" fill="white"/>
<path d="M72.7933 18.7744C72.8095 19.5124 72.6774 20.246 72.4049 20.9295C72.1325 21.613 71.7257 22.2318 71.2098 22.7475C70.701 23.2728 70.093 23.6865 69.4229 23.9634C68.7527 24.2402 68.0345 24.3744 67.3121 24.3577V21.5315C67.6692 21.5374 68.0238 21.4689 68.3543 21.3304C68.6848 21.1918 68.9844 20.9859 69.2349 20.7253C69.4929 20.4732 69.6972 20.1691 69.835 19.8322C69.9727 19.4953 70.0409 19.1329 70.0353 18.7677V18.2622C69.2064 18.7456 68.2682 18.9982 67.3143 18.9949C66.5936 19.0008 65.879 18.86 65.2119 18.5806C64.5449 18.3012 63.9387 17.8888 63.4287 17.3674C62.9187 16.8461 62.515 16.2261 62.2411 15.5435C61.9672 14.861 61.8285 14.1295 61.8331 13.3916V7.79492H64.5976V13.3916C64.6257 14.1106 64.9245 14.7906 65.4313 15.2892C65.9381 15.7878 66.6136 16.0662 67.3165 16.0662C68.0193 16.0662 68.6949 15.7878 69.2017 15.2892C69.7085 14.7906 70.0072 14.1106 70.0353 13.3916V7.79492H72.7955L72.7933 18.7744Z" fill="white"/>
<path d="M93.6566 4.54548H89.4849V18.6629H86.7225V4.54548H82.5703V2.0957H93.6632L93.6566 4.54548Z" fill="white"/>
<path d="M105.602 18.6629H102.842V13.3758C102.845 13.0133 102.776 12.6538 102.638 12.3198C102.501 11.9857 102.298 11.6842 102.041 11.4338C101.794 11.1719 101.497 10.9644 101.169 10.8242C100.84 10.6841 100.487 10.6141 100.132 10.6187C99.7733 10.6131 99.4175 10.6815 99.0857 10.8201C98.7538 10.9586 98.4526 11.1643 98.2002 11.4249C97.9423 11.6757 97.7379 11.9786 97.6001 12.3144C97.4624 12.6502 97.3942 13.0116 97.3998 13.3758V18.6629H94.6396V2.0957H97.3998V8.50522C98.2328 8.03474 99.1695 7.79018 100.121 7.79478C100.842 7.78023 101.559 7.91629 102.227 8.19465C102.895 8.47302 103.501 8.88786 104.008 9.41386C104.525 9.92665 104.934 10.5431 105.208 11.2248C105.482 11.9065 105.616 12.6387 105.602 13.3758V18.6629Z" fill="white"/>
<path d="M117.547 13.362C117.548 13.6416 117.527 13.9207 117.486 14.1972H109.489C109.653 14.7663 109.999 15.2631 110.47 15.6091C110.937 15.9621 111.505 16.1497 112.086 16.1436C112.481 16.1514 112.872 16.0667 113.23 15.8961C113.588 15.7255 113.903 15.4735 114.152 15.1592L115.829 17.442C115.334 17.937 114.749 18.327 114.106 18.5896C113.464 18.8522 112.777 18.9821 112.086 18.972C111.364 18.9815 110.648 18.8432 109.979 18.5651C109.311 18.287 108.703 17.8748 108.192 17.3527C107.681 16.8306 107.278 16.2091 107.005 15.5249C106.733 14.8407 106.596 14.1076 106.605 13.3687C106.591 12.6314 106.725 11.8991 107 11.2175C107.274 10.5358 107.683 9.9194 108.201 9.40672C109.239 8.36962 110.631 7.78906 112.081 7.78906C113.531 7.78906 114.924 8.36962 115.962 9.40672C116.476 9.91991 116.882 10.5357 117.155 11.216C117.428 11.8964 117.561 12.6267 117.547 13.362ZM114.459 12.0814C114.229 11.6383 113.886 11.2675 113.466 11.0089C113.046 10.7503 112.566 10.6136 112.076 10.6136C111.586 10.6136 111.105 10.7503 110.686 11.0089C110.266 11.2675 109.923 11.6383 109.693 12.0814H114.459Z" fill="white"/>
<path d="M129.534 18.6631H126.774V13.376C126.777 13.0132 126.708 12.6536 126.57 12.3195C126.432 11.9853 126.228 11.6839 125.971 11.434C125.724 11.1721 125.427 10.9646 125.099 10.8244C124.77 10.6843 124.417 10.6143 124.061 10.6189C123.703 10.613 123.348 10.6814 123.016 10.82C122.685 10.9586 122.384 11.1644 122.132 11.4251C121.874 11.6759 121.67 11.9788 121.532 12.3146C121.394 12.6504 121.326 13.0118 121.332 13.376V18.6631H118.569V13.3738C118.555 12.6365 118.69 11.9042 118.965 11.2226C119.239 10.5409 119.648 9.92452 120.166 9.41184C121.206 8.37389 122.6 7.79297 124.053 7.79297C125.505 7.79297 126.9 8.37389 127.94 9.41184C128.457 9.92463 128.865 10.5411 129.14 11.2228C129.414 11.9044 129.548 12.6367 129.534 13.3738V18.6631Z" fill="white"/>
<path d="M149.068 13.0484C149.089 13.7856 148.96 14.5193 148.689 15.2026C148.418 15.8859 148.011 16.5038 147.494 17.0171C146.987 17.5443 146.381 17.9616 145.713 18.2444C145.046 18.5271 144.329 18.6694 143.607 18.6629L139.087 18.6829V2.09568H142.247C142.792 2.08362 143.334 2.18609 143.839 2.39676C144.344 2.60743 144.802 2.92184 145.184 3.32057C145.573 3.71226 145.882 4.1804 146.091 4.697C146.3 5.21359 146.405 5.76801 146.399 6.32712C146.403 6.92467 146.285 7.51638 146.051 8.06423C146.946 8.53724 147.697 9.25004 148.227 10.1265C148.767 11.0014 149.058 12.0133 149.068 13.0484ZM143.648 6.34716C143.635 5.96742 143.479 5.60752 143.213 5.34275C143.088 5.20913 142.938 5.10291 142.772 5.03054C142.606 4.95817 142.428 4.92119 142.247 4.92183H141.854V7.73017H142.267C142.638 7.72717 142.995 7.5854 143.272 7.33153C143.403 7.20702 143.505 7.05384 143.57 6.8834C143.635 6.71296 143.662 6.52966 143.648 6.34716ZM146.306 13.0707C146.307 12.7032 146.238 12.3391 146.101 11.9993C145.965 11.6595 145.764 11.3507 145.51 11.0908C145.26 10.8288 144.961 10.6221 144.63 10.4834C144.299 10.3447 143.944 10.2771 143.587 10.2846H141.847V15.8345H143.607C143.964 15.8401 144.318 15.7715 144.649 15.633C144.979 15.4944 145.279 15.2887 145.529 15.0283C145.786 14.7765 145.988 14.472 146.122 14.1346C146.256 13.7972 146.319 13.4346 146.306 13.0707Z" fill="white"/>
<path d="M161.034 13.3849C161.034 14.8733 160.456 16.3008 159.428 17.3533C158.4 18.4058 157.006 18.9971 155.552 18.9971C154.099 18.9971 152.705 18.4058 151.677 17.3533C150.649 16.3008 150.071 14.8733 150.071 13.3849V7.79492H152.831V13.3849C152.826 13.7507 152.893 14.1138 153.029 14.4523C153.164 14.7907 153.366 15.0974 153.621 15.3536C153.87 15.617 154.168 15.8252 154.499 15.9654C154.829 16.1056 155.184 16.1748 155.542 16.1687C156.264 16.1693 156.957 15.8766 157.469 15.3548C157.981 14.833 158.271 14.1246 158.273 13.3849V7.79492H161.034V13.3849Z" fill="white"/>
<path d="M172.998 18.7744C173.014 19.5124 172.882 20.246 172.61 20.9295C172.337 21.613 171.931 22.2318 171.415 22.7475C170.906 23.2728 170.298 23.6865 169.628 23.9634C168.958 24.2402 168.239 24.3744 167.517 24.3577V21.5315C167.873 21.5368 168.227 21.468 168.557 21.3295C168.886 21.1909 169.185 20.9854 169.435 20.7253C169.693 20.473 169.897 20.1688 170.034 19.8319C170.172 19.495 170.24 19.1327 170.234 18.7677V18.2622C169.405 18.7456 168.467 18.9982 167.513 18.9949C166.793 18.9996 166.079 18.858 165.413 18.5782C164.748 18.2984 164.143 17.8861 163.633 17.365C163.124 16.844 162.721 16.2247 162.448 15.543C162.174 14.8613 162.036 14.1308 162.04 13.3938V7.79492H164.8V13.3916C164.793 13.7584 164.859 14.1229 164.995 14.4626C165.13 14.8023 165.332 15.1101 165.588 15.367C165.836 15.6296 166.135 15.8373 166.465 15.9771C166.795 16.1169 167.149 16.1859 167.506 16.1798C167.865 16.1858 168.221 16.1167 168.553 15.977C168.884 15.8372 169.185 15.6296 169.435 15.367C169.693 15.1132 169.897 14.8078 170.035 14.4699C170.172 14.132 170.241 13.7688 170.236 13.4027V7.79492H172.996L172.998 18.7744Z" fill="white"/>
</svg>
