<svg width="54" height="35" viewBox="0 0 54 35" fill="none" xmlns="http://www.w3.org/2000/svg">
<path d="M9.2268 18.697V29.0384C9.2268 30.3981 9.76822 31.7022 10.7319 32.6637C11.6957 33.6252 13.0028 34.1653 14.3657 34.1653H11.0796C9.92881 34.1659 8.81124 33.7808 7.90605 33.072C7.00087 32.3631 6.36054 31.3714 6.08776 30.2561L0.150813 6.36346C-0.0367714 5.60784 -0.0495375 4.81954 0.113482 4.05827C0.276501 3.297 0.611031 2.58273 1.09173 1.96956C1.57243 1.35638 2.18669 0.860395 2.88799 0.519158C3.58928 0.177921 4.35922 0.000385919 5.13948 1.41396e-06H17.5235C18.4738 -0.000703234 19.4056 0.261977 20.215 0.758745L26.6183 4.68361V5.15197L11.6742 14.3287C10.9262 14.7876 10.3085 15.43 9.88001 16.1947C9.45157 16.9594 9.22668 17.8209 9.2268 18.697Z" fill="#F15733"/>
<path d="M53.8493 6.3634L47.903 30.256C47.6267 31.3682 46.9849 32.356 46.0801 33.0618C45.1753 33.7675 44.0597 34.1505 42.9112 34.1497H39.6313C40.9918 34.1497 42.2968 33.6118 43.2606 32.6537C44.2244 31.6957 44.7683 30.3956 44.7733 29.0383V18.6969C44.774 17.8203 44.5493 16.9582 44.1209 16.1929C43.6924 15.4276 43.0744 14.7847 42.3259 14.3255L27.3818 5.16128V4.68355L33.7976 0.758687C34.6056 0.263932 35.5348 0.00136889 36.4829 -5.71867e-05H48.8575C49.638 -0.000146488 50.4083 0.177041 51.11 0.518074C51.8117 0.859107 52.4264 1.35504 52.9074 1.96827C53.3885 2.5815 53.7233 3.29595 53.8865 4.05745C54.0496 4.81895 54.0369 5.60753 53.8493 6.3634Z" fill="#4FA6B4"/>
<path d="M44.7731 18.6969V29.0383C44.7723 30.3984 44.2302 31.7024 43.266 32.6639C42.3017 33.6253 40.9943 34.1653 39.6311 34.1653H14.3654C13.0025 34.1653 11.6954 33.6252 10.7317 32.6637C9.76798 31.7022 9.22656 30.3981 9.22656 29.0383V18.6969C9.22591 17.8203 9.45054 16.9582 9.87901 16.1929C10.3075 15.4276 10.9255 14.7847 11.674 14.3256L26.618 5.16132V7.88406C26.6183 7.9209 26.6099 7.95729 26.5936 7.99035C26.5773 8.0234 26.5535 8.05222 26.5241 8.07452L21.1411 12.1336C21.0993 12.163 21.0679 12.2048 21.0515 12.2532C21.0351 12.3015 21.0345 12.3538 21.0498 12.4024C21.0651 12.4511 21.0956 12.4937 21.1368 12.5239C21.1779 12.5542 21.2277 12.5706 21.2788 12.5708H25.3004C25.3575 12.5709 25.4125 12.5915 25.4556 12.6288C25.4987 12.666 25.5269 12.7175 25.5352 12.7737C25.5867 13.1246 25.7631 13.4452 26.032 13.677C26.3009 13.9089 26.6444 14.0365 26.9998 14.0365C27.3553 14.0365 27.6988 13.9089 27.9677 13.677C28.2366 13.4452 28.413 13.1246 28.4645 12.7737C28.4728 12.7175 28.501 12.666 28.5441 12.6288C28.5872 12.5915 28.6422 12.5709 28.6993 12.5708H32.7177C32.7685 12.5715 32.8181 12.556 32.8594 12.5265C32.9007 12.4971 32.9314 12.4552 32.9472 12.4071C32.9629 12.3589 32.9628 12.307 32.9468 12.259C32.9309 12.2109 32.9 12.1692 32.8586 12.1399L27.4756 8.08077C27.4462 8.05847 27.4224 8.02965 27.4061 7.99659C27.3898 7.96353 27.3814 7.92714 27.3817 7.8903V5.16132L42.3257 14.3287C43.0738 14.7875 43.6915 15.43 44.1199 16.1947C44.5484 16.9594 44.7733 17.8209 44.7731 18.6969Z" fill="#EFA143"/>
</svg>
