<svg width="14" height="20" viewBox="0 0 14 20" fill="none" xmlns="http://www.w3.org/2000/svg">
<path fill-rule="evenodd" clip-rule="evenodd" d="M4.08619 0.593862C4.24669 0.232734 4.60481 0 5 0H10.913C11.2419 0 11.5497 0.161651 11.7363 0.432361C11.923 0.703072 11.9646 1.04824 11.8477 1.35557L9.75471 6.85714H13C13.4033 6.85714 13.7671 7.09939 13.9226 7.47148C14.0782 7.84357 13.995 8.27267 13.7117 8.55967L2.71166 19.7025C2.3896 20.0288 1.88697 20.0942 1.49209 19.8614C1.0972 19.6286 0.911205 19.1571 1.04079 18.7173L3.31497 11H1C0.661495 11 0.345968 10.8287 0.161511 10.5449C-0.0229466 10.2611 -0.0512895 9.90319 0.0861913 9.59386L4.08619 0.593862ZM5.64988 2L2.53876 9H4.65218C4.96742 9 5.26421 9.14865 5.45301 9.40111C5.64181 9.65357 5.7005 9.98028 5.61139 10.2827L4.08412 15.4654L10.6076 8.85714H8.30435C7.97553 8.85714 7.66772 8.69549 7.48107 8.42478C7.29442 8.15407 7.25278 7.8089 7.3697 7.50157L9.46269 2H5.64988Z" fill="white"/>
</svg>
