<svg width="21" height="20" viewBox="0 0 21 20" fill="none" xmlns="http://www.w3.org/2000/svg">
<rect x="0.75293" y="0.0869141" width="20.2471" height="19.3734" rx="9.68669" fill="#4FA6B4"/>
<path d="M15 6.2V14.45C15 14.5959 14.9473 14.7358 14.8536 14.8389C14.7598 14.9421 14.6326 15 14.5 15H7.5C7.36739 15 7.24021 14.9421 7.14645 14.8389C7.05268 14.7358 7 14.5959 7 14.45V6.2C7 6.05413 7.05268 5.91424 7.14645 5.81109C7.24021 5.70795 7.36739 5.65 7.5 5.65H8.5V6.2H7.5V14.45H14.5V6.2H13.5V5.65H14.5C14.6326 5.65 14.7598 5.70795 14.8536 5.81109C14.9473 5.91424 15 6.05413 15 6.2ZM12 5.1C12 4.80826 11.8946 4.52847 11.7071 4.32218C11.5196 4.11589 11.2652 4 11 4C10.7348 4 10.4804 4.11589 10.2929 4.32218C10.1054 4.52847 10 4.80826 10 5.1H9V6.75H13V5.1H12ZM14 7.85H8V8.4H14V7.85ZM14 9.5H8V10.05H14V9.5ZM14 11.15H8V11.7H14V11.15ZM14 12.8H8V13.35H14V12.8Z" fill="white"/>
</svg>
