<svg width="21" height="20" viewBox="0 0 21 20" fill="none" xmlns="http://www.w3.org/2000/svg">
<rect x="0.75293" y="0.0869141" width="20.2471" height="19.3734" rx="9.68669" fill="#C4C4C4"/>
<path d="M15.2857 6.25H12.2857V5H5V9.16667V10C5 11.311 5 13.7121 5 13.75H6.34186C6.53236 14.4685 7.20136 15 8 15C8.79864 15 9.46743 14.4685 9.65814 13.75H12.3419C12.5324 14.4685 13.2014 15 14 15C14.7986 15 15.4674 14.4685 15.6581 13.75H17V9.16667L15.2857 6.25ZM5.85714 5.83333H11.4286V6.25V9.16667H5.85714V5.83333ZM8 14.1667C7.52729 14.1667 7.14286 13.7929 7.14286 13.3333C7.14286 12.8737 7.52729 12.5 8 12.5C8.47271 12.5 8.85714 12.8737 8.85714 13.3333C8.85714 13.7929 8.47271 14.1667 8 14.1667ZM14 14.1667C13.5273 14.1667 13.1429 13.7929 13.1429 13.3333C13.1429 12.8737 13.5273 12.5 14 12.5C14.4727 12.5 14.8571 12.8737 14.8571 13.3333C14.8571 13.7929 14.4727 14.1667 14 14.1667ZM16.1429 12.9167H15.6581C15.4676 12.1981 14.7986 11.6667 14 11.6667C13.2014 11.6667 12.5326 12.1981 12.3419 12.9167H9.65814C9.46764 12.1981 8.79864 11.6667 8 11.6667C7.20136 11.6667 6.53257 12.1981 6.34186 12.9167H5.85714V10H11.4286H12.2857V9.16667V7.08333H14.8226L16.1429 9.38792V12.9167Z" fill="#646464"/>
</svg>
