<svg width="65" height="42" viewBox="0 0 65 42" fill="none" xmlns="http://www.w3.org/2000/svg">
<path d="M11.1065 23.1696V35.543C11.1065 37.1699 11.7583 38.7302 12.9183 39.8806C14.0784 41.0311 15.6518 41.6774 17.2924 41.6774H13.3367C11.9516 41.678 10.6063 41.2173 9.51672 40.3691C8.42713 39.521 7.65635 38.3345 7.328 37L0.181538 8.41265C-0.0442627 7.50856 -0.0596295 6.56537 0.136601 5.65452C0.332832 4.74366 0.735514 3.88904 1.31414 3.15539C1.89277 2.42173 2.63218 1.82828 3.47635 1.42C4.32051 1.01171 5.24731 0.79929 6.18652 0.79883H21.0935C22.2374 0.797987 23.359 1.11228 24.3333 1.70666L32.0411 6.40272V6.96311L14.0525 17.943C13.1521 18.492 12.4086 19.2607 11.8928 20.1756C11.3771 21.0906 11.1064 22.1214 11.1065 23.1696Z" fill="#F15733"/>
<path d="M64.8186 8.41265L57.6608 37C57.3282 38.3307 56.5557 39.5126 55.4666 40.357C54.3775 41.2014 53.0345 41.6597 51.6521 41.6587H47.704C49.3417 41.6587 50.9126 41.0151 52.0727 39.8688C53.2328 38.7225 53.8876 37.167 53.8936 35.5429V23.1696C53.8944 22.1207 53.624 21.0892 53.1082 20.1735C52.5924 19.2578 51.8485 18.4886 50.9476 17.9393L32.959 6.97432V6.40272L40.6818 1.70666C41.6544 1.11469 42.773 0.800534 43.9141 0.798828H58.8098C59.7493 0.798721 60.6766 1.01072 61.5212 1.41877C62.3659 1.82681 63.1058 2.42018 63.6848 3.15391C64.2639 3.88764 64.6669 4.74247 64.8633 5.6536C65.0597 6.56473 65.0445 7.50825 64.8186 8.41265Z" fill="#4FA6B4"/>
<path d="M53.8948 23.1689V35.5423C53.8938 37.1696 53.2412 38.7299 52.0806 39.8802C50.9199 41.0305 49.3461 41.6767 47.7052 41.6767H17.2923C15.6517 41.6767 14.0783 41.0304 12.9182 39.88C11.7582 38.7295 11.1064 37.1692 11.1064 35.5423V23.1689C11.1057 22.12 11.3761 21.0885 11.8918 20.1728C12.4076 19.2572 13.1515 18.4879 14.0524 17.9386L32.041 6.97363V10.2314C32.0413 10.2754 32.0312 10.319 32.0116 10.3585C31.992 10.3981 31.9634 10.4326 31.928 10.4593L25.4483 15.316C25.398 15.3511 25.3602 15.4011 25.3404 15.459C25.3206 15.5168 25.3199 15.5793 25.3384 15.6376C25.3568 15.6958 25.3935 15.7467 25.4431 15.7829C25.4926 15.8191 25.5525 15.8388 25.6141 15.839H30.455C30.5236 15.8392 30.5899 15.8638 30.6418 15.9084C30.6936 15.9529 30.7276 16.0145 30.7375 16.0818C30.7996 16.5016 31.0118 16.8852 31.3356 17.1626C31.6593 17.44 32.0728 17.5927 32.5006 17.5927C32.9284 17.5927 33.342 17.44 33.6657 17.1626C33.9894 16.8852 34.2016 16.5016 34.2637 16.0818C34.2736 16.0145 34.3076 15.9529 34.3595 15.9084C34.4113 15.8638 34.4776 15.8392 34.5462 15.839H39.3834C39.4445 15.8398 39.5042 15.8213 39.5539 15.786C39.6036 15.7508 39.6406 15.7007 39.6595 15.6431C39.6785 15.5855 39.6783 15.5234 39.6592 15.4659C39.64 15.4084 39.6027 15.3585 39.5529 15.3234L33.0732 10.4667C33.0379 10.44 33.0092 10.4056 32.9896 10.366C32.97 10.3265 32.9599 10.2829 32.9602 10.2388V6.97363L50.9488 17.9423C51.8492 18.4913 52.5928 19.26 53.1085 20.1749C53.6242 21.0899 53.8949 22.1207 53.8948 23.1689Z" fill="#EFA143"/>
</svg>
