<svg width="126" height="116" viewBox="0 0 126 116" fill="none" xmlns="http://www.w3.org/2000/svg">
<g clip-path="url(#clip0_3070_13292)">
<rect width="126.42" height="113.377" rx="8" fill="#EEEEEE"/>
<g opacity="0.4">
<path d="M45.2268 58.697V69.0384C45.2268 70.3981 45.7682 71.7022 46.7319 72.6637C47.6957 73.6252 49.0028 74.1653 50.3657 74.1653H47.0796C45.9288 74.1659 44.8112 73.7808 43.9061 73.072C43.0009 72.3631 42.3605 71.3714 42.0878 70.2561L36.1508 46.3635C35.9632 45.6078 35.9505 44.8195 36.1135 44.0583C36.2765 43.297 36.611 42.5827 37.0917 41.9696C37.5724 41.3564 38.1867 40.8604 38.888 40.5192C39.5893 40.1779 40.3592 40.0004 41.1395 40H53.5235C54.4738 39.9993 55.4056 40.262 56.215 40.7587L62.6183 44.6836V45.152L47.6742 54.3287C46.9262 54.7876 46.3085 55.43 45.88 56.1947C45.4516 56.9594 45.2267 57.8209 45.2268 58.697Z" fill="#F15733"/>
<path d="M89.8493 46.3635L83.903 70.2561C83.6267 71.3683 82.9849 72.3561 82.0801 73.0618C81.1753 73.7676 80.0597 74.1506 78.9112 74.1497H75.6313C76.9918 74.1497 78.2968 73.6118 79.2606 72.6538C80.2244 71.6958 80.7683 70.3957 80.7733 69.0384V58.697C80.774 57.8204 80.5493 56.9582 80.1209 56.1929C79.6924 55.4276 79.0744 54.7847 78.3259 54.3256L63.3818 45.1613V44.6836L69.7976 40.7587C70.6056 40.264 71.5348 40.0014 72.4829 40H84.8575C85.638 39.9999 86.4083 40.1771 87.11 40.5181C87.8117 40.8592 88.4264 41.3551 88.9074 41.9683C89.3885 42.5816 89.7233 43.296 89.8865 44.0575C90.0496 44.819 90.0369 45.6076 89.8493 46.3635Z" fill="#4FA6B4"/>
<path d="M80.7731 58.6968V69.0382C80.7723 70.3982 80.2302 71.7023 79.266 72.6637C78.3017 73.6251 76.9943 74.1651 75.6311 74.1651H50.3654C49.0025 74.1651 47.6954 73.625 46.7317 72.6635C45.768 71.702 45.2266 70.3979 45.2266 69.0382V58.6968C45.2259 57.8202 45.4505 56.958 45.879 56.1927C46.3075 55.4274 46.9255 54.7845 47.674 54.3254L62.618 45.1611V47.8839C62.6183 47.9207 62.6099 47.9571 62.5936 47.9902C62.5773 48.0232 62.5535 48.052 62.5241 48.0743L57.1411 52.1335C57.0993 52.1628 57.0679 52.2047 57.0515 52.253C57.0351 52.3013 57.0345 52.3536 57.0498 52.4023C57.0651 52.4509 57.0956 52.4935 57.1368 52.5237C57.1779 52.554 57.2277 52.5704 57.2788 52.5706H61.3004C61.3575 52.5707 61.4125 52.5913 61.4556 52.6286C61.4987 52.6658 61.5269 52.7173 61.5352 52.7736C61.5867 53.1244 61.7631 53.445 62.032 53.6769C62.3009 53.9087 62.6444 54.0363 62.9998 54.0363C63.3553 54.0363 63.6988 53.9087 63.9677 53.6769C64.2366 53.445 64.413 53.1244 64.4645 52.7736C64.4728 52.7173 64.501 52.6658 64.5441 52.6286C64.5872 52.5913 64.6422 52.5707 64.6993 52.5706H68.7177C68.7685 52.5713 68.8181 52.5558 68.8594 52.5263C68.9007 52.4969 68.9314 52.455 68.9472 52.4069C68.9629 52.3587 68.9628 52.3068 68.9468 52.2588C68.9309 52.2107 68.9 52.169 68.8586 52.1397L63.4756 48.0806C63.4462 48.0583 63.4224 48.0295 63.4061 47.9964C63.3898 47.9633 63.3814 47.927 63.3817 47.8901V45.1611L78.3257 54.3285C79.0738 54.7874 79.6915 55.4298 80.1199 56.1945C80.5484 56.9592 80.7733 57.8207 80.7731 58.6968Z" fill="#EFA143"/>
</g>
</g>
<defs>
<clipPath id="clip0_3070_13292">
<rect width="126" height="116" fill="white"/>
</clipPath>
</defs>
</svg>
