<svg width="28" height="21" viewBox="0 0 28 21" fill="none" xmlns="http://www.w3.org/2000/svg">
<path fill-rule="evenodd" clip-rule="evenodd" d="M8.04483 2.67685C10.1835 2.67685 11.9177 4.92882 11.9177 7.70685C11.9177 8.34691 11.8256 8.95875 11.6578 9.52147C11.4519 9.6978 11.1932 9.81181 10.9065 9.85544V9.46098H8.48856V11.7503H10.3483C9.70452 12.3702 8.90734 12.7368 8.04483 12.7368C5.90544 12.7368 4.17124 10.4849 4.17124 7.70685C4.17124 4.92882 5.90544 2.67685 8.04483 2.67685ZM17.3438 0H25.9876C27.0942 0 28 0.90438 28 2.01039V8.53461C28 9.64025 27.0942 10.545 25.9876 10.545H23.5087C22.2608 13.1866 19.3551 13.7681 19.3551 13.7681C19.3551 13.7681 20.545 11.8416 20.3306 10.545H17.3438C16.2368 10.545 15.3314 9.64025 15.3314 8.53461V2.01039C15.3314 0.90438 16.2368 0 17.3438 0ZM25.9138 2.30403H17.4179V4.09812H25.9138V2.30403ZM25.9138 5.92998H17.4179V7.72444H25.9138V5.92998ZM3.69301 13.7681H12.3955C14.427 13.7681 16.0893 15.428 16.0893 17.4571V20.7549H0V17.4571C0 15.428 1.66189 13.7681 3.69301 13.7681ZM2.6569 5.45487H2.82463C3.71356 -0.230953 12.3754 -0.230953 13.2643 5.45487H13.8934C14.2013 5.45487 14.4538 5.70709 14.4538 6.01466V7.85311C14.4538 8.16142 14.2013 8.41327 13.8934 8.41327H13.3245V8.46752C13.3245 9.97091 12.117 11.0663 10.6368 11.0663V11.4813H8.75833V9.73043H10.6368V10.1447C11.4993 10.1447 12.2289 9.62045 12.3779 8.74833C12.3937 8.65705 12.4018 8.5632 12.4018 8.46752V6.22985C12.4018 6.01136 12.3845 5.79691 12.3511 5.58758C11.6233 1.01143 4.62782 0.928575 3.76017 5.46184C3.74953 5.51646 3.74036 5.57145 3.73191 5.62681V8.41327H2.6569C2.34896 8.41327 2.09682 8.16142 2.09682 7.85311V6.01466C2.09682 5.70709 2.34896 5.45487 2.6569 5.45487Z" fill="black"/>
</svg>
