<svg width="369" height="313" viewBox="0 0 369 313" fill="none" xmlns="http://www.w3.org/2000/svg">
<path d="M314.405 107.284C318.353 115.04 321.464 123.04 330.172 123.04C334.354 123.04 338.365 121.38 341.322 118.425C344.279 115.471 345.94 111.463 345.94 107.284C345.94 103.106 344.279 99.0984 341.322 96.1436C338.365 93.1889 334.354 91.529 330.172 91.529C321.322 91.4182 307.057 92.8483 314.405 107.284Z" fill="#2F2E41"/>
<path d="M326.8 296.766L320.061 298.266L311.062 273.009L321.008 270.794L326.8 296.766Z" fill="#A0616A"/>
<path d="M329.973 302.91L308.245 307.748L308.184 307.474C307.937 306.364 307.91 305.216 308.106 304.096C308.303 302.976 308.718 301.906 309.328 300.947C309.938 299.987 310.732 299.157 311.663 298.504C312.595 297.85 313.646 297.387 314.756 297.14L314.757 297.14L328.027 294.185L329.973 302.91Z" fill="#2F2E41"/>
<path d="M346.818 305.793H339.914L336.629 279.185L346.819 279.185L346.818 305.793Z" fill="#A0616A"/>
<path d="M348.577 312.48L326.316 312.479V312.198C326.316 311.061 326.541 309.935 326.976 308.885C327.411 307.834 328.05 306.88 328.854 306.076C329.659 305.272 330.614 304.634 331.665 304.199C332.716 303.764 333.843 303.54 334.981 303.54H334.981L348.577 303.541L348.577 312.48Z" fill="#2F2E41"/>
<path d="M346.862 291.85H338.051C337.439 291.848 336.848 291.625 336.387 291.223C335.926 290.821 335.625 290.266 335.54 289.66L327.553 227.923C327.526 227.73 327.434 227.552 327.291 227.419C327.148 227.287 326.964 227.208 326.769 227.196C326.574 227.183 326.382 227.239 326.223 227.352C326.065 227.466 325.951 227.631 325.9 227.819L321.167 245.448L325.434 285.597C325.506 286.216 325.347 286.84 324.988 287.349C324.628 287.858 324.094 288.217 323.486 288.356L316.497 289.968C315.876 290.108 315.225 290.011 314.672 289.695C314.119 289.38 313.704 288.868 313.51 288.262L302.255 249.23C301.348 246.37 301.036 243.355 301.338 240.369L304.86 205.182L305.127 205.195L352.144 207.459L349.395 289.406C349.374 290.063 349.098 290.685 348.625 291.142C348.152 291.598 347.52 291.852 346.862 291.85Z" fill="#2F2E41"/>
<path d="M329.397 123.347C337.036 123.347 343.228 117.159 343.228 109.526C343.228 101.894 337.036 95.7061 329.397 95.7061C321.759 95.7061 315.566 101.894 315.566 109.526C315.566 117.159 321.759 123.347 329.397 123.347Z" fill="#A0616A"/>
<path d="M351.093 211.249C351.047 211.249 351.002 211.248 350.956 211.245L304.078 208.727C303.691 208.706 303.313 208.597 302.975 208.407C302.636 208.218 302.346 207.953 302.126 207.634C301.906 207.315 301.763 206.949 301.706 206.566C301.65 206.182 301.683 205.791 301.802 205.422L305.512 193.91C309.484 181.567 310.163 168.402 307.481 155.717C306.778 152.397 306.793 148.966 307.524 145.653C308.254 142.339 309.685 139.22 311.719 136.504C313.719 133.824 316.269 131.603 319.198 129.987C322.127 128.372 325.367 127.4 328.702 127.137H328.702C328.932 127.118 329.162 127.102 329.394 127.088C332.922 126.88 336.452 127.461 339.727 128.789C343.002 130.118 345.939 132.16 348.324 134.767C350.708 137.374 352.481 140.48 353.511 143.858C354.542 147.237 354.805 150.802 354.281 154.295L351.012 176.225L353.618 208.513C353.646 208.862 353.602 209.212 353.487 209.543C353.373 209.873 353.192 210.176 352.955 210.433C352.718 210.69 352.43 210.895 352.109 211.036C351.789 211.176 351.443 211.249 351.093 211.249Z" fill="#CCCCCC"/>
<path d="M293.408 214.163C294.093 213.699 294.669 213.091 295.094 212.381C295.518 211.671 295.782 210.876 295.866 210.053C295.951 209.23 295.853 208.399 295.581 207.618C295.309 206.836 294.869 206.124 294.292 205.531L303.318 187.56L292.933 188.788L285.954 205.666C285.022 206.701 284.502 208.042 284.492 209.435C284.483 210.828 284.985 212.175 285.904 213.222C286.823 214.27 288.094 214.944 289.477 215.117C290.86 215.29 292.259 214.951 293.408 214.163H293.408Z" fill="#A0616A"/>
<path d="M355.372 217.092C354.774 216.52 354.308 215.824 354.008 215.053C353.708 214.282 353.581 213.455 353.636 212.63C353.69 211.804 353.925 211.001 354.324 210.276C354.723 209.551 355.276 208.922 355.944 208.434L350.051 189.208L360.084 192.154L364.142 209.959C364.888 211.136 365.177 212.545 364.953 213.919C364.729 215.294 364.009 216.539 362.928 217.418C361.847 218.297 360.48 218.749 359.088 218.689C357.695 218.629 356.373 218.061 355.372 217.092V217.092Z" fill="#A0616A"/>
<path d="M354.395 207.02C353.78 207.022 353.186 206.799 352.724 206.394C352.262 205.989 351.964 205.429 351.886 204.82L347.196 169.469L339.715 141.845C339.399 140.677 339.352 139.453 339.579 138.265C339.806 137.077 340.3 135.956 341.023 134.986C341.747 134.017 342.682 133.224 343.758 132.669C344.833 132.113 346.021 131.809 347.231 131.779C349.148 131.739 351.017 132.386 352.497 133.604C353.978 134.821 354.973 136.529 355.302 138.417L366.449 203.658C366.51 204.013 366.494 204.376 366.403 204.724C366.312 205.072 366.148 205.396 365.922 205.676C365.696 205.955 365.412 206.184 365.091 206.345C364.77 206.507 364.418 206.599 364.058 206.614L354.505 207.017C354.468 207.018 354.431 207.02 354.395 207.02Z" fill="#CCCCCC"/>
<path d="M298.431 203.049C298.25 203.049 298.069 203.03 297.892 202.992L288.541 201C288.189 200.925 287.857 200.776 287.567 200.563C287.277 200.349 287.036 200.077 286.86 199.764C286.684 199.45 286.576 199.103 286.545 198.745C286.513 198.386 286.559 198.026 286.678 197.686L308.579 135.224C309.221 133.419 310.488 131.903 312.151 130.95C313.814 129.997 315.764 129.669 317.647 130.027C318.835 130.258 319.955 130.757 320.922 131.484C321.89 132.211 322.679 133.149 323.23 134.225C323.782 135.302 324.082 136.49 324.106 137.7C324.131 138.909 323.881 140.108 323.374 141.207L311.364 167.227L300.842 201.263C300.685 201.78 300.366 202.233 299.932 202.554C299.498 202.876 298.972 203.049 298.431 203.049Z" fill="#CCCCCC"/>
<path d="M314.723 101.716C317.883 103.893 321.635 105.051 325.473 105.036C324.104 105.985 322.545 106.626 320.904 106.914C326.008 108.008 331.282 108.038 336.398 107.001C337.535 106.819 338.632 106.443 339.641 105.888C340.144 105.608 340.582 105.224 340.927 104.763C341.272 104.302 341.516 103.774 341.643 103.213C341.983 101.272 340.47 99.5093 338.898 98.3211C336.49 96.5298 333.714 95.2956 330.77 94.7078C327.827 94.12 324.789 94.1934 321.877 94.9226C319.976 95.4137 318.072 96.2434 316.837 97.7691C315.602 99.2948 315.236 101.647 316.413 103.218L314.723 101.716Z" fill="#2F2E41"/>
<path d="M242.549 1.11059e-09H4.91057C3.60857 0.00111749 2.36022 0.518431 1.43955 1.43837C0.518888 2.35831 0.00115119 3.60571 0 4.90672V236.355C0.00115863 237.656 0.51889 238.904 1.43955 239.823C2.36022 240.743 3.60857 241.261 4.91057 241.262H25.7462V239.861H4.91057C3.98045 239.86 3.08873 239.49 2.43104 238.833C1.77334 238.176 1.40338 237.285 1.4023 236.355V4.90672C1.40338 3.9773 1.77334 3.08626 2.43104 2.42907C3.08873 1.77187 3.98045 1.4022 4.91057 1.40112H242.549C243.48 1.40104 244.373 1.77018 245.032 2.42745C245.691 3.08473 246.062 3.97642 246.063 4.90672V236.355C246.064 237.04 245.862 237.709 245.483 238.28C245.147 238.782 244.69 239.192 244.154 239.472C243.658 239.729 243.108 239.862 242.549 239.861H221.714V241.262H242.549C243.259 241.262 243.961 241.108 244.605 240.811C245.25 240.513 245.822 240.08 246.283 239.54C246.322 239.498 246.358 239.453 246.39 239.405C246.683 239.047 246.92 238.647 247.094 238.218C247.341 237.628 247.467 236.995 247.465 236.355V4.90672C247.464 3.60485 246.945 2.35681 246.024 1.43678C245.102 0.516743 243.852 -2.76624e-05 242.549 1.11059e-09Z" fill="#3F3D56"/>
<path d="M246.761 19.668H0.699219V21.0707H246.761V19.668Z" fill="#3F3D56"/>
<path d="M12.6332 14.7306C14.959 14.7306 16.8445 12.8466 16.8445 10.5225C16.8445 8.19848 14.959 6.31445 12.6332 6.31445C10.3073 6.31445 8.42188 8.19848 8.42188 10.5225C8.42188 12.8466 10.3073 14.7306 12.6332 14.7306Z" fill="#3F3D56"/>
<path d="M24.7386 14.7306C27.0645 14.7306 28.9499 12.8466 28.9499 10.5225C28.9499 8.19848 27.0645 6.31445 24.7386 6.31445C22.4128 6.31445 20.5273 8.19848 20.5273 10.5225C20.5273 12.8466 22.4128 14.7306 24.7386 14.7306Z" fill="#3F3D56"/>
<path d="M36.848 14.7306C39.1739 14.7306 41.0593 12.8466 41.0593 10.5225C41.0593 8.19848 39.1739 6.31445 36.848 6.31445C34.5222 6.31445 32.6367 8.19848 32.6367 10.5225C32.6367 12.8466 34.5222 14.7306 36.848 14.7306Z" fill="#3F3D56"/>
<path d="M183.144 52.1369H64.3245C62.383 52.1369 60.521 51.3662 59.1481 49.9944C57.7752 48.6226 57.0039 46.762 57.0039 44.8219C57.0039 42.8818 57.7752 41.0212 59.1481 39.6494C60.521 38.2775 62.383 37.5068 64.3245 37.5068H183.144C185.085 37.5068 186.948 38.2775 188.32 39.6494C189.693 41.0212 190.465 42.8818 190.465 44.8219C190.465 46.762 189.693 48.6226 188.32 49.9944C186.948 51.3662 185.085 52.1369 183.144 52.1369ZM64.3245 38.6322C62.6817 38.6322 61.1061 39.2843 59.9445 40.4451C58.7828 41.6059 58.1302 43.1803 58.1302 44.8219C58.1302 46.4635 58.7828 48.0378 59.9445 49.1986C61.1061 50.3594 62.6817 51.0115 64.3245 51.0115H183.144C184.787 51.0115 186.362 50.3594 187.524 49.1986C188.686 48.0378 189.338 46.4635 189.338 44.8219C189.338 43.1803 188.686 41.6059 187.524 40.4451C186.362 39.2843 184.787 38.6322 183.144 38.6322H64.3245Z" fill="#3F3D56"/>
<path d="M213.268 154.32H34.1942C31.6561 154.317 29.2229 153.308 27.4282 151.515C25.6335 149.721 24.624 147.29 24.6211 144.754V87.3588C24.624 84.8227 25.6335 82.3912 27.4282 80.5979C29.2229 78.8046 31.6561 77.7958 34.1942 77.793H213.268C215.806 77.7958 218.239 78.8046 220.034 80.5979C221.829 82.3912 222.838 84.8227 222.841 87.3588V144.754C222.838 147.29 221.829 149.721 220.034 151.515C218.239 153.308 215.806 154.317 213.268 154.32ZM34.1942 78.9184C31.9547 78.9209 29.8077 79.811 28.2242 81.3933C26.6406 82.9757 25.7499 85.121 25.7473 87.3588V144.754C25.7499 146.992 26.6406 149.137 28.2242 150.719C29.8077 152.302 31.9547 153.192 34.1942 153.194H213.268C215.507 153.192 217.655 152.302 219.238 150.719C220.822 149.137 221.712 146.992 221.715 144.754V87.3588C221.712 85.121 220.822 82.9757 219.238 81.3933C217.655 79.811 215.507 78.9209 213.268 78.9184H34.1942Z" fill="#3F3D56"/>
<path d="M147.215 112.961H84.7081C83.5133 112.961 82.3675 112.487 81.5226 111.643C80.6778 110.798 80.2031 109.653 80.2031 108.46C80.2031 107.266 80.6778 106.121 81.5226 105.276C82.3675 104.432 83.5133 103.958 84.7081 103.958H147.215C148.41 103.958 149.556 104.432 150.401 105.276C151.245 106.121 151.72 107.266 151.72 108.46C151.72 109.653 151.245 110.798 150.401 111.643C149.556 112.487 148.41 112.961 147.215 112.961Z" fill="#FEEEEB"/>
<path d="M205.217 128.155H84.7081C83.5133 128.155 82.3675 127.68 81.5226 126.836C80.6778 125.992 80.2031 124.847 80.2031 123.653C80.2031 122.459 80.6778 121.314 81.5226 120.47C82.3675 119.626 83.5133 119.151 84.7081 119.151H205.217C206.412 119.151 207.558 119.626 208.402 120.47C209.247 121.314 209.722 122.459 209.722 123.653C209.722 124.847 209.247 125.992 208.402 126.836C207.558 127.68 206.412 128.155 205.217 128.155Z" fill="#FEEEEB"/>
<path d="M54.6359 132.937C63.9661 132.937 71.5297 125.379 71.5297 116.056C71.5297 106.733 63.9661 99.1748 54.6359 99.1748C45.3058 99.1748 37.7422 106.733 37.7422 116.056C37.7422 125.379 45.3058 132.937 54.6359 132.937Z" fill="#FEEEEB"/>
<path d="M205.21 146.442H189.443C188.248 146.442 187.102 145.967 186.257 145.123C185.412 144.279 184.938 143.134 184.938 141.94C184.938 140.746 185.412 139.601 186.257 138.757C187.102 137.913 188.248 137.438 189.443 137.438H205.21C206.405 137.438 207.551 137.913 208.396 138.757C209.24 139.601 209.715 140.746 209.715 141.94C209.715 143.134 209.24 144.279 208.396 145.123C207.551 145.967 206.405 146.442 205.21 146.442Z" fill="white"/>
<path d="M205.21 146.442H189.443C188.248 146.442 187.102 145.967 186.257 145.123C185.412 144.279 184.938 143.134 184.938 141.94C184.938 140.746 185.412 139.601 186.257 138.757C187.102 137.913 188.248 137.438 189.443 137.438H205.21C206.405 137.438 207.551 137.913 208.396 138.757C209.24 139.601 209.715 140.746 209.715 141.94C209.715 143.134 209.24 144.279 208.396 145.123C207.551 145.967 206.405 146.442 205.21 146.442Z" fill="#CCCCCC"/>
<path d="M213.268 181.329H34.1942C31.6564 181.333 29.2235 182.342 27.429 184.135C25.6344 185.928 24.6247 188.359 24.6211 190.895V248.29C24.6247 250.826 25.6344 253.257 27.429 255.05C29.2235 256.843 31.6564 257.852 34.1942 257.856H213.268C215.806 257.853 218.24 256.845 220.034 255.051C221.829 253.258 222.839 250.826 222.841 248.29V190.895C222.839 188.359 221.829 185.927 220.034 184.134C218.24 182.34 215.806 181.332 213.268 181.329ZM221.715 248.29C221.713 250.528 220.823 252.674 219.239 254.256C217.655 255.839 215.508 256.729 213.268 256.73H34.1942C31.9548 256.728 29.8079 255.838 28.2244 254.255C26.6409 252.673 25.7501 250.528 25.7473 248.29V190.895C25.7501 188.657 26.6409 186.512 28.2244 184.93C29.8079 183.347 31.9548 182.457 34.1942 182.454H213.268C215.508 182.456 217.655 183.346 219.239 184.929C220.823 186.511 221.713 188.657 221.715 190.895V248.29Z" fill="#3F3D56"/>
<path d="M147.215 216.497H84.7081C83.5133 216.497 82.3675 216.023 81.5226 215.179C80.6778 214.335 80.2031 213.19 80.2031 211.996C80.2031 210.802 80.6778 209.657 81.5226 208.813C82.3675 207.968 83.5133 207.494 84.7081 207.494H147.215C148.41 207.494 149.556 207.968 150.401 208.813C151.245 209.657 151.72 210.802 151.72 211.996C151.72 213.19 151.245 214.335 150.401 215.179C149.556 216.023 148.41 216.497 147.215 216.497Z" fill="#FEEEEB"/>
<path d="M205.217 231.691H84.7081C83.5133 231.691 82.3675 231.216 81.5226 230.372C80.6778 229.528 80.2031 228.383 80.2031 227.189C80.2031 225.995 80.6778 224.85 81.5226 224.006C82.3675 223.162 83.5133 222.688 84.7081 222.688H205.217C206.412 222.688 207.558 223.162 208.402 224.006C209.247 224.85 209.722 225.995 209.722 227.189C209.722 228.383 209.247 229.528 208.402 230.372C207.558 231.216 206.412 231.691 205.217 231.691Z" fill="#FEEEEB"/>
<path d="M54.6359 236.474C63.9661 236.474 71.5297 228.916 71.5297 219.593C71.5297 210.27 63.9661 202.712 54.6359 202.712C45.3058 202.712 37.7422 210.27 37.7422 219.593C37.7422 228.916 45.3058 236.474 54.6359 236.474Z" fill="#FEEEEB"/>
<path d="M205.21 249.978H189.443C188.248 249.978 187.102 249.503 186.257 248.659C185.412 247.815 184.938 246.67 184.938 245.476C184.938 244.282 185.412 243.137 186.257 242.293C187.102 241.449 188.248 240.975 189.443 240.975H205.21C206.405 240.975 207.551 241.449 208.396 242.293C209.24 243.137 209.715 244.282 209.715 245.476C209.715 246.67 209.24 247.815 208.396 248.659C207.551 249.503 206.405 249.978 205.21 249.978Z" fill="#CCCCCC"/>
<path d="M368.436 313H289.598C289.449 313 289.306 312.941 289.2 312.836C289.094 312.73 289.035 312.587 289.035 312.438C289.035 312.288 289.094 312.145 289.2 312.04C289.306 311.934 289.449 311.875 289.598 311.875H368.436C368.585 311.875 368.728 311.934 368.834 312.04C368.94 312.145 368.999 312.288 368.999 312.438C368.999 312.587 368.94 312.73 368.834 312.836C368.728 312.941 368.585 313 368.436 313Z" fill="#3F3D56"/>
</svg>
