<svg width="34" height="34" viewBox="0 0 34 34" fill="none" xmlns="http://www.w3.org/2000/svg">
<path fill-rule="evenodd" clip-rule="evenodd" d="M17 7C11.4772 7.00001 7 11.4772 7 17C7 22.5228 11.4772 27 17 27C22.5228 27 27 22.5228 27 17C27 11.4771 22.5228 7 17 7ZM17 9C21.4183 9 25 12.5817 25 17C25 21.4183 21.4183 25 17 25C12.5817 25 9 21.4183 9 17C9 12.5817 12.5817 9 17 9ZM14 12.5C13.1716 12.5 12.5 13.1716 12.5 14C12.5 14.8284 13.1716 15.5 14 15.5C14.8284 15.5 15.5 14.8284 15.5 14C15.5 13.1716 14.8284 12.5 14 12.5ZM20.7071 14.7071L14.7071 20.7071C14.3166 21.0976 13.6834 21.0976 13.2929 20.7071C12.9024 20.3166 12.9024 19.6834 13.2929 19.2929L19.2929 13.2929C19.6834 12.9024 20.3166 12.9024 20.7071 13.2929C21.0976 13.6834 21.0976 14.3166 20.7071 14.7071ZM18.5 20C18.5 19.1716 19.1716 18.5 20 18.5C20.8284 18.5 21.5 19.1716 21.5 20C21.5 20.8284 20.8284 21.5 20 21.5C19.1716 21.5 18.5 20.8284 18.5 20Z" fill="#058028"/>
<rect opacity="0.2" width="34" height="34" rx="17" fill="#058028"/>
</svg>
