<svg width="122" height="36" viewBox="0 0 122 36" fill="none" xmlns="http://www.w3.org/2000/svg">
<path d="M0 12C0 5.37258 5.37258 0 12 0H110C116.627 0 122 5.37258 122 12V24C122 30.6274 116.627 36 110 36H12C5.37258 36 0 30.6274 0 24V12Z" fill="#F5F5F5"/>
<path fill-rule="evenodd" clip-rule="evenodd" d="M20.5461 26H12.8831C12.3952 26 12 25.6045 12 25.1169V10.8831C12 10.3953 12.3953 10 12.8831 10H27.117C27.6047 10 28 10.3953 28 10.8831V25.1169C28 25.6046 27.6046 26 27.117 26H23.0398V19.8039H25.1195L25.4309 17.3892H23.0398V15.8475C23.0398 15.1484 23.2339 14.672 24.2364 14.672L25.5151 14.6714V12.5117C25.294 12.4823 24.5349 12.4165 23.6519 12.4165C21.8083 12.4165 20.5461 13.5418 20.5461 15.6084V17.3892H18.461V19.8039H20.5461V26Z" fill="#151515"/>
<path d="M41.785 12.97V15.025H37.495V17.245H40.705V19.24H37.495V23.5H34.93V12.97H41.785ZM42.6231 19.3C42.6231 18.44 42.7831 17.685 43.1031 17.035C43.4331 16.385 43.8781 15.885 44.4381 15.535C44.9981 15.185 45.6231 15.01 46.3131 15.01C46.9031 15.01 47.4181 15.13 47.8581 15.37C48.3081 15.61 48.6531 15.925 48.8931 16.315V15.13H51.4581V23.5H48.8931V22.315C48.6431 22.705 48.2931 23.02 47.8431 23.26C47.4031 23.5 46.8881 23.62 46.2981 23.62C45.6181 23.62 44.9981 23.445 44.4381 23.095C43.8781 22.735 43.4331 22.23 43.1031 21.58C42.7831 20.92 42.6231 20.16 42.6231 19.3ZM48.8931 19.315C48.8931 18.675 48.7131 18.17 48.3531 17.8C48.0031 17.43 47.5731 17.245 47.0631 17.245C46.5531 17.245 46.1181 17.43 45.7581 17.8C45.4081 18.16 45.2331 18.66 45.2331 19.3C45.2331 19.94 45.4081 20.45 45.7581 20.83C46.1181 21.2 46.5531 21.385 47.0631 21.385C47.5731 21.385 48.0031 21.2 48.3531 20.83C48.7131 20.46 48.8931 19.955 48.8931 19.315ZM52.8038 19.315C52.8038 18.445 52.9788 17.685 53.3288 17.035C53.6888 16.385 54.1838 15.885 54.8138 15.535C55.4538 15.185 56.1838 15.01 57.0038 15.01C58.0538 15.01 58.9288 15.285 59.6288 15.835C60.3388 16.385 60.8038 17.16 61.0238 18.16H58.2938C58.0638 17.52 57.6188 17.2 56.9588 17.2C56.4888 17.2 56.1138 17.385 55.8338 17.755C55.5538 18.115 55.4138 18.635 55.4138 19.315C55.4138 19.995 55.5538 20.52 55.8338 20.89C56.1138 21.25 56.4888 21.43 56.9588 21.43C57.6188 21.43 58.0638 21.11 58.2938 20.47H61.0238C60.8038 21.45 60.3388 22.22 59.6288 22.78C58.9188 23.34 58.0438 23.62 57.0038 23.62C56.1838 23.62 55.4538 23.445 54.8138 23.095C54.1838 22.745 53.6888 22.245 53.3288 21.595C52.9788 20.945 52.8038 20.185 52.8038 19.315ZM70.2858 19.18C70.2858 19.42 70.2708 19.67 70.2408 19.93H64.4358C64.4758 20.45 64.6408 20.85 64.9308 21.13C65.2308 21.4 65.5958 21.535 66.0258 21.535C66.6658 21.535 67.1108 21.265 67.3608 20.725H70.0908C69.9508 21.275 69.6958 21.77 69.3258 22.21C68.9658 22.65 68.5108 22.995 67.9608 23.245C67.4108 23.495 66.7958 23.62 66.1158 23.62C65.2958 23.62 64.5658 23.445 63.9258 23.095C63.2858 22.745 62.7858 22.245 62.4258 21.595C62.0658 20.945 61.8858 20.185 61.8858 19.315C61.8858 18.445 62.0608 17.685 62.4108 17.035C62.7708 16.385 63.2708 15.885 63.9108 15.535C64.5508 15.185 65.2858 15.01 66.1158 15.01C66.9258 15.01 67.6458 15.18 68.2758 15.52C68.9058 15.86 69.3958 16.345 69.7458 16.975C70.1058 17.605 70.2858 18.34 70.2858 19.18ZM67.6608 18.505C67.6608 18.065 67.5108 17.715 67.2108 17.455C66.9108 17.195 66.5358 17.065 66.0858 17.065C65.6558 17.065 65.2908 17.19 64.9908 17.44C64.7008 17.69 64.5208 18.045 64.4508 18.505H67.6608ZM74.204 16.315C74.444 15.925 74.789 15.61 75.239 15.37C75.689 15.13 76.204 15.01 76.784 15.01C77.474 15.01 78.099 15.185 78.659 15.535C79.219 15.885 79.659 16.385 79.979 17.035C80.309 17.685 80.474 18.44 80.474 19.3C80.474 20.16 80.309 20.92 79.979 21.58C79.659 22.23 79.219 22.735 78.659 23.095C78.099 23.445 77.474 23.62 76.784 23.62C76.194 23.62 75.679 23.505 75.239 23.275C74.799 23.035 74.454 22.72 74.204 22.33V23.5H71.639V12.4H74.204V16.315ZM77.864 19.3C77.864 18.66 77.684 18.16 77.324 17.8C76.974 17.43 76.539 17.245 76.019 17.245C75.509 17.245 75.074 17.43 74.714 17.8C74.364 18.17 74.189 18.675 74.189 19.315C74.189 19.955 74.364 20.46 74.714 20.83C75.074 21.2 75.509 21.385 76.019 21.385C76.529 21.385 76.964 21.2 77.324 20.83C77.684 20.45 77.864 19.94 77.864 19.3ZM85.6296 23.62C84.8096 23.62 84.0696 23.445 83.4096 23.095C82.7596 22.745 82.2446 22.245 81.8646 21.595C81.4946 20.945 81.3096 20.185 81.3096 19.315C81.3096 18.455 81.4996 17.7 81.8796 17.05C82.2596 16.39 82.7796 15.885 83.4396 15.535C84.0996 15.185 84.8396 15.01 85.6596 15.01C86.4796 15.01 87.2196 15.185 87.8796 15.535C88.5396 15.885 89.0596 16.39 89.4396 17.05C89.8196 17.7 90.0096 18.455 90.0096 19.315C90.0096 20.175 89.8146 20.935 89.4246 21.595C89.0446 22.245 88.5196 22.745 87.8496 23.095C87.1896 23.445 86.4496 23.62 85.6296 23.62ZM85.6296 21.4C86.1196 21.4 86.5346 21.22 86.8746 20.86C87.2246 20.5 87.3996 19.985 87.3996 19.315C87.3996 18.645 87.2296 18.13 86.8896 17.77C86.5596 17.41 86.1496 17.23 85.6596 17.23C85.1596 17.23 84.7446 17.41 84.4146 17.77C84.0846 18.12 83.9196 18.635 83.9196 19.315C83.9196 19.985 84.0796 20.5 84.3996 20.86C84.7296 21.22 85.1396 21.4 85.6296 21.4ZM95.1804 23.62C94.3604 23.62 93.6204 23.445 92.9604 23.095C92.3104 22.745 91.7954 22.245 91.4154 21.595C91.0454 20.945 90.8604 20.185 90.8604 19.315C90.8604 18.455 91.0504 17.7 91.4304 17.05C91.8104 16.39 92.3304 15.885 92.9904 15.535C93.6504 15.185 94.3904 15.01 95.2104 15.01C96.0304 15.01 96.7704 15.185 97.4304 15.535C98.0904 15.885 98.6104 16.39 98.9904 17.05C99.3704 17.7 99.5604 18.455 99.5604 19.315C99.5604 20.175 99.3654 20.935 98.9754 21.595C98.5954 22.245 98.0704 22.745 97.4004 23.095C96.7404 23.445 96.0004 23.62 95.1804 23.62ZM95.1804 21.4C95.6704 21.4 96.0854 21.22 96.4254 20.86C96.7754 20.5 96.9504 19.985 96.9504 19.315C96.9504 18.645 96.7804 18.13 96.4404 17.77C96.1104 17.41 95.7004 17.23 95.2104 17.23C94.7104 17.23 94.2954 17.41 93.9654 17.77C93.6354 18.12 93.4704 18.635 93.4704 19.315C93.4704 19.985 93.6304 20.5 93.9504 20.86C94.2804 21.22 94.6904 21.4 95.1804 21.4ZM106.036 23.5L103.486 19.99V23.5H100.921V12.4H103.486V18.535L106.021 15.13H109.186L105.706 19.33L109.216 23.5H106.036Z" fill="#151515"/>
</svg>
