<svg width="180" height="48" viewBox="0 0 180 48" fill="none" xmlns="http://www.w3.org/2000/svg">
<circle cx="24" cy="24" r="23.5" stroke="#C4C4C4"/>
<path d="M65.036 18V8.2H66.212V12.526H71.294V8.2H72.47V18H71.294V13.492H66.212V18H65.036ZM77.59 18.168C76.9273 18.168 76.3393 18.0187 75.826 17.72C75.3126 17.412 74.9066 16.9873 74.608 16.446C74.3186 15.9047 74.174 15.2653 74.174 14.528C74.174 13.8 74.3186 13.1653 74.608 12.624C74.8973 12.0733 75.2986 11.6487 75.812 11.35C76.3346 11.042 76.9366 10.888 77.618 10.888C78.29 10.888 78.8686 11.042 79.354 11.35C79.8486 11.6487 80.2266 12.0453 80.488 12.54C80.7493 13.0347 80.88 13.5667 80.88 14.136C80.88 14.2387 80.8753 14.3413 80.866 14.444C80.866 14.5467 80.866 14.6633 80.866 14.794H75.336C75.364 15.326 75.4853 15.7693 75.7 16.124C75.924 16.4693 76.1993 16.7307 76.526 16.908C76.862 17.0853 77.2166 17.174 77.59 17.174C78.0753 17.174 78.4813 17.062 78.808 16.838C79.1346 16.614 79.3726 16.3107 79.522 15.928H80.684C80.4973 16.572 80.138 17.1087 79.606 17.538C79.0833 17.958 78.4113 18.168 77.59 18.168ZM77.59 11.882C77.03 11.882 76.5306 12.0547 76.092 12.4C75.6626 12.736 75.4153 13.2307 75.35 13.884H79.718C79.69 13.2587 79.4753 12.7687 79.074 12.414C78.6726 12.0593 78.178 11.882 77.59 11.882ZM82.4387 18V7.92H83.6147V18H82.4387ZM85.5422 21.08V11.056H86.6062L86.7182 12.204C86.9422 11.868 87.2595 11.5647 87.6702 11.294C88.0902 11.0233 88.6222 10.888 89.2662 10.888C89.9568 10.888 90.5588 11.0467 91.0722 11.364C91.5855 11.6813 91.9822 12.1153 92.2622 12.666C92.5515 13.2167 92.6962 13.842 92.6962 14.542C92.6962 15.242 92.5515 15.8673 92.2622 16.418C91.9822 16.9593 91.5808 17.3887 91.0582 17.706C90.5448 18.014 89.9428 18.168 89.2522 18.168C88.6828 18.168 88.1742 18.0513 87.7262 17.818C87.2875 17.5847 86.9515 17.258 86.7182 16.838V21.08H85.5422ZM89.1262 17.146C89.5928 17.146 90.0035 17.0387 90.3582 16.824C90.7128 16.6 90.9928 16.292 91.1982 15.9C91.4035 15.508 91.5062 15.0507 91.5062 14.528C91.5062 14.0053 91.4035 13.548 91.1982 13.156C90.9928 12.764 90.7128 12.4607 90.3582 12.246C90.0035 12.022 89.5928 11.91 89.1262 11.91C88.6595 11.91 88.2488 12.022 87.8942 12.246C87.5395 12.4607 87.2595 12.764 87.0542 13.156C86.8488 13.548 86.7462 14.0053 86.7462 14.528C86.7462 15.0507 86.8488 15.508 87.0542 15.9C87.2595 16.292 87.5395 16.6 87.8942 16.824C88.2488 17.0387 88.6595 17.146 89.1262 17.146ZM101.23 18.168C100.568 18.168 99.9703 18.0187 99.4383 17.72C98.9156 17.412 98.5003 16.9873 98.1923 16.446C97.8936 15.8953 97.7443 15.256 97.7443 14.528C97.7443 13.8 97.8936 13.1653 98.1923 12.624C98.5003 12.0733 98.9156 11.6487 99.4383 11.35C99.9703 11.042 100.568 10.888 101.23 10.888C102.052 10.888 102.742 11.1027 103.302 11.532C103.872 11.9613 104.231 12.5353 104.38 13.254H103.176C103.083 12.8247 102.854 12.4933 102.49 12.26C102.126 12.0173 101.702 11.896 101.216 11.896C100.824 11.896 100.456 11.994 100.11 12.19C99.7649 12.386 99.4849 12.68 99.2703 13.072C99.0556 13.464 98.9483 13.9493 98.9483 14.528C98.9483 15.1067 99.0556 15.592 99.2703 15.984C99.4849 16.376 99.7649 16.6747 100.11 16.88C100.456 17.076 100.824 17.174 101.216 17.174C101.702 17.174 102.126 17.0573 102.49 16.824C102.854 16.5813 103.083 16.2407 103.176 15.802H104.38C104.24 16.502 103.886 17.0713 103.316 17.51C102.747 17.9487 102.052 18.168 101.23 18.168ZM109.145 18.168C108.482 18.168 107.894 18.0187 107.381 17.72C106.867 17.412 106.461 16.9873 106.163 16.446C105.873 15.9047 105.729 15.2653 105.729 14.528C105.729 13.8 105.873 13.1653 106.163 12.624C106.452 12.0733 106.853 11.6487 107.367 11.35C107.889 11.042 108.491 10.888 109.173 10.888C109.845 10.888 110.423 11.042 110.909 11.35C111.403 11.6487 111.781 12.0453 112.043 12.54C112.304 13.0347 112.435 13.5667 112.435 14.136C112.435 14.2387 112.43 14.3413 112.421 14.444C112.421 14.5467 112.421 14.6633 112.421 14.794H106.891C106.919 15.326 107.04 15.7693 107.255 16.124C107.479 16.4693 107.754 16.7307 108.081 16.908C108.417 17.0853 108.771 17.174 109.145 17.174C109.63 17.174 110.036 17.062 110.363 16.838C110.689 16.614 110.927 16.3107 111.077 15.928H112.239C112.052 16.572 111.693 17.1087 111.161 17.538C110.638 17.958 109.966 18.168 109.145 18.168ZM109.145 11.882C108.585 11.882 108.085 12.0547 107.647 12.4C107.217 12.736 106.97 13.2307 106.905 13.884H111.273C111.245 13.2587 111.03 12.7687 110.629 12.414C110.227 12.0593 109.733 11.882 109.145 11.882ZM113.993 18V11.056H115.057L115.127 12.302C115.351 11.8633 115.673 11.518 116.093 11.266C116.513 11.014 116.989 10.888 117.521 10.888C118.343 10.888 118.996 11.14 119.481 11.644C119.976 12.1387 120.223 12.904 120.223 13.94V18H119.047V14.066C119.047 12.6193 118.45 11.896 117.255 11.896C116.658 11.896 116.159 12.1153 115.757 12.554C115.365 12.9833 115.169 13.5993 115.169 14.402V18H113.993ZM124.749 18C124.114 18 123.615 17.846 123.251 17.538C122.887 17.23 122.705 16.6747 122.705 15.872V12.05H121.501V11.056H122.705L122.859 9.39H123.881V11.056H125.925V12.05H123.881V15.872C123.881 16.3107 123.97 16.6093 124.147 16.768C124.324 16.9173 124.637 16.992 125.085 16.992H125.813V18H124.749ZM127.419 18V11.056H128.483L128.581 12.386C128.796 11.9287 129.122 11.5647 129.561 11.294C130 11.0233 130.541 10.888 131.185 10.888V12.12H130.863C130.452 12.12 130.074 12.1947 129.729 12.344C129.384 12.484 129.108 12.7267 128.903 13.072C128.698 13.4173 128.595 13.8933 128.595 14.5V18H127.419ZM135.367 18.168C134.705 18.168 134.117 18.0187 133.603 17.72C133.09 17.412 132.684 16.9873 132.385 16.446C132.096 15.9047 131.951 15.2653 131.951 14.528C131.951 13.8 132.096 13.1653 132.385 12.624C132.675 12.0733 133.076 11.6487 133.589 11.35C134.112 11.042 134.714 10.888 135.395 10.888C136.067 10.888 136.646 11.042 137.131 11.35C137.626 11.6487 138.004 12.0453 138.265 12.54C138.527 13.0347 138.657 13.5667 138.657 14.136C138.657 14.2387 138.653 14.3413 138.643 14.444C138.643 14.5467 138.643 14.6633 138.643 14.794H133.113C133.141 15.326 133.263 15.7693 133.477 16.124C133.701 16.4693 133.977 16.7307 134.303 16.908C134.639 17.0853 134.994 17.174 135.367 17.174C135.853 17.174 136.259 17.062 136.585 16.838C136.912 16.614 137.15 16.3107 137.299 15.928H138.461C138.275 16.572 137.915 17.1087 137.383 17.538C136.861 17.958 136.189 18.168 135.367 18.168ZM135.367 11.882C134.807 11.882 134.308 12.0547 133.869 12.4C133.44 12.736 133.193 13.2307 133.127 13.884H137.495C137.467 13.2587 137.253 12.7687 136.851 12.414C136.45 12.0593 135.955 11.882 135.367 11.882Z" fill="white"/>
<path d="M67.71 40C67.0753 40 66.576 39.846 66.212 39.538C65.848 39.23 65.666 38.6747 65.666 37.872V34.05H64.462V33.056H65.666L65.82 31.39H66.842V33.056H68.886V34.05H66.842V37.872C66.842 38.3107 66.9307 38.6093 67.108 38.768C67.2853 38.9173 67.598 38.992 68.046 38.992H68.774V40H67.71ZM70.3801 40V33.056H71.4441L71.5421 34.386C71.7567 33.9287 72.0834 33.5647 72.5221 33.294C72.9607 33.0233 73.5021 32.888 74.1461 32.888V34.12H73.8241C73.4134 34.12 73.0354 34.1947 72.6901 34.344C72.3447 34.484 72.0694 34.7267 71.8641 35.072C71.6587 35.4173 71.5561 35.8933 71.5561 36.5V40H70.3801ZM76.222 43.08L77.944 39.328H77.538L74.78 33.056H76.054L78.35 38.46L80.786 33.056H82.004L77.454 43.08H76.222ZM85.9893 40C85.3546 40 84.8553 39.846 84.4913 39.538C84.1273 39.23 83.9453 38.6747 83.9453 37.872V34.05H82.7413V33.056H83.9453L84.0993 31.39H85.1213V33.056H87.1653V34.05H85.1213V37.872C85.1213 38.3107 85.21 38.6093 85.3873 38.768C85.5646 38.9173 85.8773 38.992 86.3253 38.992H87.0533V40H85.9893ZM88.6594 40V29.92H89.8354V34.246C90.0687 33.8167 90.4 33.4853 90.8294 33.252C91.2587 33.0093 91.7254 32.888 92.2294 32.888C93.032 32.888 93.676 33.14 94.1614 33.644C94.6467 34.1387 94.8894 34.904 94.8894 35.94V40H93.7274V36.066C93.7274 34.6193 93.144 33.896 91.9774 33.896C91.3707 33.896 90.862 34.1153 90.4514 34.554C90.0407 34.9833 89.8354 35.5993 89.8354 36.402V40H88.6594ZM96.6711 40V33.056H97.7351L97.8331 34.386C98.0477 33.9287 98.3744 33.5647 98.8131 33.294C99.2517 33.0233 99.7931 32.888 100.437 32.888V34.12H100.115C99.7044 34.12 99.3264 34.1947 98.9811 34.344C98.6357 34.484 98.3604 34.7267 98.1551 35.072C97.9497 35.4173 97.8471 35.8933 97.8471 36.5V40H96.6711ZM101.757 40V33.056H102.821L102.891 34.302C103.115 33.8633 103.437 33.518 103.857 33.266C104.277 33.014 104.753 32.888 105.285 32.888C106.106 32.888 106.76 33.14 107.245 33.644C107.74 34.1387 107.987 34.904 107.987 35.94V40H106.811V36.066C106.811 34.6193 106.214 33.896 105.019 33.896C104.422 33.896 103.922 34.1153 103.521 34.554C103.129 34.9833 102.933 35.5993 102.933 36.402V40H101.757ZM113.479 40.168C112.909 40.168 112.401 40.0513 111.953 39.818C111.514 39.5847 111.178 39.258 110.945 38.838L110.833 40H109.769V29.92H110.945V34.204C111.169 33.868 111.486 33.5647 111.897 33.294C112.317 33.0233 112.849 32.888 113.493 32.888C114.183 32.888 114.785 33.0467 115.299 33.364C115.812 33.6813 116.209 34.1153 116.489 34.666C116.778 35.2167 116.923 35.842 116.923 36.542C116.923 37.242 116.778 37.8673 116.489 38.418C116.209 38.9593 115.807 39.3887 115.285 39.706C114.771 40.014 114.169 40.168 113.479 40.168ZM113.353 39.146C113.819 39.146 114.23 39.0387 114.585 38.824C114.939 38.6 115.219 38.292 115.425 37.9C115.63 37.508 115.733 37.0507 115.733 36.528C115.733 36.0053 115.63 35.548 115.425 35.156C115.219 34.764 114.939 34.4607 114.585 34.246C114.23 34.022 113.819 33.91 113.353 33.91C112.886 33.91 112.475 34.022 112.121 34.246C111.766 34.4607 111.486 34.764 111.281 35.156C111.075 35.548 110.973 36.0053 110.973 36.528C110.973 37.0507 111.075 37.508 111.281 37.9C111.486 38.292 111.766 38.6 112.121 38.824C112.475 39.0387 112.886 39.146 113.353 39.146ZM121.094 40.168C120.272 40.168 119.619 39.9207 119.134 39.426C118.648 38.922 118.406 38.152 118.406 37.116V33.056H119.582V36.99C119.582 38.4367 120.174 39.16 121.36 39.16C121.966 39.16 122.466 38.9453 122.858 38.516C123.259 38.0773 123.46 37.4567 123.46 36.654V33.056H124.636V40H123.572L123.488 38.754C123.273 39.1927 122.951 39.538 122.522 39.79C122.102 40.042 121.626 40.168 121.094 40.168ZM127.327 43.08L129.049 39.328H128.643L125.885 33.056H127.159L129.455 38.46L131.891 33.056H133.109L128.559 43.08H127.327ZM133.759 40.07C133.525 40.07 133.329 39.9953 133.171 39.846C133.021 39.6873 132.947 39.496 132.947 39.272C132.947 39.048 133.021 38.8613 133.171 38.712C133.329 38.5533 133.525 38.474 133.759 38.474C133.983 38.474 134.169 38.5533 134.319 38.712C134.477 38.8613 134.557 39.048 134.557 39.272C134.557 39.496 134.477 39.6873 134.319 39.846C134.169 39.9953 133.983 40.07 133.759 40.07ZM136.801 31.516C136.568 31.516 136.372 31.4413 136.213 31.292C136.064 31.1333 135.989 30.9373 135.989 30.704C135.989 30.48 136.064 30.2933 136.213 30.144C136.372 29.9947 136.568 29.92 136.801 29.92C137.025 29.92 137.216 29.9947 137.375 30.144C137.534 30.2933 137.613 30.48 137.613 30.704C137.613 30.9373 137.534 31.1333 137.375 31.292C137.216 31.4413 137.025 31.516 136.801 31.516ZM136.213 40V33.056H137.389V40H136.213ZM139.437 40V33.056H140.501L140.571 34.302C140.795 33.8633 141.117 33.518 141.537 33.266C141.957 33.014 142.433 32.888 142.965 32.888C143.786 32.888 144.439 33.14 144.925 33.644C145.419 34.1387 145.667 34.904 145.667 35.94V40H144.491V36.066C144.491 34.6193 143.893 33.896 142.699 33.896C142.101 33.896 141.602 34.1153 141.201 34.554C140.809 34.9833 140.613 35.5993 140.613 36.402V40H139.437ZM146.874 41.33L150.388 29.304H151.55L148.036 41.33H146.874ZM152.917 40V29.92H154.093V34.246C154.327 33.8167 154.658 33.4853 155.087 33.252C155.517 33.0093 155.983 32.888 156.487 32.888C157.29 32.888 157.934 33.14 158.419 33.644C158.905 34.1387 159.147 34.904 159.147 35.94V40H157.985V36.066C157.985 34.6193 157.402 33.896 156.235 33.896C155.629 33.896 155.12 34.1153 154.709 34.554C154.299 34.9833 154.093 35.5993 154.093 36.402V40H152.917ZM164.051 40.168C163.388 40.168 162.8 40.0187 162.287 39.72C161.774 39.412 161.368 38.9873 161.069 38.446C160.78 37.9047 160.635 37.2653 160.635 36.528C160.635 35.8 160.78 35.1653 161.069 34.624C161.358 34.0733 161.76 33.6487 162.273 33.35C162.796 33.042 163.398 32.888 164.079 32.888C164.751 32.888 165.33 33.042 165.815 33.35C166.31 33.6487 166.688 34.0453 166.949 34.54C167.21 35.0347 167.341 35.5667 167.341 36.136C167.341 36.2387 167.336 36.3413 167.327 36.444C167.327 36.5467 167.327 36.6633 167.327 36.794H161.797C161.825 37.326 161.946 37.7693 162.161 38.124C162.385 38.4693 162.66 38.7307 162.987 38.908C163.323 39.0853 163.678 39.174 164.051 39.174C164.536 39.174 164.942 39.062 165.269 38.838C165.596 38.614 165.834 38.3107 165.983 37.928H167.145C166.958 38.572 166.599 39.1087 166.067 39.538C165.544 39.958 164.872 40.168 164.051 40.168ZM164.051 33.882C163.491 33.882 162.992 34.0547 162.553 34.4C162.124 34.736 161.876 35.2307 161.811 35.884H166.179C166.151 35.2587 165.936 34.7687 165.535 34.414C165.134 34.0593 164.639 33.882 164.051 33.882ZM168.9 40V29.92H170.076V40H168.9ZM172.003 43.08V33.056H173.067L173.179 34.204C173.403 33.868 173.72 33.5647 174.131 33.294C174.551 33.0233 175.083 32.888 175.727 32.888C176.418 32.888 177.02 33.0467 177.533 33.364C178.046 33.6813 178.443 34.1153 178.723 34.666C179.012 35.2167 179.157 35.842 179.157 36.542C179.157 37.242 179.012 37.8673 178.723 38.418C178.443 38.9593 178.042 39.3887 177.519 39.706C177.006 40.014 176.404 40.168 175.713 40.168C175.144 40.168 174.635 40.0513 174.187 39.818C173.748 39.5847 173.412 39.258 173.179 38.838V43.08H172.003ZM175.587 39.146C176.054 39.146 176.464 39.0387 176.819 38.824C177.174 38.6 177.454 38.292 177.659 37.9C177.864 37.508 177.967 37.0507 177.967 36.528C177.967 36.0053 177.864 35.548 177.659 35.156C177.454 34.764 177.174 34.4607 176.819 34.246C176.464 34.022 176.054 33.91 175.587 33.91C175.12 33.91 174.71 34.022 174.355 34.246C174 34.4607 173.72 34.764 173.515 35.156C173.31 35.548 173.207 36.0053 173.207 36.528C173.207 37.0507 173.31 37.508 173.515 37.9C173.72 38.292 174 38.6 174.355 38.824C174.71 39.0387 175.12 39.146 175.587 39.146Z" fill="white"/>
<path fill-rule="evenodd" clip-rule="evenodd" d="M14 17.3514V27.4056C14 29.2565 15.3431 30.757 17 30.757H20V31.2017C20 33.6012 22.5298 34.8836 24.1463 33.3036L26.7515 30.757H31C32.6569 30.757 34 29.2565 34 27.4056V17.3514C34 15.5005 32.6569 14 31 14H17C15.3431 14 14 15.5005 14 17.3514ZM20 28.5227C20.7613 28.5227 21.4233 28.9979 21.7612 29.6973L21.7772 29.7311C21.8931 29.9811 21.9679 30.2588 21.9918 30.5529C21.9972 30.6201 22 30.6882 22 30.757V31.2017C22 31.6816 22.506 31.9381 22.8293 31.6221L25.4345 29.0755C25.799 28.7192 26.267 28.5227 26.7515 28.5227H31C31.5523 28.5227 32 28.0226 32 27.4056V17.3514C32 16.7344 31.5523 16.2343 31 16.2343H17C16.4477 16.2343 16 16.7344 16 17.3514V27.4056C16 28.0226 16.4477 28.5227 17 28.5227H20ZM24.0359 24.4622C24.5011 24.4622 24.8209 24.0542 24.8813 23.6219L24.8948 23.5325C25.5136 23.3786 26.0912 23.1259 26.5252 22.6979C26.9987 22.2308 27.2839 21.5718 27.2839 20.6667V20.64C27.2839 19.6939 26.9678 18.9384 26.4073 18.4237C25.8516 17.9134 25.0758 17.6578 24.1799 17.6578C23.0766 17.6578 22.2272 18.05 21.5558 18.6693C21.2926 18.913 21.1719 19.2431 21.1719 19.56C21.1719 20.1894 21.6454 20.7156 22.2119 20.7156C22.4694 20.7156 22.7025 20.5989 22.8719 20.4578C23.2719 20.1244 23.6744 19.9689 24.1439 19.9689C24.4654 19.9689 24.6927 20.0495 24.8349 20.1711C24.97 20.2867 25.0479 20.4554 25.0479 20.6933V20.72C25.0479 20.9721 24.9614 21.1572 24.7646 21.3065C24.5536 21.4665 24.2106 21.5876 23.6989 21.6595C23.4649 21.692 23.2599 21.8051 23.1239 21.998C22.9872 22.1919 22.9374 22.4432 22.9741 22.7133L23.094 23.6192C23.1541 24.0699 23.4769 24.4622 23.9399 24.4622H24.0359ZM22.6959 26.2533V26.28C22.6959 27.0461 23.2325 27.6356 23.9399 27.6356C24.6473 27.6356 25.1839 27.0461 25.1839 26.28V26.2533C25.1839 25.4872 24.6473 24.8978 23.9399 24.8978C23.2325 24.8978 22.6959 25.4872 22.6959 26.2533Z" fill="white"/>
</svg>
