<svg width="166" height="48" viewBox="0 0 166 48" fill="none" xmlns="http://www.w3.org/2000/svg">
<circle cx="24" cy="24" r="23.5" stroke="#C4C4C4"/>
<path d="M67.332 15V6.166H64.406V5.2H71.434V6.166H68.508V15H67.332ZM74.0709 15.168C73.4923 15.168 73.0116 15.07 72.6289 14.874C72.2463 14.678 71.9616 14.4167 71.7749 14.09C71.5883 13.7633 71.4949 13.4087 71.4949 13.026C71.4949 12.3167 71.7656 11.7707 72.3069 11.388C72.8483 11.0053 73.5856 10.814 74.5189 10.814H76.3949V10.73C76.3949 10.1233 76.2363 9.666 75.9189 9.358C75.6016 9.04067 75.1769 8.882 74.6449 8.882C74.1876 8.882 73.7909 8.99867 73.4549 9.232C73.1283 9.456 72.9229 9.78733 72.8389 10.226H71.6349C71.6816 9.722 71.8496 9.29733 72.1389 8.952C72.4376 8.60667 72.8063 8.34533 73.2449 8.168C73.6836 7.98133 74.1503 7.888 74.6449 7.888C75.6156 7.888 76.3436 8.14933 76.8289 8.672C77.3236 9.18533 77.5709 9.87133 77.5709 10.73V15H76.5209L76.4509 13.754C76.2549 14.146 75.9656 14.482 75.5829 14.762C75.2096 15.0327 74.7056 15.168 74.0709 15.168ZM74.2529 14.174C74.7009 14.174 75.0836 14.0573 75.4009 13.824C75.7276 13.5907 75.9749 13.2873 76.1429 12.914C76.3109 12.5407 76.3949 12.1487 76.3949 11.738V11.724H74.6169C73.9263 11.724 73.4363 11.8453 73.1469 12.088C72.8669 12.3213 72.7269 12.6153 72.7269 12.97C72.7269 13.334 72.8576 13.628 73.1189 13.852C73.3896 14.0667 73.7676 14.174 74.2529 14.174ZM79.3351 15V4.92H80.5111V15H79.3351ZM82.4387 15V4.92H83.6147V10.982L86.4567 8.056H87.8987L84.8187 11.192L88.2907 15H86.7927L83.6147 11.402V15H82.4387ZM95.9424 15C95.3078 15 94.8084 14.846 94.4444 14.538C94.0804 14.23 93.8984 13.6747 93.8984 12.872V9.05H92.6944V8.056H93.8984L94.0524 6.39H95.0744V8.056H97.1184V9.05H95.0744V12.872C95.0744 13.3107 95.1631 13.6093 95.3404 13.768C95.5178 13.9173 95.8304 13.992 96.2784 13.992H97.0064V15H95.9424ZM101.585 15.168C100.932 15.168 100.344 15.0187 99.8211 14.72C99.2984 14.4213 98.8831 14.0013 98.5751 13.46C98.2764 12.9093 98.1271 12.2653 98.1271 11.528C98.1271 10.7907 98.2811 10.1513 98.5891 9.61C98.8971 9.05933 99.3124 8.63467 99.8351 8.336C100.367 8.03733 100.96 7.888 101.613 7.888C102.266 7.888 102.854 8.03733 103.377 8.336C103.9 8.63467 104.31 9.05933 104.609 9.61C104.917 10.1513 105.071 10.7907 105.071 11.528C105.071 12.2653 104.917 12.9093 104.609 13.46C104.301 14.0013 103.881 14.4213 103.349 14.72C102.826 15.0187 102.238 15.168 101.585 15.168ZM101.585 14.16C101.986 14.16 102.36 14.062 102.705 13.866C103.05 13.67 103.33 13.376 103.545 12.984C103.76 12.592 103.867 12.1067 103.867 11.528C103.867 10.9493 103.76 10.464 103.545 10.072C103.34 9.68 103.064 9.386 102.719 9.19C102.374 8.994 102.005 8.896 101.613 8.896C101.212 8.896 100.838 8.994 100.493 9.19C100.148 9.386 99.8677 9.68 99.6531 10.072C99.4384 10.464 99.3311 10.9493 99.3311 11.528C99.3311 12.1067 99.4384 12.592 99.6531 12.984C99.8677 13.376 100.143 13.67 100.479 13.866C100.824 14.062 101.193 14.16 101.585 14.16ZM112.945 15.168C112.124 15.168 111.471 14.9207 110.985 14.426C110.5 13.922 110.257 13.152 110.257 12.116V8.056H111.433V11.99C111.433 13.4367 112.026 14.16 113.211 14.16C113.818 14.16 114.317 13.9453 114.709 13.516C115.111 13.0773 115.311 12.4567 115.311 11.654V8.056H116.487V15H115.423L115.339 13.754C115.125 14.1927 114.803 14.538 114.373 14.79C113.953 15.042 113.477 15.168 112.945 15.168ZM121.083 15.168C120.252 15.168 119.562 14.958 119.011 14.538C118.46 14.118 118.138 13.5487 118.045 12.83H119.249C119.324 13.194 119.515 13.5113 119.823 13.782C120.14 14.0433 120.565 14.174 121.097 14.174C121.592 14.174 121.956 14.0713 122.189 13.866C122.422 13.6513 122.539 13.3993 122.539 13.11C122.539 12.69 122.385 12.41 122.077 12.27C121.778 12.13 121.354 12.004 120.803 11.892C120.43 11.8173 120.056 11.71 119.683 11.57C119.31 11.43 118.997 11.234 118.745 10.982C118.493 10.7207 118.367 10.38 118.367 9.96C118.367 9.35333 118.591 8.85867 119.039 8.476C119.496 8.084 120.112 7.888 120.887 7.888C121.624 7.888 122.226 8.07467 122.693 8.448C123.169 8.812 123.444 9.33467 123.519 10.016H122.357C122.31 9.66133 122.156 9.386 121.895 9.19C121.643 8.98467 121.302 8.882 120.873 8.882C120.453 8.882 120.126 8.97067 119.893 9.148C119.669 9.32533 119.557 9.55867 119.557 9.848C119.557 10.128 119.702 10.3473 119.991 10.506C120.29 10.6647 120.691 10.8 121.195 10.912C121.624 11.0053 122.03 11.122 122.413 11.262C122.805 11.3927 123.122 11.5933 123.365 11.864C123.617 12.1253 123.743 12.508 123.743 13.012C123.752 13.6373 123.514 14.1553 123.029 14.566C122.553 14.9673 121.904 15.168 121.083 15.168Z" fill="white"/>
<path d="M66.002 41.7455V33.2615L64.42 33.6115V32.7995L66.394 31.9455H67.192V41.7455H66.002ZM72.4946 41.9135C71.8506 41.9135 71.2719 41.7968 70.7586 41.5635C70.2453 41.3208 69.8393 40.9895 69.5406 40.5695C69.2513 40.1401 69.1066 39.6455 69.1066 39.0855C69.1066 38.4881 69.2793 37.9515 69.6246 37.4755C69.9793 36.9995 70.4459 36.6821 71.0246 36.5235C70.4926 36.3461 70.0819 36.0615 69.7926 35.6695C69.5033 35.2775 69.3586 34.8481 69.3586 34.3815C69.3586 33.9055 69.4846 33.4715 69.7366 33.0795C69.9886 32.6781 70.3479 32.3608 70.8146 32.1275C71.2813 31.8941 71.8413 31.7775 72.4946 31.7775C73.1479 31.7775 73.7079 31.8941 74.1746 32.1275C74.6413 32.3608 75.0006 32.6781 75.2526 33.0795C75.5046 33.4715 75.6306 33.9055 75.6306 34.3815C75.6306 34.8388 75.4859 35.2681 75.1966 35.6695C74.9073 36.0615 74.4966 36.3461 73.9646 36.5235C74.5433 36.6821 75.0053 36.9995 75.3506 37.4755C75.7053 37.9515 75.8826 38.4881 75.8826 39.0855C75.8826 39.6455 75.7333 40.1401 75.4346 40.5695C75.1453 40.9895 74.7439 41.3208 74.2306 41.5635C73.7173 41.7968 73.1386 41.9135 72.4946 41.9135ZM72.4946 36.1035C73.0919 36.1035 73.5633 35.9541 73.9086 35.6555C74.2633 35.3475 74.4406 34.9461 74.4406 34.4515C74.4406 33.9008 74.2679 33.4855 73.9226 33.2055C73.5773 32.9255 73.1013 32.7855 72.4946 32.7855C71.8879 32.7855 71.4119 32.9255 71.0666 33.2055C70.7306 33.4855 70.5626 33.9008 70.5626 34.4515C70.5626 34.9461 70.7353 35.3475 71.0806 35.6555C71.4259 35.9541 71.8973 36.1035 72.4946 36.1035ZM72.4946 40.8775C73.2319 40.8775 73.7826 40.7095 74.1466 40.3735C74.5199 40.0281 74.7066 39.5755 74.7066 39.0155C74.7066 38.3808 74.5059 37.9001 74.1046 37.5735C73.7033 37.2468 73.1666 37.0835 72.4946 37.0835C71.8226 37.0835 71.2859 37.2468 70.8846 37.5735C70.4833 37.9001 70.2826 38.3808 70.2826 39.0155C70.2826 39.5755 70.4646 40.0281 70.8286 40.3735C71.2019 40.7095 71.7573 40.8775 72.4946 40.8775ZM81.6275 41.9135C80.7595 41.9135 80.0082 41.7035 79.3735 41.2835C78.7482 40.8542 78.2675 40.2615 77.9315 39.5055C77.5955 38.7401 77.4275 37.8535 77.4275 36.8455C77.4275 35.8375 77.5955 34.9555 77.9315 34.1995C78.2675 33.4341 78.7482 32.8415 79.3735 32.4215C80.0082 31.9921 80.7595 31.7775 81.6275 31.7775C82.4955 31.7775 83.2422 31.9921 83.8675 32.4215C84.4929 32.8415 84.9735 33.4341 85.3095 34.1995C85.6455 34.9555 85.8135 35.8375 85.8135 36.8455C85.8135 37.8535 85.6455 38.7401 85.3095 39.5055C84.9735 40.2615 84.4929 40.8542 83.8675 41.2835C83.2422 41.7035 82.4955 41.9135 81.6275 41.9135ZM81.6275 40.8775C82.1969 40.8775 82.7055 40.7188 83.1535 40.4015C83.6109 40.0748 83.9655 39.6128 84.2175 39.0155C84.4789 38.4088 84.6095 37.6855 84.6095 36.8455C84.6095 36.0055 84.4789 35.2868 84.2175 34.6895C83.9655 34.0921 83.6109 33.6348 83.1535 33.3175C82.7055 32.9908 82.1969 32.8275 81.6275 32.8275C81.0489 32.8275 80.5355 32.9908 80.0875 33.3175C79.6395 33.6348 79.2849 34.0921 79.0235 34.6895C78.7622 35.2868 78.6315 36.0055 78.6315 36.8455C78.6315 37.6855 78.7622 38.4088 79.0235 39.0155C79.2849 39.6128 79.6395 40.0748 80.0875 40.4015C80.5355 40.7188 81.0489 40.8775 81.6275 40.8775ZM91.3346 41.9135C90.4666 41.9135 89.7152 41.7035 89.0806 41.2835C88.4552 40.8542 87.9746 40.2615 87.6386 39.5055C87.3026 38.7401 87.1346 37.8535 87.1346 36.8455C87.1346 35.8375 87.3026 34.9555 87.6386 34.1995C87.9746 33.4341 88.4552 32.8415 89.0806 32.4215C89.7152 31.9921 90.4666 31.7775 91.3346 31.7775C92.2026 31.7775 92.9492 31.9921 93.5746 32.4215C94.1999 32.8415 94.6806 33.4341 95.0166 34.1995C95.3526 34.9555 95.5206 35.8375 95.5206 36.8455C95.5206 37.8535 95.3526 38.7401 95.0166 39.5055C94.6806 40.2615 94.1999 40.8542 93.5746 41.2835C92.9492 41.7035 92.2026 41.9135 91.3346 41.9135ZM91.3346 40.8775C91.9039 40.8775 92.4126 40.7188 92.8606 40.4015C93.3179 40.0748 93.6726 39.6128 93.9246 39.0155C94.1859 38.4088 94.3166 37.6855 94.3166 36.8455C94.3166 36.0055 94.1859 35.2868 93.9246 34.6895C93.6726 34.0921 93.3179 33.6348 92.8606 33.3175C92.4126 32.9908 91.9039 32.8275 91.3346 32.8275C90.7559 32.8275 90.2426 32.9908 89.7946 33.3175C89.3466 33.6348 88.9919 34.0921 88.7306 34.6895C88.4692 35.2868 88.3386 36.0055 88.3386 36.8455C88.3386 37.6855 88.4692 38.4088 88.7306 39.0155C88.9919 39.6128 89.3466 40.0748 89.7946 40.4015C90.2426 40.7188 90.7559 40.8775 91.3346 40.8775ZM97.0096 38.1755V37.1815H102.554V38.1755H97.0096ZM104.243 41.7455V40.9195C104.906 40.3968 105.531 39.8695 106.119 39.3375C106.717 38.7961 107.244 38.2641 107.701 37.7415C108.168 37.2188 108.532 36.7055 108.793 36.2015C109.064 35.6975 109.199 35.2121 109.199 34.7455C109.199 34.4002 109.139 34.0782 109.017 33.7795C108.905 33.4808 108.719 33.2428 108.457 33.0655C108.196 32.8788 107.841 32.7855 107.393 32.7855C106.964 32.7855 106.605 32.8835 106.315 33.0795C106.026 33.2661 105.807 33.5181 105.657 33.8355C105.517 34.1528 105.447 34.4935 105.447 34.8575H104.313C104.313 34.2135 104.449 33.6628 104.719 33.2055C104.99 32.7388 105.359 32.3841 105.825 32.1415C106.292 31.8988 106.819 31.7775 107.407 31.7775C108.275 31.7775 108.985 32.0248 109.535 32.5195C110.095 33.0048 110.375 33.7328 110.375 34.7035C110.375 35.2821 110.231 35.8561 109.941 36.4255C109.652 36.9855 109.283 37.5315 108.835 38.0635C108.387 38.5861 107.907 39.0761 107.393 39.5335C106.889 39.9908 106.418 40.4015 105.979 40.7655H110.711V41.7455H104.243ZM113.375 41.7455V33.2615L111.793 33.6115V32.7995L113.767 31.9455H114.565V41.7455H113.375ZM116.48 41.7455V40.9195C117.142 40.3968 117.768 39.8695 118.356 39.3375C118.953 38.7961 119.48 38.2641 119.938 37.7415C120.404 37.2188 120.768 36.7055 121.03 36.2015C121.3 35.6975 121.436 35.2121 121.436 34.7455C121.436 34.4002 121.375 34.0782 121.254 33.7795C121.142 33.4808 120.955 33.2428 120.694 33.0655C120.432 32.8788 120.078 32.7855 119.63 32.7855C119.2 32.7855 118.841 32.8835 118.552 33.0795C118.262 33.2661 118.043 33.5181 117.894 33.8355C117.754 34.1528 117.684 34.4935 117.684 34.8575H116.55C116.55 34.2135 116.685 33.6628 116.956 33.2055C117.226 32.7388 117.595 32.3841 118.062 32.1415C118.528 31.8988 119.056 31.7775 119.644 31.7775C120.512 31.7775 121.221 32.0248 121.772 32.5195C122.332 33.0048 122.612 33.7328 122.612 34.7035C122.612 35.2821 122.467 35.8561 122.178 36.4255C121.888 36.9855 121.52 37.5315 121.072 38.0635C120.624 38.5861 120.143 39.0761 119.63 39.5335C119.126 39.9908 118.654 40.4015 118.216 40.7655H122.948V41.7455H116.48ZM124.435 38.1755V37.1815H129.979V38.1755H124.435ZM131.815 41.7455L135.707 32.9535H130.331V31.9455H136.911V32.8275L133.061 41.7455H131.815ZM141.389 41.9135C140.717 41.9135 140.134 41.7922 139.639 41.5495C139.145 41.3068 138.748 40.9755 138.449 40.5555C138.16 40.1261 137.983 39.6408 137.917 39.0995H139.065C139.177 39.6408 139.439 40.0795 139.849 40.4155C140.26 40.7422 140.778 40.9055 141.403 40.9055C141.87 40.9055 142.271 40.7982 142.607 40.5835C142.943 40.3595 143.2 40.0608 143.377 39.6875C143.564 39.3142 143.657 38.8988 143.657 38.4415C143.657 37.7135 143.452 37.1255 143.041 36.6775C142.631 36.2295 142.099 36.0055 141.445 36.0055C140.904 36.0055 140.442 36.1268 140.059 36.3695C139.677 36.6121 139.397 36.9295 139.219 37.3215H138.099L138.939 31.9455H144.077V32.9675H139.849L139.275 35.9495C139.499 35.6788 139.807 35.4548 140.199 35.2775C140.601 35.1001 141.058 35.0115 141.571 35.0115C142.215 35.0115 142.775 35.1608 143.251 35.4595C143.737 35.7581 144.115 36.1641 144.385 36.6775C144.656 37.1908 144.791 37.7741 144.791 38.4275C144.791 39.0528 144.656 39.6315 144.385 40.1635C144.124 40.6955 143.737 41.1202 143.223 41.4375C142.719 41.7548 142.108 41.9135 141.389 41.9135ZM150.452 41.9135C149.584 41.9135 148.832 41.7035 148.198 41.2835C147.572 40.8542 147.092 40.2615 146.756 39.5055C146.42 38.7401 146.252 37.8535 146.252 36.8455C146.252 35.8375 146.42 34.9555 146.756 34.1995C147.092 33.4341 147.572 32.8415 148.198 32.4215C148.832 31.9921 149.584 31.7775 150.452 31.7775C151.32 31.7775 152.066 31.9921 152.692 32.4215C153.317 32.8415 153.798 33.4341 154.134 34.1995C154.47 34.9555 154.638 35.8375 154.638 36.8455C154.638 37.8535 154.47 38.7401 154.134 39.5055C153.798 40.2615 153.317 40.8542 152.692 41.2835C152.066 41.7035 151.32 41.9135 150.452 41.9135ZM150.452 40.8775C151.021 40.8775 151.53 40.7188 151.978 40.4015C152.435 40.0748 152.79 39.6128 153.042 39.0155C153.303 38.4088 153.434 37.6855 153.434 36.8455C153.434 36.0055 153.303 35.2868 153.042 34.6895C152.79 34.0921 152.435 33.6348 151.978 33.3175C151.53 32.9908 151.021 32.8275 150.452 32.8275C149.873 32.8275 149.36 32.9908 148.912 33.3175C148.464 33.6348 148.109 34.0921 147.848 34.6895C147.586 35.2868 147.456 36.0055 147.456 36.8455C147.456 37.6855 147.586 38.4088 147.848 39.0155C148.109 39.6128 148.464 40.0748 148.912 40.4015C149.36 40.7188 149.873 40.8775 150.452 40.8775ZM160.159 41.9135C159.291 41.9135 158.539 41.7035 157.905 41.2835C157.279 40.8542 156.799 40.2615 156.463 39.5055C156.127 38.7401 155.959 37.8535 155.959 36.8455C155.959 35.8375 156.127 34.9555 156.463 34.1995C156.799 33.4341 157.279 32.8415 157.905 32.4215C158.539 31.9921 159.291 31.7775 160.159 31.7775C161.027 31.7775 161.773 31.9921 162.399 32.4215C163.024 32.8415 163.505 33.4341 163.841 34.1995C164.177 34.9555 164.345 35.8375 164.345 36.8455C164.345 37.8535 164.177 38.7401 163.841 39.5055C163.505 40.2615 163.024 40.8542 162.399 41.2835C161.773 41.7035 161.027 41.9135 160.159 41.9135ZM160.159 40.8775C160.728 40.8775 161.237 40.7188 161.685 40.4015C162.142 40.0748 162.497 39.6128 162.749 39.0155C163.01 38.4088 163.141 37.6855 163.141 36.8455C163.141 36.0055 163.01 35.2868 162.749 34.6895C162.497 34.0921 162.142 33.6348 161.685 33.3175C161.237 32.9908 160.728 32.8275 160.159 32.8275C159.58 32.8275 159.067 32.9908 158.619 33.3175C158.171 33.6348 157.816 34.0921 157.555 34.6895C157.293 35.2868 157.163 36.0055 157.163 36.8455C157.163 37.6855 157.293 38.4088 157.555 39.0155C157.816 39.6128 158.171 40.0748 158.619 40.4015C159.067 40.7188 159.58 40.8775 160.159 40.8775Z" fill="white"/>
<path fill-rule="evenodd" clip-rule="evenodd" d="M18.3038 15.9979L18.3044 15.9988L18.3038 15.9979ZM18.3468 16.0662L20.3541 19.26C20.1115 19.49 19.847 19.7178 19.5622 19.9629C19.3175 20.1736 19.0579 20.3971 18.7845 20.6459C18.1071 21.2624 17.9762 22.2539 18.4147 23.0256C20.7333 27.1062 23.8957 28.963 25.3107 29.6296C26.1632 30.0312 27.0894 29.7143 27.605 29.058L28.994 27.2899C28.994 27.2899 28.9952 27.2889 28.9973 27.2885C28.9994 27.2882 29.0032 27.2885 29.0032 27.2885C29.0032 27.2885 29.0062 27.2892 29.0091 27.291C29.8185 27.7906 30.9477 28.4694 31.985 29.0442C31.7987 30.1688 31.3708 30.824 30.8989 31.2246C30.4035 31.6451 29.7628 31.8665 29.0482 31.9464C27.6213 32.106 26.1728 31.6731 25.8516 31.5677C25.4971 31.3864 23.5536 30.3634 21.4772 28.7056C19.3361 26.9961 17.1892 24.7178 16.3681 22.1049C15.768 20.1953 15.9943 18.8515 16.4659 17.9246C16.9219 17.0285 17.6597 16.4203 18.3468 16.0662ZM17.6207 14.176C18.5666 13.7273 19.5448 14.1951 20.0004 14.92L22.1003 18.2612C22.5248 18.9367 22.5539 19.9241 21.8637 20.6006C21.568 20.8905 21.1564 21.2468 20.7735 21.5784C20.5633 21.7604 20.3617 21.9349 20.1926 22.0869C22.1881 25.5617 24.856 27.1693 26.0694 27.7572L27.4201 26.0378C28.0579 25.226 29.1934 25.0363 30.0581 25.57C30.858 26.0636 31.9638 26.7281 32.966 27.2829C33.6343 27.653 34.1124 28.4244 33.977 29.2954C33.7337 30.8596 33.0982 31.999 32.1926 32.7678C31.3022 33.5237 30.2415 33.8444 29.2698 33.953C27.3585 34.1668 25.5305 33.588 25.1967 33.4763C25.1122 33.448 25.042 33.4181 24.9666 33.3798C24.6083 33.1977 22.4963 32.0965 20.2302 30.2872C17.9876 28.4967 15.4585 25.9066 14.4551 22.7137C13.7181 20.3682 13.9361 18.4665 14.6801 17.0044C15.411 15.5679 16.5948 14.6626 17.6207 14.176Z" fill="#E5E5E5"/>
<path fill-rule="evenodd" clip-rule="evenodd" d="M27.6409 15.4945C27.0886 15.4945 26.6409 15.9422 26.6409 16.4945L26.6409 19.6406C26.6409 20.1928 27.0886 20.6406 27.6409 20.6406L30.787 20.6406C31.3393 20.6406 31.787 20.1929 31.787 19.6406C31.787 19.0883 31.3393 18.6406 30.787 18.6406L29.9987 18.6406L32.2925 16.2681C32.6763 15.8711 32.6657 15.238 32.2686 14.8541C31.8716 14.4702 31.2385 14.4809 30.8546 14.8779L28.6409 17.1676L28.6409 16.4945C28.6409 15.9422 28.1932 15.4945 27.6409 15.4945Z" fill="#E5E5E5"/>
</svg>
