<svg width="258" height="48" viewBox="0 0 258 48" fill="none" xmlns="http://www.w3.org/2000/svg">
<circle cx="24" cy="24" r="23.5" stroke="#C4C4C4"/>
<path d="M67.052 18.014L64.364 8.2H65.624L67.738 16.614L70.146 8.2H71.448L73.786 16.614L75.928 8.2H77.188L74.444 18H73.1L70.762 9.908L68.368 18L67.052 18.014ZM78.2687 18V11.056H79.3327L79.4307 12.386C79.6454 11.9287 79.9721 11.5647 80.4107 11.294C80.8494 11.0233 81.3907 10.888 82.0347 10.888V12.12H81.7127C81.3021 12.12 80.9241 12.1947 80.5787 12.344C80.2334 12.484 79.9581 12.7267 79.7527 13.072C79.5474 13.4173 79.4447 13.8933 79.4447 14.5V18H78.2687ZM84.0687 9.516C83.8353 9.516 83.6393 9.44133 83.4807 9.292C83.3313 9.13333 83.2567 8.93733 83.2567 8.704C83.2567 8.48 83.3313 8.29333 83.4807 8.144C83.6393 7.99467 83.8353 7.92 84.0687 7.92C84.2927 7.92 84.484 7.99467 84.6427 8.144C84.8013 8.29333 84.8807 8.48 84.8807 8.704C84.8807 8.93733 84.8013 9.13333 84.6427 9.292C84.484 9.44133 84.2927 9.516 84.0687 9.516ZM83.4807 18V11.056H84.6567V18H83.4807ZM89.4483 18C88.8136 18 88.3143 17.846 87.9503 17.538C87.5863 17.23 87.4043 16.6747 87.4043 15.872V12.05H86.2003V11.056H87.4043L87.5583 9.39H88.5803V11.056H90.6243V12.05H88.5803V15.872C88.5803 16.3107 88.6689 16.6093 88.8463 16.768C89.0236 16.9173 89.3363 16.992 89.7843 16.992H90.5123V18H89.4483ZM95.0489 18.168C94.3863 18.168 93.7983 18.0187 93.2849 17.72C92.7716 17.412 92.3656 16.9873 92.0669 16.446C91.7776 15.9047 91.6329 15.2653 91.6329 14.528C91.6329 13.8 91.7776 13.1653 92.0669 12.624C92.3563 12.0733 92.7576 11.6487 93.2709 11.35C93.7936 11.042 94.3956 10.888 95.0769 10.888C95.7489 10.888 96.3276 11.042 96.8129 11.35C97.3076 11.6487 97.6856 12.0453 97.9469 12.54C98.2083 13.0347 98.3389 13.5667 98.3389 14.136C98.3389 14.2387 98.3343 14.3413 98.3249 14.444C98.3249 14.5467 98.3249 14.6633 98.3249 14.794H92.7949C92.8229 15.326 92.9443 15.7693 93.1589 16.124C93.3829 16.4693 93.6583 16.7307 93.9849 16.908C94.3209 17.0853 94.6756 17.174 95.0489 17.174C95.5343 17.174 95.9403 17.062 96.2669 16.838C96.5936 16.614 96.8316 16.3107 96.9809 15.928H98.1429C97.9563 16.572 97.5969 17.1087 97.0649 17.538C96.5423 17.958 95.8703 18.168 95.0489 18.168ZM95.0489 11.882C94.4889 11.882 93.9896 12.0547 93.5509 12.4C93.1216 12.736 92.8743 13.2307 92.8089 13.884H97.1769C97.1489 13.2587 96.9343 12.7687 96.5329 12.414C96.1316 12.0593 95.6369 11.882 95.0489 11.882ZM106.347 18C105.712 18 105.213 17.846 104.849 17.538C104.485 17.23 104.303 16.6747 104.303 15.872V12.05H103.099V11.056H104.303L104.457 9.39H105.479V11.056H107.523V12.05H105.479V15.872C105.479 16.3107 105.567 16.6093 105.745 16.768C105.922 16.9173 106.235 16.992 106.683 16.992H107.411V18H106.347ZM111.989 18.168C111.336 18.168 110.748 18.0187 110.225 17.72C109.703 17.4213 109.287 17.0013 108.979 16.46C108.681 15.9093 108.531 15.2653 108.531 14.528C108.531 13.7907 108.685 13.1513 108.993 12.61C109.301 12.0593 109.717 11.6347 110.239 11.336C110.771 11.0373 111.364 10.888 112.017 10.888C112.671 10.888 113.259 11.0373 113.781 11.336C114.304 11.6347 114.715 12.0593 115.013 12.61C115.321 13.1513 115.475 13.7907 115.475 14.528C115.475 15.2653 115.321 15.9093 115.013 16.46C114.705 17.0013 114.285 17.4213 113.753 17.72C113.231 18.0187 112.643 18.168 111.989 18.168ZM111.989 17.16C112.391 17.16 112.764 17.062 113.109 16.866C113.455 16.67 113.735 16.376 113.949 15.984C114.164 15.592 114.271 15.1067 114.271 14.528C114.271 13.9493 114.164 13.464 113.949 13.072C113.744 12.68 113.469 12.386 113.123 12.19C112.778 11.994 112.409 11.896 112.017 11.896C111.616 11.896 111.243 11.994 110.897 12.19C110.552 12.386 110.272 12.68 110.057 13.072C109.843 13.464 109.735 13.9493 109.735 14.528C109.735 15.1067 109.843 15.592 110.057 15.984C110.272 16.376 110.547 16.67 110.883 16.866C111.229 17.062 111.597 17.16 111.989 17.16ZM123.35 18.168C122.528 18.168 121.875 17.9207 121.39 17.426C120.904 16.922 120.662 16.152 120.662 15.116V11.056H121.838V14.99C121.838 16.4367 122.43 17.16 123.616 17.16C124.222 17.16 124.722 16.9453 125.114 16.516C125.515 16.0773 125.716 15.4567 125.716 14.654V11.056H126.892V18H125.828L125.744 16.754C125.529 17.1927 125.207 17.538 124.778 17.79C124.358 18.042 123.882 18.168 123.35 18.168ZM131.487 18.168C130.657 18.168 129.966 17.958 129.415 17.538C128.865 17.118 128.543 16.5487 128.449 15.83H129.653C129.728 16.194 129.919 16.5113 130.227 16.782C130.545 17.0433 130.969 17.174 131.501 17.174C131.996 17.174 132.36 17.0713 132.593 16.866C132.827 16.6513 132.943 16.3993 132.943 16.11C132.943 15.69 132.789 15.41 132.481 15.27C132.183 15.13 131.758 15.004 131.207 14.892C130.834 14.8173 130.461 14.71 130.087 14.57C129.714 14.43 129.401 14.234 129.149 13.982C128.897 13.7207 128.771 13.38 128.771 12.96C128.771 12.3533 128.995 11.8587 129.443 11.476C129.901 11.084 130.517 10.888 131.291 10.888C132.029 10.888 132.631 11.0747 133.097 11.448C133.573 11.812 133.849 12.3347 133.923 13.016H132.761C132.715 12.6613 132.561 12.386 132.299 12.19C132.047 11.9847 131.707 11.882 131.277 11.882C130.857 11.882 130.531 11.9707 130.297 12.148C130.073 12.3253 129.961 12.5587 129.961 12.848C129.961 13.128 130.106 13.3473 130.395 13.506C130.694 13.6647 131.095 13.8 131.599 13.912C132.029 14.0053 132.435 14.122 132.817 14.262C133.209 14.3927 133.527 14.5933 133.769 14.864C134.021 15.1253 134.147 15.508 134.147 16.012C134.157 16.6373 133.919 17.1553 133.433 17.566C132.957 17.9673 132.309 18.168 131.487 18.168Z" fill="white"/>
<path d="M64.966 40V29.92H66.142V34.246C66.3753 33.8167 66.7067 33.4853 67.136 33.252C67.5653 33.0093 68.032 32.888 68.536 32.888C69.3387 32.888 69.9827 33.14 70.468 33.644C70.9533 34.1387 71.196 34.904 71.196 35.94V40H70.034V36.066C70.034 34.6193 69.4507 33.896 68.284 33.896C67.6773 33.896 67.1687 34.1153 66.758 34.554C66.3473 34.9833 66.142 35.5993 66.142 36.402V40H64.966ZM76.0997 40.168C75.4371 40.168 74.8491 40.0187 74.3357 39.72C73.8224 39.412 73.4164 38.9873 73.1177 38.446C72.8284 37.9047 72.6837 37.2653 72.6837 36.528C72.6837 35.8 72.8284 35.1653 73.1177 34.624C73.4071 34.0733 73.8084 33.6487 74.3217 33.35C74.8444 33.042 75.4464 32.888 76.1277 32.888C76.7997 32.888 77.3784 33.042 77.8637 33.35C78.3584 33.6487 78.7364 34.0453 78.9977 34.54C79.2591 35.0347 79.3897 35.5667 79.3897 36.136C79.3897 36.2387 79.3851 36.3413 79.3757 36.444C79.3757 36.5467 79.3757 36.6633 79.3757 36.794H73.8457C73.8737 37.326 73.9951 37.7693 74.2097 38.124C74.4337 38.4693 74.7091 38.7307 75.0357 38.908C75.3717 39.0853 75.7264 39.174 76.0997 39.174C76.5851 39.174 76.9911 39.062 77.3177 38.838C77.6444 38.614 77.8824 38.3107 78.0317 37.928H79.1937C79.0071 38.572 78.6477 39.1087 78.1157 39.538C77.5931 39.958 76.9211 40.168 76.0997 40.168ZM76.0997 33.882C75.5397 33.882 75.0404 34.0547 74.6017 34.4C74.1724 34.736 73.9251 35.2307 73.8597 35.884H78.2277C78.1997 35.2587 77.9851 34.7687 77.5837 34.414C77.1824 34.0593 76.6877 33.882 76.0997 33.882ZM80.9484 40V29.92H82.1244V40H80.9484ZM84.0519 43.08V33.056H85.1159L85.2279 34.204C85.4519 33.868 85.7693 33.5647 86.1799 33.294C86.5999 33.0233 87.1319 32.888 87.7759 32.888C88.4666 32.888 89.0686 33.0467 89.5819 33.364C90.0953 33.6813 90.4919 34.1153 90.7719 34.666C91.0613 35.2167 91.2059 35.842 91.2059 36.542C91.2059 37.242 91.0613 37.8673 90.7719 38.418C90.4919 38.9593 90.0906 39.3887 89.5679 39.706C89.0546 40.014 88.4526 40.168 87.7619 40.168C87.1926 40.168 86.6839 40.0513 86.2359 39.818C85.7973 39.5847 85.4613 39.258 85.2279 38.838V43.08H84.0519ZM87.6359 39.146C88.1026 39.146 88.5133 39.0387 88.8679 38.824C89.2226 38.6 89.5026 38.292 89.7079 37.9C89.9133 37.508 90.0159 37.0507 90.0159 36.528C90.0159 36.0053 89.9133 35.548 89.7079 35.156C89.5026 34.764 89.2226 34.4607 88.8679 34.246C88.5133 34.022 88.1026 33.91 87.6359 33.91C87.1693 33.91 86.7586 34.022 86.4039 34.246C86.0493 34.4607 85.7693 34.764 85.5639 35.156C85.3586 35.548 85.2559 36.0053 85.2559 36.528C85.2559 37.0507 85.3586 37.508 85.5639 37.9C85.7693 38.292 86.0493 38.6 86.4039 38.824C86.7586 39.0387 87.1693 39.146 87.6359 39.146ZM97.925 42.786C96.9263 42.786 96.049 42.5947 95.293 42.212C94.5463 41.8293 93.963 41.288 93.543 40.588C93.1323 39.888 92.927 39.0573 92.927 38.096C92.927 37.1067 93.0996 36.1827 93.445 35.324C93.7903 34.4653 94.2756 33.714 94.901 33.07C95.5263 32.426 96.2636 31.9267 97.113 31.572C97.9623 31.2173 98.8956 31.04 99.913 31.04C100.949 31.04 101.85 31.2407 102.615 31.642C103.38 32.034 103.968 32.5847 104.379 33.294C104.799 33.994 105.009 34.8107 105.009 35.744C105.009 36.276 104.944 36.8033 104.813 37.326C104.682 37.8393 104.486 38.306 104.225 38.726C103.973 39.1367 103.66 39.468 103.287 39.72C102.923 39.9627 102.503 40.084 102.027 40.084C101.551 40.084 101.187 39.9627 100.935 39.72C100.692 39.4773 100.557 39.1507 100.529 38.74C100.24 39.16 99.871 39.4913 99.423 39.734C98.9843 39.9673 98.5176 40.084 98.023 40.084C97.3136 40.084 96.7583 39.8693 96.357 39.44C95.965 39.0107 95.769 38.432 95.769 37.704C95.769 37.1907 95.8483 36.7007 96.007 36.234C96.175 35.758 96.4083 35.338 96.707 34.974C97.0056 34.6007 97.3603 34.3067 97.771 34.092C98.1816 33.8773 98.639 33.77 99.143 33.77C100.086 33.77 100.697 34.1573 100.977 34.932L101.159 33.924H102.153L101.453 37.928C101.388 38.3293 101.406 38.656 101.509 38.908C101.621 39.1507 101.85 39.272 102.195 39.272C102.494 39.272 102.76 39.1693 102.993 38.964C103.226 38.7493 103.422 38.4693 103.581 38.124C103.74 37.7693 103.856 37.3913 103.931 36.99C104.015 36.5793 104.057 36.1827 104.057 35.8C104.057 34.5773 103.674 33.616 102.909 32.916C102.153 32.216 101.108 31.866 99.773 31.866C98.9236 31.866 98.1396 32.0247 97.421 32.342C96.7116 32.6593 96.091 33.098 95.559 33.658C95.027 34.218 94.6116 34.8667 94.313 35.604C94.0236 36.3413 93.879 37.1393 93.879 37.998C93.879 38.838 94.0516 39.552 94.397 40.14C94.7423 40.728 95.2323 41.176 95.867 41.484C96.5016 41.792 97.2576 41.946 98.135 41.946C98.5363 41.946 98.9376 41.904 99.339 41.82C99.7403 41.7453 100.114 41.6287 100.459 41.47L100.655 42.268C99.815 42.6133 98.905 42.786 97.925 42.786ZM98.373 39.188C98.7743 39.188 99.143 39.0807 99.479 38.866C99.815 38.6513 100.09 38.3573 100.305 37.984C100.52 37.6013 100.65 37.1627 100.697 36.668C100.762 36.1173 100.664 35.646 100.403 35.254C100.151 34.862 99.7403 34.666 99.171 34.666C98.695 34.666 98.2796 34.806 97.925 35.086C97.5796 35.3567 97.3136 35.7113 97.127 36.15C96.9403 36.5887 96.847 37.046 96.847 37.522C96.847 38.026 96.973 38.432 97.225 38.74C97.4863 39.0387 97.869 39.188 98.373 39.188ZM109.765 40C109.13 40 108.631 39.846 108.267 39.538C107.903 39.23 107.721 38.6747 107.721 37.872V34.05H106.517V33.056H107.721L107.875 31.39H108.897V33.056H110.941V34.05H108.897V37.872C108.897 38.3107 108.985 38.6093 109.163 38.768C109.34 38.9173 109.653 38.992 110.101 38.992H110.829V40H109.765ZM112.435 40V33.056H113.499L113.597 34.386C113.811 33.9287 114.138 33.5647 114.577 33.294C115.015 33.0233 115.557 32.888 116.201 32.888V34.12H115.879C115.468 34.12 115.09 34.1947 114.745 34.344C114.399 34.484 114.124 34.7267 113.919 35.072C113.713 35.4173 113.611 35.8933 113.611 36.5V40H112.435ZM118.277 43.08L119.999 39.328H119.593L116.835 33.056H118.109L120.405 38.46L122.841 33.056H124.059L119.509 43.08H118.277ZM128.044 40C127.409 40 126.91 39.846 126.546 39.538C126.182 39.23 126 38.6747 126 37.872V34.05H124.796V33.056H126L126.154 31.39H127.176V33.056H129.22V34.05H127.176V37.872C127.176 38.3107 127.265 38.6093 127.442 38.768C127.619 38.9173 127.932 38.992 128.38 38.992H129.108V40H128.044ZM130.714 40V29.92H131.89V34.246C132.123 33.8167 132.455 33.4853 132.884 33.252C133.313 33.0093 133.78 32.888 134.284 32.888C135.087 32.888 135.731 33.14 136.216 33.644C136.701 34.1387 136.944 34.904 136.944 35.94V40H135.782V36.066C135.782 34.6193 135.199 33.896 134.032 33.896C133.425 33.896 132.917 34.1153 132.506 34.554C132.095 34.9833 131.89 35.5993 131.89 36.402V40H130.714ZM141.848 40.168C141.185 40.168 140.597 40.0187 140.084 39.72C139.57 39.412 139.164 38.9873 138.866 38.446C138.576 37.9047 138.432 37.2653 138.432 36.528C138.432 35.8 138.576 35.1653 138.866 34.624C139.155 34.0733 139.556 33.6487 140.07 33.35C140.592 33.042 141.194 32.888 141.876 32.888C142.548 32.888 143.126 33.042 143.612 33.35C144.106 33.6487 144.484 34.0453 144.746 34.54C145.007 35.0347 145.138 35.5667 145.138 36.136C145.138 36.2387 145.133 36.3413 145.124 36.444C145.124 36.5467 145.124 36.6633 145.124 36.794H139.594C139.622 37.326 139.743 37.7693 139.958 38.124C140.182 38.4693 140.457 38.7307 140.784 38.908C141.12 39.0853 141.474 39.174 141.848 39.174C142.333 39.174 142.739 39.062 143.066 38.838C143.392 38.614 143.63 38.3107 143.78 37.928H144.942C144.755 38.572 144.396 39.1087 143.864 39.538C143.341 39.958 142.669 40.168 141.848 40.168ZM141.848 33.882C141.288 33.882 140.788 34.0547 140.35 34.4C139.92 34.736 139.673 35.2307 139.608 35.884H143.976C143.948 35.2587 143.733 34.7687 143.332 34.414C142.93 34.0593 142.436 33.882 141.848 33.882ZM146.696 40V33.056H147.76L147.83 34.302C148.054 33.8633 148.376 33.518 148.796 33.266C149.216 33.014 149.692 32.888 150.224 32.888C151.046 32.888 151.699 33.14 152.184 33.644C152.679 34.1387 152.926 34.904 152.926 35.94V40H151.75V36.066C151.75 34.6193 151.153 33.896 149.958 33.896C149.361 33.896 148.862 34.1153 148.46 34.554C148.068 34.9833 147.872 35.5993 147.872 36.402V40H146.696ZM158.418 40.168C157.849 40.168 157.34 40.0513 156.892 39.818C156.454 39.5847 156.118 39.258 155.884 38.838L155.772 40H154.708V29.92H155.884V34.204C156.108 33.868 156.426 33.5647 156.836 33.294C157.256 33.0233 157.788 32.888 158.432 32.888C159.123 32.888 159.725 33.0467 160.238 33.364C160.752 33.6813 161.148 34.1153 161.428 34.666C161.718 35.2167 161.862 35.842 161.862 36.542C161.862 37.242 161.718 37.8673 161.428 38.418C161.148 38.9593 160.747 39.3887 160.224 39.706C159.711 40.014 159.109 40.168 158.418 40.168ZM158.292 39.146C158.759 39.146 159.17 39.0387 159.524 38.824C159.879 38.6 160.159 38.292 160.364 37.9C160.57 37.508 160.672 37.0507 160.672 36.528C160.672 36.0053 160.57 35.548 160.364 35.156C160.159 34.764 159.879 34.4607 159.524 34.246C159.17 34.022 158.759 33.91 158.292 33.91C157.826 33.91 157.415 34.022 157.06 34.246C156.706 34.4607 156.426 34.764 156.22 35.156C156.015 35.548 155.912 36.0053 155.912 36.528C155.912 37.0507 156.015 37.508 156.22 37.9C156.426 38.292 156.706 38.6 157.06 38.824C157.415 39.0387 157.826 39.146 158.292 39.146ZM166.033 40.168C165.212 40.168 164.559 39.9207 164.073 39.426C163.588 38.922 163.345 38.152 163.345 37.116V33.056H164.521V36.99C164.521 38.4367 165.114 39.16 166.299 39.16C166.906 39.16 167.405 38.9453 167.797 38.516C168.199 38.0773 168.399 37.4567 168.399 36.654V33.056H169.575V40H168.511L168.427 38.754C168.213 39.1927 167.891 39.538 167.461 39.79C167.041 40.042 166.565 40.168 166.033 40.168ZM172.267 43.08L173.989 39.328H173.583L170.825 33.056H172.099L174.395 38.46L176.831 33.056H178.049L173.499 43.08H172.267ZM183.552 42.786C182.553 42.786 181.676 42.5947 180.92 42.212C180.173 41.8293 179.59 41.288 179.17 40.588C178.759 39.888 178.554 39.0573 178.554 38.096C178.554 37.1067 178.727 36.1827 179.072 35.324C179.417 34.4653 179.903 33.714 180.528 33.07C181.153 32.426 181.891 31.9267 182.74 31.572C183.589 31.2173 184.523 31.04 185.54 31.04C186.576 31.04 187.477 31.2407 188.242 31.642C189.007 32.034 189.595 32.5847 190.006 33.294C190.426 33.994 190.636 34.8107 190.636 35.744C190.636 36.276 190.571 36.8033 190.44 37.326C190.309 37.8393 190.113 38.306 189.852 38.726C189.6 39.1367 189.287 39.468 188.914 39.72C188.55 39.9627 188.13 40.084 187.654 40.084C187.178 40.084 186.814 39.9627 186.562 39.72C186.319 39.4773 186.184 39.1507 186.156 38.74C185.867 39.16 185.498 39.4913 185.05 39.734C184.611 39.9673 184.145 40.084 183.65 40.084C182.941 40.084 182.385 39.8693 181.984 39.44C181.592 39.0107 181.396 38.432 181.396 37.704C181.396 37.1907 181.475 36.7007 181.634 36.234C181.802 35.758 182.035 35.338 182.334 34.974C182.633 34.6007 182.987 34.3067 183.398 34.092C183.809 33.8773 184.266 33.77 184.77 33.77C185.713 33.77 186.324 34.1573 186.604 34.932L186.786 33.924H187.78L187.08 37.928C187.015 38.3293 187.033 38.656 187.136 38.908C187.248 39.1507 187.477 39.272 187.822 39.272C188.121 39.272 188.387 39.1693 188.62 38.964C188.853 38.7493 189.049 38.4693 189.208 38.124C189.367 37.7693 189.483 37.3913 189.558 36.99C189.642 36.5793 189.684 36.1827 189.684 35.8C189.684 34.5773 189.301 33.616 188.536 32.916C187.78 32.216 186.735 31.866 185.4 31.866C184.551 31.866 183.767 32.0247 183.048 32.342C182.339 32.6593 181.718 33.098 181.186 33.658C180.654 34.218 180.239 34.8667 179.94 35.604C179.651 36.3413 179.506 37.1393 179.506 37.998C179.506 38.838 179.679 39.552 180.024 40.14C180.369 40.728 180.859 41.176 181.494 41.484C182.129 41.792 182.885 41.946 183.762 41.946C184.163 41.946 184.565 41.904 184.966 41.82C185.367 41.7453 185.741 41.6287 186.086 41.47L186.282 42.268C185.442 42.6133 184.532 42.786 183.552 42.786ZM184 39.188C184.401 39.188 184.77 39.0807 185.106 38.866C185.442 38.6513 185.717 38.3573 185.932 37.984C186.147 37.6013 186.277 37.1627 186.324 36.668C186.389 36.1173 186.291 35.646 186.03 35.254C185.778 34.862 185.367 34.666 184.798 34.666C184.322 34.666 183.907 34.806 183.552 35.086C183.207 35.3567 182.941 35.7113 182.754 36.15C182.567 36.5887 182.474 37.046 182.474 37.522C182.474 38.026 182.6 38.432 182.852 38.74C183.113 39.0387 183.496 39.188 184 39.188ZM195.392 37.816C195 37.816 194.64 37.7647 194.314 37.662L193.614 38.32C193.716 38.3947 193.842 38.46 193.992 38.516C194.15 38.5627 194.374 38.6093 194.664 38.656C194.953 38.6933 195.359 38.7353 195.882 38.782C196.815 38.8473 197.482 39.062 197.884 39.426C198.285 39.79 198.486 40.266 198.486 40.854C198.486 41.2553 198.374 41.638 198.15 42.002C197.935 42.366 197.599 42.6647 197.142 42.898C196.694 43.1313 196.115 43.248 195.406 43.248C194.78 43.248 194.225 43.164 193.74 42.996C193.254 42.8373 192.876 42.59 192.606 42.254C192.335 41.9273 192.2 41.512 192.2 41.008C192.2 40.7467 192.27 40.462 192.41 40.154C192.55 39.8553 192.811 39.5707 193.194 39.3C192.988 39.216 192.811 39.1273 192.662 39.034C192.522 38.9313 192.391 38.8193 192.27 38.698V38.376L193.46 37.2C192.909 36.7333 192.634 36.1173 192.634 35.352C192.634 34.8947 192.741 34.4793 192.956 34.106C193.17 33.7327 193.483 33.4387 193.894 33.224C194.304 33 194.804 32.888 195.392 32.888C195.793 32.888 196.157 32.944 196.484 33.056H199.046V33.938L197.744 33.994C198.014 34.386 198.15 34.8387 198.15 35.352C198.15 35.8093 198.038 36.2247 197.814 36.598C197.599 36.9713 197.286 37.27 196.876 37.494C196.474 37.7087 195.98 37.816 195.392 37.816ZM195.392 36.85C195.886 36.85 196.278 36.724 196.568 36.472C196.866 36.2107 197.016 35.8373 197.016 35.352C197.016 34.876 196.866 34.512 196.568 34.26C196.278 33.9987 195.886 33.868 195.392 33.868C194.888 33.868 194.486 33.9987 194.188 34.26C193.898 34.512 193.754 34.876 193.754 35.352C193.754 35.8373 193.898 36.2107 194.188 36.472C194.486 36.724 194.888 36.85 195.392 36.85ZM193.348 40.896C193.348 41.3627 193.544 41.708 193.936 41.932C194.328 42.1653 194.818 42.282 195.406 42.282C195.984 42.282 196.446 42.156 196.792 41.904C197.146 41.652 197.324 41.316 197.324 40.896C197.324 40.5973 197.202 40.336 196.96 40.112C196.717 39.8973 196.269 39.7713 195.616 39.734C195.102 39.6967 194.659 39.65 194.286 39.594C193.903 39.7993 193.651 40.0187 193.53 40.252C193.408 40.4947 193.348 40.7093 193.348 40.896ZM200.372 40V33.056H201.436L201.52 34.064C201.744 33.6907 202.043 33.4013 202.416 33.196C202.79 32.9907 203.21 32.888 203.676 32.888C204.227 32.888 204.698 33 205.09 33.224C205.492 33.448 205.8 33.7887 206.014 34.246C206.257 33.826 206.588 33.4947 207.008 33.252C207.438 33.0093 207.9 32.888 208.394 32.888C209.225 32.888 209.888 33.14 210.382 33.644C210.877 34.1387 211.124 34.904 211.124 35.94V40H209.962V36.066C209.962 35.3473 209.818 34.806 209.528 34.442C209.239 34.078 208.824 33.896 208.282 33.896C207.722 33.896 207.256 34.1153 206.882 34.554C206.518 34.9833 206.336 35.5993 206.336 36.402V40H205.16V36.066C205.16 35.3473 205.016 34.806 204.726 34.442C204.437 34.078 204.022 33.896 203.48 33.896C202.93 33.896 202.468 34.1153 202.094 34.554C201.73 34.9833 201.548 35.5993 201.548 36.402V40H200.372ZM215.206 40.168C214.627 40.168 214.146 40.07 213.764 39.874C213.381 39.678 213.096 39.4167 212.91 39.09C212.723 38.7633 212.63 38.4087 212.63 38.026C212.63 37.3167 212.9 36.7707 213.442 36.388C213.983 36.0053 214.72 35.814 215.654 35.814H217.53V35.73C217.53 35.1233 217.371 34.666 217.054 34.358C216.736 34.0407 216.312 33.882 215.78 33.882C215.322 33.882 214.926 33.9987 214.59 34.232C214.263 34.456 214.058 34.7873 213.974 35.226H212.77C212.816 34.722 212.984 34.2973 213.274 33.952C213.572 33.6067 213.941 33.3453 214.38 33.168C214.818 32.9813 215.285 32.888 215.78 32.888C216.75 32.888 217.478 33.1493 217.964 33.672C218.458 34.1853 218.706 34.8713 218.706 35.73V40H217.656L217.586 38.754C217.39 39.146 217.1 39.482 216.718 39.762C216.344 40.0327 215.84 40.168 215.206 40.168ZM215.388 39.174C215.836 39.174 216.218 39.0573 216.536 38.824C216.862 38.5907 217.11 38.2873 217.278 37.914C217.446 37.5407 217.53 37.1487 217.53 36.738V36.724H215.752C215.061 36.724 214.571 36.8453 214.282 37.088C214.002 37.3213 213.862 37.6153 213.862 37.97C213.862 38.334 213.992 38.628 214.254 38.852C214.524 39.0667 214.902 39.174 215.388 39.174ZM221.184 31.516C220.951 31.516 220.755 31.4413 220.596 31.292C220.447 31.1333 220.372 30.9373 220.372 30.704C220.372 30.48 220.447 30.2933 220.596 30.144C220.755 29.9947 220.951 29.92 221.184 29.92C221.408 29.92 221.599 29.9947 221.758 30.144C221.917 30.2933 221.996 30.48 221.996 30.704C221.996 30.9373 221.917 31.1333 221.758 31.292C221.599 31.4413 221.408 31.516 221.184 31.516ZM220.596 40V33.056H221.772V40H220.596ZM223.82 40V29.92H224.996V40H223.82ZM227.329 40.07C227.096 40.07 226.9 39.9953 226.741 39.846C226.592 39.6873 226.517 39.496 226.517 39.272C226.517 39.048 226.592 38.8613 226.741 38.712C226.9 38.5533 227.096 38.474 227.329 38.474C227.553 38.474 227.74 38.5533 227.889 38.712C228.048 38.8613 228.127 39.048 228.127 39.272C228.127 39.496 228.048 39.6873 227.889 39.846C227.74 39.9953 227.553 40.07 227.329 40.07ZM232.849 40.168C232.187 40.168 231.589 40.0187 231.057 39.72C230.535 39.412 230.119 38.9873 229.811 38.446C229.513 37.8953 229.363 37.256 229.363 36.528C229.363 35.8 229.513 35.1653 229.811 34.624C230.119 34.0733 230.535 33.6487 231.057 33.35C231.589 33.042 232.187 32.888 232.849 32.888C233.671 32.888 234.361 33.1027 234.921 33.532C235.491 33.9613 235.85 34.5353 235.999 35.254H234.795C234.702 34.8247 234.473 34.4933 234.109 34.26C233.745 34.0173 233.321 33.896 232.835 33.896C232.443 33.896 232.075 33.994 231.729 34.19C231.384 34.386 231.104 34.68 230.889 35.072C230.675 35.464 230.567 35.9493 230.567 36.528C230.567 37.1067 230.675 37.592 230.889 37.984C231.104 38.376 231.384 38.6747 231.729 38.88C232.075 39.076 232.443 39.174 232.835 39.174C233.321 39.174 233.745 39.0573 234.109 38.824C234.473 38.5813 234.702 38.2407 234.795 37.802H235.999C235.859 38.502 235.505 39.0713 234.935 39.51C234.366 39.9487 233.671 40.168 232.849 40.168ZM240.806 40.168C240.152 40.168 239.564 40.0187 239.042 39.72C238.519 39.4213 238.104 39.0013 237.796 38.46C237.497 37.9093 237.348 37.2653 237.348 36.528C237.348 35.7907 237.502 35.1513 237.81 34.61C238.118 34.0593 238.533 33.6347 239.056 33.336C239.588 33.0373 240.18 32.888 240.834 32.888C241.487 32.888 242.075 33.0373 242.598 33.336C243.12 33.6347 243.531 34.0593 243.83 34.61C244.138 35.1513 244.292 35.7907 244.292 36.528C244.292 37.2653 244.138 37.9093 243.83 38.46C243.522 39.0013 243.102 39.4213 242.57 39.72C242.047 40.0187 241.459 40.168 240.806 40.168ZM240.806 39.16C241.207 39.16 241.58 39.062 241.926 38.866C242.271 38.67 242.551 38.376 242.766 37.984C242.98 37.592 243.088 37.1067 243.088 36.528C243.088 35.9493 242.98 35.464 242.766 35.072C242.56 34.68 242.285 34.386 241.94 34.19C241.594 33.994 241.226 33.896 240.834 33.896C240.432 33.896 240.059 33.994 239.714 34.19C239.368 34.386 239.088 34.68 238.874 35.072C238.659 35.464 238.552 35.9493 238.552 36.528C238.552 37.1067 238.659 37.592 238.874 37.984C239.088 38.376 239.364 38.67 239.7 38.866C240.045 39.062 240.414 39.16 240.806 39.16ZM245.927 40V33.056H246.991L247.075 34.064C247.299 33.6907 247.598 33.4013 247.971 33.196C248.344 32.9907 248.764 32.888 249.231 32.888C249.782 32.888 250.253 33 250.645 33.224C251.046 33.448 251.354 33.7887 251.569 34.246C251.812 33.826 252.143 33.4947 252.563 33.252C252.992 33.0093 253.454 32.888 253.949 32.888C254.78 32.888 255.442 33.14 255.937 33.644C256.432 34.1387 256.679 34.904 256.679 35.94V40H255.517V36.066C255.517 35.3473 255.372 34.806 255.083 34.442C254.794 34.078 254.378 33.896 253.837 33.896C253.277 33.896 252.81 34.1153 252.437 34.554C252.073 34.9833 251.891 35.5993 251.891 36.402V40H250.715V36.066C250.715 35.3473 250.57 34.806 250.281 34.442C249.992 34.078 249.576 33.896 249.035 33.896C248.484 33.896 248.022 34.1153 247.649 34.554C247.285 34.9833 247.103 35.5993 247.103 36.402V40H245.927Z" fill="white"/>
<path fill-rule="evenodd" clip-rule="evenodd" d="M18.167 17.3334C16.7863 17.3334 15.667 18.4527 15.667 19.8334V28.1667C15.667 29.5474 16.7863 30.6667 18.167 30.6667H29.8337C31.2144 30.6667 32.3337 29.5474 32.3337 28.1667V19.8334C32.3337 18.4527 31.2144 17.3334 29.8337 17.3334H18.167ZM17.4098 19.485C17.5417 19.1987 17.8311 19 18.167 19H29.8337C30.1695 19 30.459 19.1987 30.5909 19.485L24.5119 24.2131C24.211 24.4471 23.7896 24.4471 23.4887 24.2131L17.4098 19.485ZM17.3337 21.5372V26.3875L20.3442 23.8787L17.3337 21.5372ZM17.4027 28.4994C17.5312 28.7941 17.825 29 18.167 29H29.8337C30.1756 29 30.4695 28.7941 30.5979 28.4994L26.3099 24.9261L25.5352 25.5287C24.6324 26.2308 23.3683 26.2308 22.4655 25.5287L21.6908 24.9261L17.4027 28.4994ZM30.667 26.3875V21.5372L27.6565 23.8787L30.667 26.3875Z" fill="white"/>
</svg>
