<svg width="28" height="24" viewBox="0 0 28 24" fill="none" xmlns="http://www.w3.org/2000/svg">
<path fill-rule="evenodd" clip-rule="evenodd" d="M12.629 22.9542L13.9995 20.6667L15.4043 22.9333C14.556 23.4591 13.4852 23.4671 12.629 22.9542ZM11.9891 4.6766C10.9584 3.97658 9.61186 3.33333 8.14362 3.33333C4.77648 3.33333 2.80012 5.80952 3.45891 9.20833C4.58682 15.0274 13.9995 20.6667 13.9995 20.6667C12.629 22.9542 12.629 22.9542 12.629 22.9542L12.6237 22.951L12.6149 22.9457L12.5873 22.929C12.5644 22.9151 12.5327 22.8957 12.4929 22.8711C12.4131 22.8219 12.3003 22.7515 12.1589 22.6613C11.8762 22.481 11.4778 22.2207 10.9991 21.8911C10.0452 21.2345 8.75423 20.2904 7.41704 19.1446C6.08738 18.0053 4.66119 16.6233 3.47177 15.0844C2.29905 13.567 1.23324 11.7396 0.840969 9.71577C0.393387 7.4066 0.79575 5.10254 2.20681 3.33345C3.62695 1.55298 5.78902 0.666668 8.14362 0.666668C10.5752 0.666668 12.5964 1.81197 13.8503 2.72616C13.9008 2.76297 13.9506 2.79977 13.9995 2.83649C14.0485 2.79977 14.0982 2.76297 14.1487 2.72616C15.4026 1.81197 17.4238 0.666668 19.8554 0.666668C25.1156 0.666668 28.1501 5.53965 27.1349 9.82329C26.6694 11.7874 25.591 13.5761 24.416 15.0777C23.2247 16.6001 21.8167 17.9754 20.5066 19.1147C19.1899 20.2598 17.9261 21.2061 16.9937 21.8655C16.5258 22.1963 16.1372 22.4579 15.8617 22.6391C15.7239 22.7297 15.6141 22.8005 15.5365 22.8499C15.5169 22.8624 15.4993 22.8736 15.4838 22.8834C15.4688 22.8929 15.4557 22.9011 15.4448 22.908L15.4179 22.9248L15.4095 22.9301L15.4043 22.9333C15.4043 22.9333 15.4043 22.9333 13.9995 20.6667C13.9995 20.6667 23.1718 14.9817 24.5401 9.20833C25.1989 6.42857 23.2225 3.33333 19.8554 3.33333C18.3872 3.33333 17.0406 3.97658 16.0099 4.6766C14.7797 5.51214 13.9995 6.42857 13.9995 6.42857C13.9995 6.42857 13.2193 5.51214 11.9891 4.6766Z" fill="black"/>
</svg>
