<svg width="24" height="24" viewBox="0 0 24 24" fill="none" xmlns="http://www.w3.org/2000/svg">
<path d="M12 0C8.81748 0 5.76538 1.26432 3.51478 3.51478C1.26419 5.76525 0 8.81728 0 12C0 15.1827 1.26432 18.2346 3.51478 20.4852C5.76525 22.7358 8.81728 24 12 24C15.1827 24 18.2346 22.7357 20.4852 20.4852C22.7358 18.2347 24 15.1827 24 12C24 8.81728 22.7357 5.76538 20.4852 3.51478C18.2347 1.26418 15.1827 0 12 0ZM12 21.7401V21.7404C9.4047 21.7404 6.91581 20.7085 5.08154 18.872C3.2476 17.0357 2.21912 14.5458 2.22223 11.9503C2.22559 9.35496 3.26049 6.8674 5.09913 5.03577C6.93777 3.20414 9.42924 2.1785 12.0242 2.18518C14.6195 2.19164 17.1055 3.22967 18.9354 5.07062C20.7647 6.91158 21.787 9.4043 21.7772 11.9997C21.7772 14.5929 20.7472 17.0797 18.9134 18.9135C17.0797 20.7472 14.5929 21.7772 11.9996 21.7772L12 21.7401Z" fill="black"/>
<path d="M10.926 15.481H13.2222V17.6846H10.926V15.481Z" fill="black"/>
<path d="M14.7406 7.14802C13.9005 6.5807 12.9017 6.29547 11.8888 6.33323C11.106 6.30895 10.3333 6.5151 9.66649 6.92586C8.70362 7.54304 8.19729 8.56788 8.14795 9.99985H10.3702C10.3736 9.56532 10.5023 9.14088 10.7407 8.77767C10.8784 8.57538 11.068 8.41366 11.2894 8.30955C11.5108 8.20544 11.7563 8.16229 11.9999 8.18503C12.5925 8.18503 12.9999 8.34546 13.222 8.66658C13.4465 8.97892 13.5633 9.35584 13.5553 9.74049C13.5582 10.073 13.4543 10.3975 13.259 10.6664C13.1358 10.8374 12.9857 10.9875 12.8146 11.1107L12.2592 11.5551V11.5554C11.8234 11.8457 11.4669 12.2405 11.2219 12.7034C11.0468 13.2795 10.9595 13.8788 10.9628 14.4811H13.0368C13.0342 14.1811 13.0714 13.8822 13.1478 13.5921C13.2375 13.2563 13.432 12.9579 13.7035 12.7404L14.259 12.333C14.6739 12.0385 15.0477 11.6897 15.3701 11.296C15.7044 10.8061 15.8731 10.222 15.8514 9.6294C15.9318 8.66633 15.5122 7.72952 14.7405 7.14799L14.7406 7.14802Z" fill="black"/>
</svg>
