<svg width="43" height="42" viewBox="0 0 43 42" fill="none" xmlns="http://www.w3.org/2000/svg">
<rect width="43" height="42" rx="21" fill="#CDE5D4"/>
<path d="M14.0771 34.0826H23.5978C23.9082 34.0826 24.2085 33.9727 24.4454 33.7722L30.2014 28.9036C30.4963 28.6542 30.6663 28.2877 30.6663 27.9015V12.7319C30.6663 12.1809 30.664 11.7984 30.6311 11.515C30.598 11.23 30.5421 11.1376 30.5084 11.101C30.4795 11.0695 30.4026 11.009 30.1336 10.9678C29.8625 10.9264 29.4821 10.916 28.9223 10.916H14.0771C13.5173 10.916 13.1368 10.9264 12.8657 10.9678C12.5968 11.009 12.5199 11.0695 12.4909 11.101C12.4572 11.1376 12.4013 11.23 12.3682 11.515C12.3353 11.7984 12.333 12.1809 12.333 12.7319V32.2667C12.333 32.8178 12.3353 33.2002 12.3682 33.4836C12.4013 33.7686 12.4572 33.861 12.4909 33.8976C12.5199 33.9292 12.5968 33.9896 12.8657 34.0308C13.1368 34.0722 13.5173 34.0826 14.0771 34.0826Z" fill="white" stroke="#058028"/>
<path d="M17.0691 15.6532C17.0691 15.2083 16.7085 14.8477 16.2636 14.8477C15.8187 14.8477 15.458 15.2083 15.458 15.6532C15.458 16.0981 15.8187 16.4588 16.2636 16.4588C16.7085 16.4588 17.0691 16.0981 17.0691 15.6532Z" fill="#058028"/>
<path d="M17.0691 19.6809C17.0691 19.236 16.7085 18.8754 16.2636 18.8754C15.8187 18.8754 15.458 19.236 15.458 19.6809C15.458 20.1258 15.8187 20.4865 16.2636 20.4865C16.7085 20.4865 17.0691 20.1258 17.0691 19.6809Z" fill="#058028"/>
<path d="M17.0691 23.7089C17.0691 23.264 16.7085 22.9033 16.2636 22.9033C15.8187 22.9033 15.458 23.264 15.458 23.7089C15.458 24.1538 15.8187 24.5144 16.2636 24.5144C16.7085 24.5144 17.0691 24.1538 17.0691 23.7089Z" fill="#058028"/>
<rect x="18.2783" y="14.8477" width="9.26389" height="1.61111" rx="0.805556" fill="#058028"/>
<rect x="18.2783" y="18.875" width="9.26389" height="1.61111" rx="0.805555" fill="#058028"/>
<rect x="18.2783" y="22.9023" width="9.26389" height="1.61111" rx="0.805554" fill="#058028"/>
</svg>
