<svg width="173" height="25" viewBox="0 0 173 25" fill="none" xmlns="http://www.w3.org/2000/svg">
<path d="M6.41251 13.3358V20.7119C6.41251 21.6818 6.78879 22.6119 7.45857 23.2977C8.12835 23.9835 9.03677 24.3687 9.98398 24.3687H7.70015C6.9004 24.3691 6.1237 24.0945 5.49461 23.5889C4.86552 23.0833 4.4205 22.376 4.23092 21.5805L0.104813 4.5389C-0.0255557 3.99995 -0.0344279 3.43769 0.0788686 2.89471C0.192165 2.35173 0.424659 1.84227 0.758739 1.40492C1.09282 0.967572 1.51972 0.613804 2.00712 0.370414C2.49451 0.127025 3.0296 0.000397329 3.57187 0.000123079H12.1786C12.8391 -0.000379516 13.4867 0.186979 14.0492 0.541302L18.4994 3.34073V3.67479L8.11342 10.2202C7.59354 10.5474 7.16425 11.0056 6.86649 11.5511C6.56872 12.0965 6.41243 12.711 6.41251 13.3358Z" fill="#F15733"/>
<path d="M37.4248 4.53877L33.2922 21.5803C33.1002 22.3736 32.6542 23.0781 32.0254 23.5815C31.3965 24.0849 30.6212 24.3581 29.823 24.3575H27.5435C28.489 24.3575 29.396 23.9738 30.0658 23.2905C30.7357 22.6072 31.1137 21.6799 31.1171 20.7118V13.3357C31.1176 12.7105 30.9615 12.0956 30.6637 11.5497C30.3659 11.0038 29.9364 10.5453 29.4162 10.2178L19.0303 3.68135V3.34061L23.4892 0.541178C24.0507 0.188292 24.6965 0.00101718 25.3554 2.40641e-08H33.9556C34.4981 -6.36702e-05 35.0334 0.126316 35.5211 0.36956C36.0087 0.612804 36.4359 0.966528 36.7702 1.40392C37.1046 1.84131 37.3373 2.35089 37.4507 2.89404C37.5641 3.43719 37.5553 3.99964 37.4248 4.53877Z" fill="#4FA6B4"/>
<path d="M31.1165 13.3358V20.7118C31.116 21.6819 30.7392 22.612 30.0691 23.2977C29.399 23.9835 28.4903 24.3687 27.5429 24.3687H9.98357C9.03636 24.3687 8.12795 23.9834 7.45817 23.2976C6.78839 22.6118 6.41211 21.6817 6.41211 20.7118V13.3358C6.41165 12.7105 6.56777 12.0956 6.86555 11.5497C7.16333 11.0039 7.59283 10.5453 8.11301 10.2179L18.499 3.6814V5.6234C18.4991 5.64968 18.4933 5.67564 18.482 5.69921C18.4707 5.72279 18.4541 5.74335 18.4337 5.75925L14.6926 8.65445C14.6635 8.67537 14.6417 8.70523 14.6303 8.73969C14.6189 8.77416 14.6185 8.81145 14.6291 8.84617C14.6398 8.88089 14.6609 8.91124 14.6896 8.93282C14.7182 8.95441 14.7528 8.96611 14.7883 8.96624H17.5833C17.6229 8.96634 17.6612 8.98102 17.6911 9.00759C17.721 9.03416 17.7407 9.07086 17.7464 9.111C17.7822 9.36124 17.9048 9.58993 18.0917 9.75529C18.2786 9.92065 18.5173 10.0116 18.7643 10.0116C19.0113 10.0116 19.2501 9.92065 19.437 9.75529C19.6239 9.58993 19.7464 9.36124 19.7823 9.111C19.788 9.07086 19.8076 9.03416 19.8376 9.00759C19.8675 8.98102 19.9058 8.96634 19.9454 8.96624H22.7382C22.7734 8.96674 22.8079 8.95568 22.8366 8.93467C22.8653 8.91366 22.8867 8.88381 22.8976 8.84947C22.9086 8.81513 22.9085 8.77812 22.8974 8.74383C22.8863 8.70954 22.8648 8.67978 22.8361 8.6589L19.0949 5.76371C19.0745 5.7478 19.058 5.72725 19.0467 5.70367C19.0353 5.68009 19.0295 5.65413 19.0297 5.62786V3.6814L29.4156 10.2201C29.9355 10.5474 30.3648 11.0056 30.6626 11.551C30.9603 12.0964 31.1166 12.7109 31.1165 13.3358Z" fill="#EFA143"/>
<path d="M54.4047 4.54548H50.2416V18.6629H47.4793V4.54548H43.3184V2.0957H54.4112L54.4047 4.54548Z" fill="white"/>
<path d="M60.8699 10.6141C60.5122 10.6072 60.1569 10.6749 59.8256 10.8132C59.4943 10.9514 59.1939 11.1572 58.9428 11.4181C58.6851 11.6699 58.4811 11.9737 58.3437 12.3102C58.2063 12.6467 58.1385 13.0088 58.1445 13.3735V18.6628H55.3887V13.3735C55.3746 12.6362 55.5091 11.9038 55.7838 11.2221C56.0585 10.5405 56.4674 9.92408 56.9852 9.41149C57.4917 8.88616 58.0973 8.47189 58.7651 8.19392C59.433 7.91595 60.1491 7.7801 60.8699 7.79463V10.6141Z" fill="white"/>
<path d="M72.7933 18.7741C72.8095 19.5122 72.6774 20.2457 72.4049 20.9292C72.1325 21.6127 71.7257 22.2316 71.2098 22.7472C70.701 23.2726 70.093 23.6863 69.4229 23.9631C68.7527 24.24 68.0345 24.3741 67.3121 24.3574V21.5313C67.6692 21.5371 68.0238 21.4687 68.3543 21.3301C68.6848 21.1915 68.9844 20.9857 69.2349 20.7251C69.4929 20.4729 69.6972 20.1688 69.835 19.832C69.9727 19.4951 70.0409 19.1326 70.0353 18.7675V18.2619C69.2064 18.7454 68.2682 18.998 67.3143 18.9946C66.5936 19.0005 65.879 18.8597 65.2119 18.5803C64.5449 18.3009 63.9387 17.8886 63.4287 17.3672C62.9187 16.8458 62.515 16.2258 62.2411 15.5433C61.9672 14.8607 61.8285 14.1292 61.8331 13.3913V7.79468H64.5976V13.3913C64.6257 14.1104 64.9245 14.7904 65.4313 15.289C65.9381 15.7876 66.6136 16.066 67.3165 16.066C68.0193 16.066 68.6949 15.7876 69.2017 15.289C69.7085 14.7904 70.0072 14.1104 70.0353 13.3913V7.79468H72.7955L72.7933 18.7741Z" fill="white"/>
<path d="M93.6566 4.54548H89.4849V18.6629H86.7225V4.54548H82.5703V2.0957H93.6632L93.6566 4.54548Z" fill="white"/>
<path d="M105.602 18.6629H102.842V13.3758C102.845 13.0133 102.776 12.6538 102.638 12.3198C102.501 11.9857 102.298 11.6842 102.041 11.4338C101.794 11.1719 101.497 10.9644 101.169 10.8242C100.84 10.6841 100.487 10.6141 100.132 10.6187C99.7733 10.6131 99.4175 10.6815 99.0857 10.8201C98.7538 10.9586 98.4526 11.1643 98.2002 11.4249C97.9423 11.6757 97.7379 11.9786 97.6001 12.3144C97.4624 12.6502 97.3942 13.0116 97.3998 13.3758V18.6629H94.6396V2.0957H97.3998V8.50522C98.2328 8.03474 99.1695 7.79018 100.121 7.79478C100.842 7.78023 101.559 7.91629 102.227 8.19465C102.895 8.47302 103.501 8.88786 104.008 9.41386C104.525 9.92665 104.934 10.5431 105.208 11.2248C105.482 11.9065 105.616 12.6387 105.602 13.3758V18.6629Z" fill="white"/>
<path d="M117.547 13.3625C117.548 13.642 117.527 13.9212 117.486 14.1976H109.489C109.653 14.7668 109.999 15.2636 110.47 15.6096C110.937 15.9626 111.505 16.1502 112.086 16.1441C112.481 16.1519 112.872 16.0672 113.23 15.8966C113.588 15.726 113.903 15.474 114.152 15.1597L115.829 17.4425C115.334 17.9375 114.749 18.3275 114.106 18.5901C113.464 18.8526 112.777 18.9826 112.086 18.9725C111.364 18.982 110.648 18.8437 109.979 18.5656C109.311 18.2875 108.703 17.8753 108.192 17.3532C107.681 16.831 107.278 16.2096 107.005 15.5254C106.733 14.8412 106.596 14.1081 106.605 13.3692C106.591 12.6319 106.725 11.8996 107 11.2179C107.274 10.5363 107.683 9.91989 108.201 9.40721C109.239 8.37011 110.631 7.78955 112.081 7.78955C113.531 7.78955 114.924 8.37011 115.962 9.40721C116.476 9.9204 116.882 10.5362 117.155 11.2165C117.428 11.8968 117.561 12.6272 117.547 13.3625ZM114.459 12.0819C114.229 11.6388 113.886 11.268 113.466 11.0094C113.046 10.7508 112.566 10.6141 112.076 10.6141C111.586 10.6141 111.105 10.7508 110.686 11.0094C110.266 11.268 109.923 11.6388 109.693 12.0819H114.459Z" fill="white"/>
<path d="M129.534 18.6629H126.774V13.3758C126.777 13.013 126.708 12.6533 126.57 12.3192C126.432 11.9851 126.228 11.6837 125.971 11.4338C125.724 11.1718 125.427 10.9644 125.099 10.8242C124.77 10.684 124.417 10.6141 124.061 10.6187C123.703 10.6128 123.348 10.6812 123.016 10.8198C122.685 10.9583 122.384 11.1641 122.132 11.4249C121.874 11.6757 121.67 11.9785 121.532 12.3144C121.394 12.6502 121.326 13.0116 121.332 13.3758V18.6629H118.569V13.3736C118.555 12.6363 118.69 11.904 118.965 11.2223C119.239 10.5407 119.648 9.92428 120.166 9.4116C121.206 8.37364 122.6 7.79272 124.053 7.79272C125.505 7.79272 126.9 8.37364 127.94 9.4116C128.457 9.92439 128.865 10.5409 129.14 11.2225C129.414 11.9042 129.548 12.6364 129.534 13.3736V18.6629Z" fill="white"/>
<path d="M149.068 13.0484C149.089 13.7856 148.96 14.5193 148.689 15.2026C148.418 15.8859 148.011 16.5038 147.494 17.0171C146.987 17.5443 146.381 17.9616 145.713 18.2444C145.046 18.5271 144.329 18.6694 143.607 18.6629L139.087 18.6829V2.09568H142.247C142.792 2.08362 143.334 2.18609 143.839 2.39676C144.344 2.60743 144.802 2.92184 145.184 3.32057C145.573 3.71226 145.882 4.1804 146.091 4.697C146.3 5.21359 146.405 5.76801 146.399 6.32712C146.403 6.92467 146.285 7.51638 146.051 8.06423C146.946 8.53724 147.697 9.25004 148.227 10.1265C148.767 11.0014 149.058 12.0133 149.068 13.0484ZM143.648 6.34716C143.635 5.96742 143.479 5.60752 143.213 5.34275C143.088 5.20913 142.938 5.10291 142.772 5.03054C142.606 4.95817 142.428 4.92119 142.247 4.92183H141.854V7.73017H142.267C142.638 7.72717 142.995 7.5854 143.272 7.33153C143.403 7.20702 143.505 7.05384 143.57 6.8834C143.635 6.71296 143.662 6.52966 143.648 6.34716ZM146.306 13.0707C146.307 12.7032 146.238 12.3391 146.101 11.9993C145.965 11.6595 145.764 11.3507 145.51 11.0908C145.26 10.8288 144.961 10.6221 144.63 10.4834C144.299 10.3447 143.944 10.2771 143.587 10.2846H141.847V15.8345H143.607C143.964 15.8401 144.318 15.7715 144.649 15.633C144.979 15.4944 145.279 15.2887 145.529 15.0283C145.786 14.7765 145.988 14.472 146.122 14.1346C146.256 13.7972 146.319 13.4346 146.306 13.0707Z" fill="white"/>
<path d="M161.034 13.3846C161.034 14.8731 160.456 16.3006 159.428 17.3531C158.4 18.4056 157.006 18.9969 155.552 18.9969C154.099 18.9969 152.705 18.4056 151.677 17.3531C150.649 16.3006 150.071 14.8731 150.071 13.3846V7.79468H152.831V13.3846C152.826 13.7504 152.893 14.1136 153.029 14.452C153.164 14.7905 153.366 15.0971 153.621 15.3534C153.87 15.6167 154.168 15.8249 154.499 15.9652C154.829 16.1054 155.184 16.1746 155.542 16.1685C156.264 16.1691 156.957 15.8764 157.469 15.3546C157.981 14.8328 158.271 14.1244 158.273 13.3846V7.79468H161.034V13.3846Z" fill="white"/>
<path d="M172.998 18.7741C173.014 19.5122 172.882 20.2457 172.61 20.9292C172.337 21.6127 171.931 22.2316 171.415 22.7472C170.906 23.2726 170.298 23.6863 169.628 23.9631C168.958 24.24 168.239 24.3741 167.517 24.3574V21.5313C167.873 21.5365 168.227 21.4678 168.557 21.3292C168.886 21.1907 169.185 20.9851 169.435 20.7251C169.693 20.4727 169.897 20.1686 170.034 19.8317C170.172 19.4948 170.24 19.1325 170.234 18.7675V18.2619C169.405 18.7454 168.467 18.998 167.513 18.9946C166.793 18.9994 166.079 18.8577 165.413 18.5779C164.748 18.2982 164.143 17.8858 163.633 17.3648C163.124 16.8438 162.721 16.2244 162.448 15.5427C162.174 14.861 162.036 14.1305 162.04 13.3935V7.79468H164.8V13.3913C164.793 13.7582 164.859 14.1226 164.995 14.4624C165.13 14.8021 165.332 15.1098 165.588 15.3667C165.836 15.6294 166.135 15.8371 166.465 15.9769C166.795 16.1167 167.149 16.1857 167.506 16.1796C167.865 16.1855 168.221 16.1165 168.553 15.9767C168.884 15.8369 169.185 15.6294 169.435 15.3667C169.693 15.1129 169.897 14.8076 170.035 14.4697C170.172 14.1318 170.241 13.7685 170.236 13.4024V7.79468H172.996L172.998 18.7741Z" fill="white"/>
</svg>
