<svg width="111" height="36" viewBox="0 0 111 36" fill="none" xmlns="http://www.w3.org/2000/svg">
<path d="M0 12C0 5.37258 5.37258 0 12 0H99C105.627 0 111 5.37258 111 12V24C111 30.6274 105.627 36 99 36H12C5.37258 36 0 30.6274 0 24V12Z" fill="#F5F5F5"/>
<path fill-rule="evenodd" clip-rule="evenodd" d="M27 25H23.9567V20.0168C23.9567 18.7125 23.4806 17.822 22.4338 17.822C21.6331 17.822 21.1878 18.4229 20.9806 19.002C20.9028 19.2099 20.915 19.4994 20.915 19.789V25H17.9C17.9 25 17.9389 16.1728 17.9 15.3704H20.915V16.8817C21.0931 16.2209 22.0565 15.2778 23.594 15.2778C25.5014 15.2778 27 16.6629 27 19.6456V25ZM14.7413 14.1111H14.7204C13.6767 14.1111 13 13.4257 13 12.5568C13 11.6711 13.6967 11 14.7613 11C15.825 11 16.4791 11.6694 16.5 12.5543C16.5 13.4231 15.825 14.1111 14.7413 14.1111ZM13.35 15.6667H16.15V25H13.35V15.6667Z" fill="#151515"/>
<path d="M37.495 21.52H40.855V23.5H34.93V12.97H37.495V21.52ZM43.3684 14.26C42.9184 14.26 42.5484 14.13 42.2584 13.87C41.9784 13.6 41.8384 13.27 41.8384 12.88C41.8384 12.48 41.9784 12.15 42.2584 11.89C42.5484 11.62 42.9184 11.485 43.3684 11.485C43.8084 11.485 44.1684 11.62 44.4484 11.89C44.7384 12.15 44.8834 12.48 44.8834 12.88C44.8834 13.27 44.7384 13.6 44.4484 13.87C44.1684 14.13 43.8084 14.26 43.3684 14.26ZM44.6434 15.13V23.5H42.0784V15.13H44.6434ZM51.6023 15.04C52.5823 15.04 53.3623 15.36 53.9423 16C54.5323 16.63 54.8273 17.5 54.8273 18.61V23.5H52.2773V18.955C52.2773 18.395 52.1323 17.96 51.8423 17.65C51.5523 17.34 51.1623 17.185 50.6723 17.185C50.1823 17.185 49.7923 17.34 49.5023 17.65C49.2123 17.96 49.0673 18.395 49.0673 18.955V23.5H46.5023V15.13H49.0673V16.24C49.3273 15.87 49.6773 15.58 50.1173 15.37C50.5573 15.15 51.0523 15.04 51.6023 15.04ZM61.7247 23.5L59.1747 19.99V23.5H56.6097V12.4H59.1747V18.535L61.7097 15.13H64.8747L61.3947 19.33L64.9047 23.5H61.7247ZM73.7721 19.18C73.7721 19.42 73.7571 19.67 73.7271 19.93H67.9221C67.9621 20.45 68.1271 20.85 68.4171 21.13C68.7171 21.4 69.0821 21.535 69.5121 21.535C70.1521 21.535 70.5971 21.265 70.8471 20.725H73.5771C73.4371 21.275 73.1821 21.77 72.8121 22.21C72.4521 22.65 71.9971 22.995 71.4471 23.245C70.8971 23.495 70.2821 23.62 69.6021 23.62C68.7821 23.62 68.0521 23.445 67.4121 23.095C66.7721 22.745 66.2721 22.245 65.9121 21.595C65.5521 20.945 65.3721 20.185 65.3721 19.315C65.3721 18.445 65.5471 17.685 65.8971 17.035C66.2571 16.385 66.7571 15.885 67.3971 15.535C68.0371 15.185 68.7721 15.01 69.6021 15.01C70.4121 15.01 71.1321 15.18 71.7621 15.52C72.3921 15.86 72.8821 16.345 73.2321 16.975C73.5921 17.605 73.7721 18.34 73.7721 19.18ZM71.1471 18.505C71.1471 18.065 70.9971 17.715 70.6971 17.455C70.3971 17.195 70.0221 17.065 69.5721 17.065C69.1421 17.065 68.7771 17.19 68.4771 17.44C68.1871 17.69 68.0071 18.045 67.9371 18.505H71.1471ZM74.6153 19.3C74.6153 18.44 74.7753 17.685 75.0953 17.035C75.4253 16.385 75.8703 15.885 76.4303 15.535C76.9903 15.185 77.6153 15.01 78.3053 15.01C78.8553 15.01 79.3553 15.125 79.8053 15.355C80.2653 15.585 80.6253 15.895 80.8853 16.285V12.4H83.4503V23.5H80.8853V22.3C80.6453 22.7 80.3003 23.02 79.8503 23.26C79.4103 23.5 78.8953 23.62 78.3053 23.62C77.6153 23.62 76.9903 23.445 76.4303 23.095C75.8703 22.735 75.4253 22.23 75.0953 21.58C74.7753 20.92 74.6153 20.16 74.6153 19.3ZM80.8853 19.315C80.8853 18.675 80.7053 18.17 80.3453 17.8C79.9953 17.43 79.5653 17.245 79.0553 17.245C78.5453 17.245 78.1103 17.43 77.7503 17.8C77.4003 18.16 77.2253 18.66 77.2253 19.3C77.2253 19.94 77.4003 20.45 77.7503 20.83C78.1103 21.2 78.5453 21.385 79.0553 21.385C79.5653 21.385 79.9953 21.2 80.3453 20.83C80.7053 20.46 80.8853 19.955 80.8853 19.315ZM87.871 12.97V23.5H85.306V12.97H87.871ZM94.8298 15.04C95.8098 15.04 96.5898 15.36 97.1698 16C97.7598 16.63 98.0548 17.5 98.0548 18.61V23.5H95.5048V18.955C95.5048 18.395 95.3598 17.96 95.0698 17.65C94.7798 17.34 94.3898 17.185 93.8998 17.185C93.4098 17.185 93.0198 17.34 92.7298 17.65C92.4398 17.96 92.2948 18.395 92.2948 18.955V23.5H89.7298V15.13H92.2948V16.24C92.5548 15.87 92.9048 15.58 93.3448 15.37C93.7848 15.15 94.2798 15.04 94.8298 15.04Z" fill="#151515"/>
</svg>
