<svg width="260" height="172" viewBox="0 0 260 172" fill="none" xmlns="http://www.w3.org/2000/svg">
<path d="M231.21 51.6924L227.892 67.6368L225.756 65.5693L222.123 68.1425L219.347 64.7197L213.12 69.2123L207.799 60.3818L201.864 63.8321L199.51 60.6123L191.974 64.8263L189.707 60.0069L194.99 34.6162L223.312 40.4195L231.21 51.6924Z" fill="#EBEBEB"/>
<path d="M223.312 40.4199L231.209 51.6928L221.385 49.6804L223.312 40.4199Z" fill="#DBDBDB"/>
<path d="M227.185 70.8218L222.321 94.2138L184.17 86.3981L188.999 63.1953L191.266 68.0113L198.806 63.7973L201.157 67.0172L207.095 63.5703L212.413 72.4008L218.643 67.9081L221.416 71.3275L225.053 68.7578L227.185 70.8218Z" fill="#EBEBEB"/>
<path d="M172.581 68.0808L133.703 70.4682L130.614 20.9459L159.484 19.1709L170.082 27.9945L172.581 68.0808Z" fill="#EBEBEB"/>
<path d="M159.484 19.1709L170.082 27.9945L160.07 28.6103L159.484 19.1709Z" fill="#DBDBDB"/>
<path d="M148.72 52.4945L148.568 51.3765C148.176 49.0614 148.814 46.4711 150.842 43.7638C152.672 41.3558 153.664 39.6358 153.553 37.6819C153.428 35.4803 151.955 34.0905 149.212 34.2006C147.645 34.2814 146.14 34.8333 144.896 35.783L143.7 33.1239C145.087 32.0059 147.514 31.1803 149.819 31.0599C154.822 30.7847 157.255 33.7225 157.446 37.0008C157.612 39.9351 156.08 42.1401 154.132 44.7167C152.343 47.0662 151.757 49.0029 152.01 51.1942L152.117 52.3157L148.72 52.4945ZM148.103 58.5868C148.013 56.9906 149.036 55.8073 150.557 55.7247C152.079 55.6421 153.189 56.7017 153.279 58.3013C153.362 59.8114 152.429 61.0292 150.821 61.1186C149.285 61.2046 148.176 60.0969 148.089 58.5868H148.103Z" fill="#DBDBDB"/>
<path d="M51.4731 44.0703L47.5627 42.3125L47.0184 43.4993C46.938 43.6689 46.8126 43.8136 46.6557 43.9178C46.4987 44.0221 46.3161 44.0819 46.1275 44.091C45.9126 44.098 45.6983 44.1187 45.4861 44.1529C45.2998 44.1804 45.1095 44.1571 44.9355 44.0856C44.7615 44.0141 44.6103 43.8971 44.4981 43.747L43.732 42.684L40.2411 45.1677L41.0072 46.2307C41.1137 46.3841 41.1765 46.5633 41.1887 46.7492C41.2009 46.9351 41.1621 47.1209 41.0765 47.2867C40.9777 47.4759 40.8886 47.67 40.8096 47.8681C40.7409 48.0428 40.6256 48.1957 40.4759 48.3102C40.3263 48.4248 40.148 48.4967 39.9603 48.5183L38.6533 48.6455L39.0728 52.8871L40.3867 52.7563C40.5751 52.7414 40.764 52.7777 40.9332 52.8613C41.1024 52.945 41.2454 53.0728 41.3469 53.2311C41.4024 53.3205 41.4613 53.4065 41.5237 53.4925C41.5861 53.5785 41.6485 53.6611 41.7144 53.7436C41.834 53.8881 41.911 54.0626 41.9367 54.2478C41.9624 54.433 41.9358 54.6217 41.86 54.7928L41.3123 55.9899L45.2261 57.7512L45.7704 56.5575C45.8515 56.3881 45.9776 56.2438 46.1352 56.1401C46.2928 56.0365 46.4759 55.9774 46.6648 55.9693C46.8773 55.9606 47.0891 55.9399 47.2992 55.9074C47.4855 55.8799 47.6758 55.9032 47.8498 55.9747C48.0238 56.0462 48.175 56.1632 48.2872 56.3133L49.0533 57.3763L52.5477 54.8926L51.7816 53.8296C51.6718 53.6776 51.607 53.4981 51.5948 53.3114C51.5825 53.1248 51.6232 52.9384 51.7123 52.7735C51.8088 52.5854 51.8956 52.3925 51.9723 52.1956C52.0389 52.0196 52.1537 51.8655 52.3038 51.7507C52.4538 51.6358 52.6331 51.5648 52.8216 51.5455L54.1355 51.4147L53.7125 47.1732L52.3987 47.3005C52.2114 47.3168 52.0233 47.2814 51.855 47.1983C51.6868 47.1151 51.545 46.9874 51.4453 46.8292C51.3864 46.7398 51.3275 46.6538 51.2651 46.5678C51.2027 46.4818 51.1403 46.3958 51.0744 46.3167C50.9556 46.1704 50.8792 45.9948 50.8536 45.8087C50.8279 45.6226 50.8539 45.4331 50.9288 45.2606L51.4731 44.0703ZM49.2544 47.9954C49.6598 48.5567 49.8883 49.2248 49.9111 49.915C49.9338 50.6053 49.7498 51.2867 49.3822 51.8732C49.0146 52.4596 48.4801 52.9247 47.8461 53.2097C47.2121 53.4947 46.5072 53.5867 45.8206 53.4741C45.1339 53.3615 44.4963 53.0493 43.9884 52.5771C43.4806 52.1049 43.1252 51.4939 42.9673 50.8213C42.8095 50.1486 42.8561 49.4447 43.1015 48.7984C43.3468 48.1521 43.7797 47.5925 44.3456 47.1904C45.1042 46.6514 46.0474 46.4333 46.968 46.5843C47.8885 46.7352 48.7109 47.2428 49.2544 47.9954Z" fill="#EBEBEB"/>
<path d="M228.239 100.348L225.632 101.841L226.093 102.632C226.161 102.745 226.196 102.876 226.191 103.009C226.187 103.141 226.144 103.269 226.068 103.378C225.989 103.502 225.912 103.629 225.843 103.764C225.786 103.882 225.696 103.982 225.584 104.052C225.471 104.121 225.341 104.157 225.209 104.156H224.293V107.145H225.216C225.348 107.144 225.478 107.18 225.591 107.249C225.703 107.319 225.793 107.419 225.85 107.537C225.919 107.671 225.996 107.799 226.075 107.923C226.151 108.031 226.194 108.16 226.198 108.292C226.203 108.425 226.168 108.555 226.1 108.669L225.639 109.46L228.245 110.953L228.71 110.159C228.777 110.046 228.875 109.954 228.992 109.893C229.109 109.832 229.24 109.805 229.372 109.815H229.816C229.947 109.806 230.079 109.833 230.196 109.894C230.313 109.954 230.41 110.046 230.478 110.159L230.943 110.957L233.546 109.464L233.085 108.669C233.019 108.555 232.987 108.425 232.992 108.294C232.997 108.162 233.039 108.035 233.113 107.926C233.192 107.802 233.269 107.671 233.338 107.541C233.395 107.422 233.485 107.322 233.597 107.253C233.71 107.183 233.84 107.147 233.972 107.149H234.895V104.159H233.965C233.833 104.161 233.703 104.125 233.59 104.055C233.478 103.986 233.388 103.886 233.331 103.767C233.262 103.636 233.185 103.506 233.106 103.382C233.032 103.273 232.99 103.145 232.985 103.014C232.98 102.883 233.012 102.753 233.078 102.639L233.539 101.844L230.936 100.351L230.471 101.135C230.404 101.248 230.306 101.34 230.189 101.401C230.072 101.462 229.941 101.489 229.809 101.479H229.587H229.365C229.233 101.488 229.101 101.461 228.984 101.4C228.866 101.339 228.768 101.248 228.7 101.135L228.239 100.348ZM229.587 103.203C230.076 103.202 230.553 103.345 230.96 103.614C231.366 103.883 231.683 104.266 231.87 104.713C232.057 105.161 232.107 105.654 232.012 106.129C231.916 106.605 231.681 107.041 231.336 107.384C230.99 107.727 230.55 107.96 230.071 108.055C229.592 108.149 229.096 108.1 228.644 107.914C228.193 107.729 227.808 107.414 227.537 107.011C227.266 106.607 227.122 106.133 227.122 105.649C227.122 105.327 227.185 105.009 227.309 104.712C227.433 104.415 227.614 104.144 227.843 103.917C228.072 103.69 228.344 103.509 228.643 103.386C228.942 103.263 229.263 103.199 229.587 103.199V103.203Z" fill="#EBEBEB"/>
<path d="M59.3839 31.3581L56.9954 33.1744L57.5466 33.9002C57.6288 34.0036 57.6794 34.1283 57.6923 34.2594C57.7052 34.3905 57.6799 34.5226 57.6194 34.6398C57.553 34.7737 57.4951 34.9116 57.446 35.0526C57.4033 35.1769 57.3265 35.2868 57.2242 35.3701C57.1219 35.4533 56.9982 35.5066 56.8671 35.5239L55.9519 35.6409L56.3402 38.6027L57.2554 38.4857C57.3886 38.4673 57.5244 38.4866 57.647 38.5414C57.7697 38.5961 57.8743 38.6842 57.9487 38.7953C58.0322 38.915 58.1225 39.0299 58.2191 39.1393C58.3084 39.2368 58.3677 39.3576 58.3898 39.4875C58.4119 39.6174 58.396 39.7509 58.3439 39.8721L57.9972 40.7183L60.7706 41.8638L61.1172 41.0176C61.1688 40.8962 61.2537 40.7915 61.3621 40.7155C61.4706 40.6395 61.5983 40.5952 61.7308 40.5876L61.9527 40.5635L62.1711 40.5291C62.2994 40.5051 62.4319 40.5165 62.5541 40.562C62.6763 40.6074 62.7837 40.6853 62.8644 40.7871L63.4295 41.5198L65.818 39.7035L65.2599 38.9776C65.1793 38.8728 65.1298 38.7477 65.1169 38.6164C65.104 38.4851 65.1284 38.3529 65.1871 38.2346C65.2528 38.1016 65.3107 37.9649 65.3604 37.8253C65.4032 37.701 65.48 37.5911 65.5823 37.5078C65.6846 37.4245 65.8082 37.3713 65.9394 37.354L66.8546 37.237L66.4663 34.2752L65.5511 34.3921C65.4182 34.4109 65.2827 34.3922 65.1601 34.338C65.0374 34.2839 64.9327 34.1965 64.8578 34.086C64.7711 33.9621 64.681 33.8452 64.5839 33.742C64.5031 33.6424 64.4509 33.5231 64.4326 33.3966C64.4143 33.2701 64.4306 33.1411 64.4799 33.023L64.8266 32.1768L62.0532 31.0312L61.7066 31.8775C61.6543 31.9984 61.5693 32.1026 61.461 32.1785C61.3527 32.2544 61.2253 32.2991 61.093 32.3075L60.8711 32.3281L60.6666 32.335C60.5383 32.359 60.4058 32.3476 60.2836 32.3021C60.1613 32.2567 60.054 32.1788 59.9732 32.077L59.3839 31.3581ZM61.093 34.0172C61.5759 33.9556 62.0663 34.0373 62.5025 34.252C62.9387 34.4666 63.301 34.8047 63.5438 35.2235C63.7865 35.6423 63.8989 36.123 63.8666 36.6051C63.8344 37.0871 63.659 37.5489 63.3625 37.9322C63.0661 38.3155 62.6619 38.603 62.201 38.7586C61.74 38.9142 61.243 38.9308 60.7725 38.8064C60.3021 38.682 59.8793 38.4221 59.5575 38.0596C59.2357 37.697 59.0294 37.248 58.9644 36.7692C58.9211 36.4496 58.9419 36.1248 59.0255 35.8132C59.1092 35.5017 59.2541 35.2097 59.4519 34.9539C59.6498 34.6981 59.8966 34.4837 60.1782 34.323C60.4598 34.1622 60.7707 34.0583 61.093 34.0172Z" fill="#EBEBEB"/>
<path d="M41.5377 108.972C41.668 105.646 41.6217 102.317 41.3991 98.9959C40.9031 92.139 39.8492 85.3332 38.2479 78.6449C37.3673 74.8815 36.2857 71.1801 35.1556 67.4821C35.1209 67.3686 34.9407 67.3995 34.9719 67.5165C38.4628 80.5541 41.3263 94.0045 41.1287 107.558C41.0732 111.342 40.6295 115.074 40.2689 118.845C40.2689 118.944 40.4249 118.986 40.4492 118.883C41.1668 115.646 41.4025 112.267 41.5377 108.972Z" fill="#EBEBEB"/>
<path d="M34.9717 67.5068C34.9717 67.5068 29.6885 80.8196 30.8707 83.9363C32.0528 87.0529 34.4933 87.7203 34.4933 87.7203C34.4933 87.7203 31.2589 92.3024 33.5192 96.5989C35.7795 100.895 40.7992 100.693 41.1459 105.564C41.1355 105.588 41.4128 85.2194 34.9717 67.5068Z" fill="#EBEBEB"/>
<path d="M40.5601 97.1763C40.5686 97.1541 40.5686 97.1297 40.5601 97.1075C39.8666 88.0187 38.148 79.0357 35.4363 70.3271C35.4363 70.303 35.3843 70.3099 35.3913 70.3271C36.4382 74.2258 37.3626 78.1405 38.1646 82.0713C37.4543 81.4036 36.5866 80.9234 35.6409 80.6746C35.6409 80.6746 35.6131 80.6953 35.6409 80.7021C36.6344 81.0634 37.5277 81.6528 38.2478 82.4221C38.4003 83.1961 38.5529 83.9667 38.695 84.7407C37.5129 83.4301 35.8766 82.7799 34.2369 82.1607C34.2331 82.1623 34.23 82.165 34.2278 82.1683C34.2255 82.1717 34.2244 82.1756 34.2244 82.1796C34.2244 82.1836 34.2255 82.1876 34.2278 82.1909C34.23 82.1943 34.2331 82.1969 34.2369 82.1985C35.9459 82.8865 37.6446 83.7741 38.8025 85.2361C39.2046 87.4445 39.5582 89.661 39.8633 91.8856C39.0097 90.9982 37.9151 90.3757 36.7121 90.0933C36.6739 90.0933 36.6531 90.1381 36.6913 90.1484C37.927 90.5095 39.0303 91.2195 39.8667 92.1917H39.8875C39.9915 92.9715 40.0909 93.7546 40.1857 94.5413C39.5254 93.9868 38.7798 93.5408 37.9774 93.2203C37.9566 93.2203 37.9427 93.2444 37.9774 93.2513C38.7963 93.6033 39.5462 94.0959 40.1926 94.7064C40.1926 94.7064 40.2099 94.7064 40.2203 94.7064C40.307 95.4529 40.3937 96.1993 40.4699 96.9458C39.2795 95.5178 37.7346 94.4223 35.9875 93.7673C35.9802 93.7673 35.9731 93.7702 35.9679 93.7753C35.9627 93.7805 35.9598 93.7875 35.9598 93.7948C35.9598 93.8021 35.9627 93.8091 35.9679 93.8142C35.9731 93.8194 35.9802 93.8223 35.9875 93.8223C37.7127 94.5768 39.228 95.7347 40.4041 97.1969C40.417 97.213 40.4345 97.2248 40.4542 97.2309C40.474 97.2371 40.4951 97.2372 40.515 97.2313C40.6294 98.3769 40.7334 99.5224 40.8166 100.671C40.8166 100.689 40.8443 100.689 40.8443 100.671C40.7542 99.5178 40.6594 98.3528 40.5601 97.1763Z" fill="white"/>
<path d="M36.3135 79.3637C35.3567 78.7728 34.2636 78.4342 33.138 78.3799C33.1325 78.3799 33.1272 78.3821 33.1233 78.3859C33.1194 78.3898 33.1172 78.395 33.1172 78.4005C33.1172 78.406 33.1194 78.4112 33.1233 78.4151C33.1272 78.419 33.1325 78.4212 33.138 78.4212C34.2263 78.626 35.2824 78.973 36.2788 79.4532C36.3204 79.4635 36.3516 79.3912 36.3135 79.3637Z" fill="white"/>
<path d="M36.9548 93.4578C36.2194 93.039 35.4097 92.7645 34.5697 92.6494C34.542 92.6494 34.5385 92.6873 34.5697 92.6941C35.3899 92.8574 36.1833 93.1329 36.9271 93.5129C36.9583 93.5301 36.986 93.475 36.9548 93.4578Z" fill="white"/>
<path d="M55.4319 84.1668C53.1969 85.6999 51.1443 87.4794 49.3133 89.4713C47.425 91.5804 45.9684 94.034 45.025 96.6953C43.017 102.24 41.9373 108.073 41.8287 113.964C41.7614 117.226 42.0766 120.485 42.7682 123.675C42.7738 123.698 42.7882 123.719 42.8083 123.732C42.8285 123.745 42.8529 123.749 42.8766 123.745C42.9002 123.74 42.9212 123.727 42.9352 123.708C42.9492 123.688 42.9552 123.664 42.9519 123.641C42.0914 118.012 42.1242 112.284 43.049 106.664C43.9573 101.16 45.3821 95.168 48.9111 90.6925C50.8317 88.2536 53.2271 86.3375 55.5949 84.356C55.7197 84.246 55.5602 84.0774 55.4319 84.1668Z" fill="#EBEBEB"/>
<path d="M42.6052 109.994C43.8774 107.952 45.3725 106.055 47.0634 104.339C49.7084 101.714 51.934 99.8493 52.2807 98.1156C52.6274 96.3818 49.6322 95.1021 49.6322 95.1021C49.6322 95.1021 53.2895 95.7557 54.2914 94.2318C55.2932 92.7079 55.7751 83.8809 55.7751 83.8809C55.7751 83.8809 49.1191 88.5971 46.0164 95.2088C42.9138 101.82 42.6052 109.994 42.6052 109.994Z" fill="#EBEBEB"/>
<path d="M53.3866 92.1608C52.9484 92.096 52.5041 92.081 52.0624 92.116C52.0104 92.116 52.0138 92.2055 52.0624 92.2089C52.4992 92.2089 52.9394 92.1883 53.3762 92.2089C53.3812 92.2076 53.3858 92.205 53.3893 92.2013C53.3929 92.1976 53.3954 92.193 53.3965 92.188C53.3975 92.183 53.3972 92.1778 53.3955 92.173C53.3937 92.1682 53.3907 92.164 53.3866 92.1608Z" fill="white"/>
<path d="M48.6062 100.723C47.9034 100.737 47.2086 100.874 46.554 101.129C46.554 101.129 46.554 101.163 46.554 101.16C47.2473 100.998 47.9164 100.932 48.6028 100.816C48.6117 100.812 48.6194 100.805 48.6249 100.797C48.6304 100.789 48.6335 100.78 48.6339 100.77C48.6342 100.76 48.6318 100.751 48.6269 100.742C48.622 100.734 48.6149 100.727 48.6062 100.723Z" fill="white"/>
<path d="M47.1709 97.7648C46.8791 97.7625 46.5878 97.7878 46.3008 97.8405C46.2955 97.8424 46.2909 97.846 46.2877 97.8506C46.2844 97.8552 46.2827 97.8607 46.2827 97.8663C46.2827 97.8719 46.2844 97.8774 46.2877 97.882C46.2909 97.8866 46.2955 97.8901 46.3008 97.8921C46.5914 97.9088 46.8829 97.8961 47.1709 97.8542C47.1829 97.8542 47.1943 97.8495 47.2028 97.8412C47.2112 97.8328 47.216 97.8214 47.216 97.8095C47.216 97.7977 47.2112 97.7863 47.2028 97.7779C47.1943 97.7695 47.1829 97.7648 47.1709 97.7648Z" fill="white"/>
<path d="M23.0915 93.5297C25.2579 94.2585 27.3339 95.229 29.2795 96.4227C31.2983 97.6957 33.049 99.3452 34.4345 101.28C37.3496 105.307 39.5815 109.779 41.0419 114.521C41.8564 117.146 42.359 119.857 42.5395 122.598C42.5357 122.615 42.5259 122.631 42.5117 122.643C42.4975 122.654 42.4798 122.66 42.4615 122.66C42.4433 122.66 42.4255 122.654 42.4113 122.643C42.3971 122.631 42.3873 122.615 42.3835 122.598C41.7716 117.845 40.4123 113.217 38.3553 108.882C36.3342 104.634 33.7862 100.114 29.8897 97.2999C27.7681 95.7691 25.383 94.7646 23.0049 93.7051C22.8801 93.6638 22.9667 93.4884 23.0915 93.5297Z" fill="#EBEBEB"/>
<path d="M39.4888 111.49C37.9827 110.13 36.3308 108.939 34.5627 107.936C31.8102 106.419 29.5742 105.422 28.8912 104.097C28.2083 102.773 30.3334 101.053 30.3334 101.053C30.3334 101.053 27.5254 102.429 26.3606 101.414C25.1958 100.399 22.7483 93.3818 22.7483 93.3818C22.7483 93.3818 29.2344 95.6694 33.28 100.31C37.3256 104.951 39.4888 111.49 39.4888 111.49Z" fill="#EBEBEB"/>
<path d="M34.1051 105.03C33.4674 104.985 32.8271 105.064 32.2192 105.26C32.2192 105.26 32.2192 105.291 32.2192 105.288C32.8394 105.182 33.4659 105.118 34.0947 105.095C34.1398 105.095 34.1502 105.033 34.1051 105.03Z" fill="white"/>
<path d="M28.4474 97.6687C28.1565 97.6451 27.8638 97.6613 27.5773 97.7168C27.5461 97.7168 27.5565 97.7719 27.5773 97.7684C27.865 97.7375 28.1458 97.7478 28.4301 97.7409C28.4389 97.7413 28.4476 97.7386 28.4547 97.7333C28.4617 97.728 28.4667 97.7204 28.4687 97.7119C28.4708 97.7034 28.4698 97.6944 28.4659 97.6865C28.462 97.6786 28.4555 97.6723 28.4474 97.6687Z" fill="white"/>
<path d="M47.8538 131.47H33.2141L35.301 116.296L35.8349 112.405H45.233L45.7669 116.296L47.8538 131.47Z" fill="#DBDBDB"/>
<path d="M45.7669 116.296H35.301L35.8349 112.405H45.233L45.7669 116.296Z" fill="#C7C7C7"/>
<path d="M46.5746 111.057H34.4897V114.352H46.5746V111.057Z" fill="#DBDBDB"/>
<path d="M23.9062 131.47L50.2564 131.387L76.6065 131.356L129.307 131.298L182.007 131.356L208.357 131.387L234.707 131.47L208.357 131.556L182.007 131.583L129.307 131.642L76.6065 131.583L50.2564 131.552L23.9062 131.47Z" fill="#263238"/>
<path d="M130 157.108C184.899 157.108 229.403 152.269 229.403 146.3C229.403 140.33 184.899 135.491 130 135.491C75.101 135.491 30.5967 140.33 30.5967 146.3C30.5967 152.269 75.101 157.108 130 157.108Z" fill="#EBEBEB"/>
<path d="M183.035 148.624H77.4128L92.6835 62.6758H198.306L183.035 148.624Z" fill="#F15733"/>
<path d="M128.834 53.7734H94.2679L92.6836 62.6762H129.676L128.834 53.7734Z" fill="#F15733"/>
<g opacity="0.1">
<path opacity="0.1" d="M183.035 148.624H77.4128L92.6835 62.6758H198.306L183.035 148.624Z" fill="black"/>
<path opacity="0.1" d="M128.834 53.7734H94.2679L92.6836 62.6762H129.676L128.834 53.7734Z" fill="black"/>
</g>
<path d="M90.5376 57.4059C90.3065 56.4215 90.3065 55.3975 90.5376 54.4131C90.7688 55.3975 90.7688 56.4215 90.5376 57.4059Z" fill="#263238"/>
<path d="M87.4661 58.2871C87.1131 57.9239 86.809 57.5169 86.5613 57.0762C86.3015 56.6447 86.0976 56.1824 85.9546 55.7002C86.3086 56.0613 86.6129 56.4673 86.8594 56.9076C87.1186 57.3406 87.3224 57.804 87.4661 58.2871Z" fill="#263238"/>
<path d="M85.2474 60.5745C84.2733 60.2806 83.3802 59.7687 82.637 59.0781C83.123 59.2183 83.589 59.4194 84.0236 59.6767C84.4677 59.924 84.8789 60.2257 85.2474 60.5745Z" fill="#263238"/>
<path d="M84.4711 63.6564C83.479 63.8858 82.4471 63.8858 81.4551 63.6564C82.4471 63.427 83.479 63.427 84.4711 63.6564Z" fill="#263238"/>
<path d="M85.3723 66.7041C85.0047 67.0525 84.5948 67.3542 84.152 67.6019C83.7174 67.8592 83.2514 68.0603 82.7654 68.2005C83.1314 67.8502 83.5416 67.5484 83.9857 67.3027C84.4197 67.0442 84.8858 66.843 85.3723 66.7041Z" fill="#263238"/>
<path d="M87.6743 68.9023C87.3791 69.8704 86.8631 70.758 86.1663 71.4961C86.3074 71.0132 86.5114 70.5507 86.7729 70.1201C87.02 69.6778 87.3229 69.2686 87.6743 68.9023Z" fill="#263238"/>
<path d="M90.7802 69.6621C90.9011 70.1517 90.9593 70.6545 90.9536 71.1585C90.961 71.6626 90.9028 72.1656 90.7802 72.6549C90.656 72.1659 90.5977 71.6627 90.6069 71.1585C90.6011 70.6545 90.6594 70.1517 90.7802 69.6621Z" fill="#263238"/>
<path d="M93.8516 68.7989C94.2045 69.1621 94.5087 69.5691 94.7564 70.0098C95.0168 70.4405 95.2196 70.903 95.3596 71.3858C94.6627 70.6477 94.1467 69.7601 93.8516 68.792V68.7989Z" fill="#263238"/>
<path d="M96.0669 66.4941C96.5534 66.633 97.0195 66.8342 97.4536 67.0927C97.8976 67.3385 98.3078 67.6403 98.6738 67.9905C98.1873 67.8517 97.7212 67.6505 97.2872 67.392C96.8431 67.1462 96.4329 66.8444 96.0669 66.4941Z" fill="#263238"/>
<path d="M96.833 63.4122C97.8262 63.1829 98.8592 63.1829 99.8525 63.4122C98.8592 63.6415 97.8262 63.6415 96.833 63.4122Z" fill="#263238"/>
<path d="M95.9457 60.3646C96.3126 60.0164 96.7227 59.7159 97.1659 59.4702C97.5991 59.2092 98.0655 59.0068 98.5526 58.8682C97.8088 59.5597 96.9143 60.0717 95.9387 60.3646H95.9457Z" fill="#263238"/>
<path d="M93.6404 58.166C93.7831 57.6842 93.9857 57.222 94.2436 56.79C94.4913 56.3493 94.7954 55.9423 95.1484 55.5791C95.0084 56.0618 94.8056 56.5244 94.5452 56.9551C94.2975 57.3958 93.9934 57.8028 93.6404 58.166Z" fill="#263238"/>
<path d="M182.879 148.624H77.0315L62 65.7959H167.851L182.879 148.624Z" fill="#F15733"/>
<path d="M98.6809 116.43C101.111 116.43 103.08 114.476 103.08 112.065C103.08 109.654 101.111 107.699 98.6809 107.699C96.2513 107.699 94.2817 109.654 94.2817 112.065C94.2817 114.476 96.2513 116.43 98.6809 116.43Z" fill="#263238"/>
<path d="M133.459 116.43C135.888 116.43 137.858 114.476 137.858 112.065C137.858 109.654 135.888 107.699 133.459 107.699C131.029 107.699 129.059 109.654 129.059 112.065C129.059 114.476 131.029 116.43 133.459 116.43Z" fill="#263238"/>
<path d="M122.389 117.128L122.147 116.67C122.126 116.629 119.852 112.46 115.279 112.46C111.119 112.46 110.079 116.385 110.051 116.553L109.927 117.052L108.918 116.811L109.039 116.309C109.039 116.261 110.28 111.428 115.279 111.428C120.479 111.428 122.965 115.996 123.069 116.192L123.311 116.646L122.389 117.128Z" fill="#263238"/>
<path d="M192.646 111.731L192.573 111.387C192.799 111.339 193.02 111.287 193.242 111.229L193.329 111.573C193.093 111.631 192.875 111.683 192.646 111.731Z" fill="#263238"/>
<path d="M194.671 111.177L194.56 110.854C194.993 110.706 195.426 110.544 195.846 110.369L195.981 110.685C195.555 110.864 195.114 111.029 194.671 111.177ZM197.253 110.08L197.097 109.777C197.503 109.567 197.908 109.34 198.293 109.089L198.473 109.382C198.078 109.653 197.666 109.884 197.253 110.08ZM199.638 108.625L199.434 108.346C199.808 108.075 200.169 107.789 200.508 107.497L200.737 107.755C200.373 108.068 200.027 108.36 199.635 108.639L199.638 108.625ZM201.753 106.795L201.5 106.557C201.819 106.213 202.12 105.869 202.398 105.525L202.672 105.735C202.384 106.114 202.075 106.468 201.76 106.809L201.753 106.795ZM203.469 104.593L203.174 104.411C203.414 104.027 203.627 103.627 203.812 103.214L204.131 103.355C203.935 103.785 203.713 104.203 203.465 104.607L203.469 104.593ZM204.616 102.041L204.27 101.944C204.396 101.513 204.49 101.072 204.551 100.627L204.897 100.672C204.84 101.139 204.745 101.602 204.613 102.055L204.616 102.041ZM205.001 99.2887H204.655V99.189C204.655 98.7727 204.63 98.3496 204.589 97.9334L204.935 97.899C204.981 98.3275 205.004 98.7581 205.005 99.189L205.001 99.2887ZM204.377 96.5952C204.284 96.1517 204.168 95.7131 204.031 95.2811L204.377 95.1779C204.519 95.6251 204.641 96.0792 204.724 96.523L204.377 96.5952ZM203.556 94.0049C203.389 93.599 203.209 93.1827 202.987 92.7631L203.299 92.6083C203.511 93.0348 203.705 93.4614 203.875 93.8742L203.556 94.0049ZM202.342 91.5522C202.127 91.1772 201.892 90.7816 201.649 90.3757L201.944 90.1934C202.197 90.6027 202.436 91.0018 202.637 91.3836L202.342 91.5522ZM200.893 89.2164C200.64 88.838 200.384 88.4562 200.12 88.0743L200.408 87.8817C200.671 88.2635 200.928 88.6454 201.181 89.0307L200.893 89.2164ZM199.333 86.9391C199.073 86.5607 198.81 86.1789 198.553 85.8005L198.841 85.6079C199.097 85.9863 199.357 86.3681 199.617 86.7431L199.333 86.9391ZM197.784 84.6481C197.531 84.2628 197.284 83.8707 197.042 83.4785L197.336 83.2996C197.579 83.6918 197.825 84.0771 198.075 84.4623L197.784 84.6481ZM196.338 82.2848C196.102 81.8686 195.884 81.4558 195.686 81.0602L195.998 80.9054C196.192 81.2975 196.411 81.7035 196.64 82.1163L196.338 82.2848ZM195.107 79.808C194.924 79.378 194.761 78.9411 194.608 78.5146L194.955 78.4045C195.1 78.8207 195.263 79.2507 195.444 79.6739L195.107 79.808ZM194.206 77.1833C194.092 76.7361 193.991 76.2786 193.915 75.8073L194.261 75.7523C194.338 76.1926 194.431 76.6398 194.546 77.0801L194.206 77.1833ZM193.741 74.4313C193.707 74.0082 193.689 73.5816 193.689 73.1551V73.0415H194.036V73.1516C194.036 73.5679 194.036 73.9875 194.088 74.4003L193.741 74.4313ZM194.088 71.6793L193.741 71.6449C193.741 71.552 193.759 71.4557 193.769 71.3559C193.811 70.9879 193.863 70.6198 193.925 70.2689L194.272 70.3274C194.213 70.6714 194.161 71.0326 194.119 71.3938C194.133 71.5004 194.133 71.5933 194.105 71.6896L194.088 71.6793ZM194.57 69.003L194.223 68.9101C194.352 68.456 194.501 68.0123 194.667 67.5891L194.989 67.713C194.832 68.1389 194.698 68.573 194.587 69.0133L194.57 69.003ZM211.844 66.9975C211.65 66.9975 211.449 66.9699 211.252 66.9424C210.981 66.9046 210.711 66.8599 210.444 66.8083L210.513 66.4643C210.77 66.5124 211.037 66.5571 211.3 66.595C211.487 66.6191 211.678 66.6363 211.862 66.6466L211.844 66.9975ZM213.269 66.8908L213.196 66.5468C213.631 66.4577 214.049 66.2972 214.431 66.0721L214.611 66.3645C214.203 66.6152 213.755 66.7966 213.287 66.9011L213.269 66.8908ZM195.568 66.4815L195.26 66.3198C195.481 65.9095 195.725 65.5121 195.991 65.1295L196.276 65.3256C196.022 65.7002 195.792 66.0897 195.586 66.4918L195.568 66.4815ZM209.088 66.4608C208.641 66.3199 208.201 66.1557 207.771 65.9689L207.913 65.6524C208.33 65.8362 208.757 65.9958 209.192 66.1306L209.088 66.4608ZM215.675 65.3875L215.387 65.1949C215.634 64.8396 215.78 64.4249 215.81 63.9943L216.157 64.0184C216.127 64.5119 215.965 64.9884 215.685 65.3979L215.675 65.3875ZM206.523 65.3359C206.117 65.1019 205.725 64.8458 205.348 64.5688L205.552 64.2936C205.919 64.5623 206.301 64.8103 206.696 65.0367L206.523 65.3359ZM197.128 64.2627L196.872 64.0322C197.186 63.6858 197.52 63.3584 197.874 63.0518L198.103 63.3098C197.762 63.6117 197.441 63.9334 197.139 64.273L197.128 64.2627ZM204.266 63.6813C203.921 63.3657 203.594 63.0315 203.285 62.6803L203.545 62.4532C203.845 62.7944 204.163 63.1194 204.499 63.4267L204.266 63.6813ZM215.55 62.7491C215.352 62.3559 215.077 62.0053 214.743 61.7171L214.971 61.4591C215.34 61.7752 215.642 62.1597 215.862 62.5908L215.55 62.7491ZM199.181 62.4773L198.983 62.1952C199.371 61.9325 199.772 61.6902 200.186 61.4694L200.349 61.7721C199.951 61.9905 199.564 62.2293 199.191 62.4876L199.181 62.4773ZM202.419 61.5829C202.287 61.3971 202.159 61.2079 202.037 61.0119L201.587 61.1873L201.455 60.8708L201.853 60.7126C201.791 60.6094 201.729 60.5062 201.67 60.403L201.971 60.2344C202.041 60.3548 202.11 60.4752 202.183 60.5784C202.377 60.5096 202.575 60.4443 202.776 60.3823L202.876 60.7263C202.706 60.7779 202.529 60.833 202.37 60.8915C202.477 61.06 202.588 61.2355 202.717 61.3834L202.419 61.5829ZM213.626 60.9912C213.291 60.8253 212.943 60.685 212.586 60.5715L212.357 60.4993L212.458 60.1553L212.694 60.231C213.065 60.3484 213.427 60.4945 213.775 60.6679L213.626 60.9912ZM204.204 60.3755L204.131 60.0315C204.578 59.9317 205.043 59.8491 205.518 59.7838L205.57 60.1278C205.112 60.2 204.658 60.286 204.214 60.3858L204.204 60.3755ZM211.033 60.1897C210.6 60.114 210.142 60.0555 209.674 60.0143L209.702 59.6703C210.184 59.7115 210.652 59.77 211.089 59.8491L211.033 60.1897ZM206.925 59.9902L206.901 59.6462C207.313 59.6221 207.726 59.6083 208.135 59.6083H208.305V59.9523H208.139C207.747 59.9627 207.338 59.973 206.936 60.0005L206.925 59.9902ZM201.067 59.168C200.879 58.7483 200.72 58.3115 200.564 57.8677L200.911 57.7611C201.056 58.1945 201.219 58.6211 201.399 59.0304L201.067 59.168ZM200.189 56.5261C200.085 56.0823 199.999 55.6214 199.933 55.1501L200.28 55.1019C200.345 55.556 200.429 56.0067 200.529 56.4435L200.189 56.5261ZM199.801 53.7741C199.784 53.4645 199.773 53.148 199.773 52.8315C199.773 52.6836 199.773 52.5323 199.773 52.3843H200.12C200.12 52.5323 200.12 52.6767 200.12 52.8247C200.12 53.1343 200.12 53.4473 200.144 53.7466L199.801 53.7741ZM200.214 51.0221L199.867 50.9877C199.916 50.5336 199.981 50.0692 200.061 49.6117L200.408 49.6702C200.314 50.1277 200.248 50.568 200.203 51.029L200.214 51.0221ZM200.689 48.3355L200.342 48.2529C200.453 47.8091 200.581 47.3619 200.723 46.9147L201.07 47.0214C200.914 47.472 200.786 47.9089 200.678 48.3423L200.689 48.3355ZM201.521 45.7314L201.198 45.6075C201.368 45.1775 201.545 44.7475 201.756 44.3313L202.068 44.4827C201.86 44.8955 201.677 45.3151 201.51 45.752L201.521 45.7314ZM202.713 43.2787L202.412 43.1032C202.647 42.7076 202.9 42.312 203.164 41.9336L203.448 42.1297C203.178 42.5081 202.932 42.8934 202.703 43.2855L202.713 43.2787ZM204.277 41.0392L204.006 40.8225C204.297 40.4785 204.609 40.1139 204.932 39.7905L205.181 40.0279C204.856 40.3512 204.551 40.6952 204.266 41.0461L204.277 41.0392ZM206.163 39.0578L205.93 38.8032C206.277 38.4971 206.624 38.1943 206.995 37.9019L207.209 38.1737C206.839 38.4661 206.485 38.7654 206.152 39.0647L206.163 39.0578ZM208.315 37.3584L208.118 37.0729C208.496 36.8149 208.891 36.5603 209.293 36.3195L209.47 36.6119C209.068 36.8562 208.693 37.1073 208.305 37.3653L208.315 37.3584ZM210.669 35.9377L210.506 35.635C210.915 35.4183 211.338 35.2119 211.761 35.0192L211.907 35.3323C211.467 35.5283 211.061 35.7347 210.659 35.9446L210.669 35.9377ZM213.176 34.7956L213.047 34.4723C213.484 34.3037 213.924 34.1283 214.361 34.001L214.472 34.345C214.032 34.4757 213.595 34.6339 213.165 34.8025L213.176 34.7956Z" fill="#263238"/>
<path d="M215.848 33.9251L215.762 33.5811C216.192 33.471 216.455 33.4229 216.455 33.4229L216.517 33.7669C216.517 33.7669 216.268 33.8185 215.848 33.9251Z" fill="#263238"/>
<path d="M221.978 31.7036C221.094 28.986 215.172 29.963 216.327 33.5165C217.481 37.07 222.862 34.4247 221.978 31.7036Z" fill="#263238"/>
<path d="M213.106 30.616C213.151 29.4223 214.822 28.5039 217.187 28.927C219.551 29.3501 221.773 30.9325 221.773 30.9325C221.773 30.9325 219.44 32.336 217.051 32.594C214.663 32.852 213.061 31.8063 213.106 30.616Z" fill="#EBEBEB"/>
<path d="M221.773 30.9255C220.546 30.9255 219.322 30.8911 218.098 30.8533C216.875 30.8155 215.647 30.7535 214.424 30.6572C215.651 30.6572 216.878 30.6882 218.102 30.726C219.325 30.7639 220.553 30.8258 221.773 30.9255Z" fill="#263238"/>
<path d="M215.481 29.5537C216.178 29.8844 216.835 30.2918 217.44 30.768C217.091 30.6057 216.753 30.4219 216.427 30.2176C216.099 30.0148 215.783 29.7931 215.481 29.5537Z" fill="#263238"/>
<path d="M218.695 30.8125C218.067 31.3168 217.388 31.7528 216.667 32.1128C217.297 31.6079 217.98 31.1719 218.705 30.8125H218.695Z" fill="#263238"/>
<path d="M219.052 30.1416C219.402 30.3083 219.708 30.5532 219.946 30.8571C219.771 30.7752 219.607 30.6724 219.457 30.551C219.307 30.4303 219.171 30.293 219.052 30.1416Z" fill="#263238"/>
<path d="M215.36 37.6847C216.098 38.6273 217.994 38.4003 219.662 36.6871C221.329 34.974 222.213 32.3975 222.213 32.3975C222.213 32.3975 219.481 32.6039 217.398 33.7735C215.315 34.9431 214.618 36.7387 215.36 37.6847Z" fill="#EBEBEB"/>
<path d="M222.213 32.3975C221.215 33.0855 220.244 33.8491 219.27 34.5887C218.296 35.3283 217.343 36.092 216.41 36.8798C217.409 36.1918 218.379 35.4315 219.35 34.6919C220.321 33.9523 221.267 33.1887 222.213 32.3975Z" fill="#263238"/>
<path d="M217.908 37.1522C218.093 36.8181 218.259 36.4735 218.403 36.1202C218.551 35.766 218.676 35.4029 218.778 35.0332C218.592 35.3671 218.426 35.7117 218.282 36.0652C218.136 36.42 218.011 36.7829 217.908 37.1522Z" fill="#263238"/>
<path d="M219.787 34.276C218.975 34.233 218.162 34.2756 217.36 34.4033C217.764 34.4273 218.169 34.4273 218.573 34.4033C218.98 34.3836 219.385 34.3411 219.787 34.276Z" fill="#263238"/>
<path d="M220.456 34.6169C220.548 34.447 220.62 34.2669 220.67 34.0803C220.722 33.895 220.752 33.7046 220.761 33.5127C220.576 33.8532 220.472 34.2307 220.456 34.6169Z" fill="#263238"/>
<path d="M221.977 31.703C221.782 31.7661 221.571 31.7701 221.373 31.7145C221.175 31.659 220.998 31.5463 220.865 31.3909C220.731 31.2354 220.647 31.0441 220.623 30.8412C220.599 30.6384 220.637 30.433 220.73 30.2512C220.824 30.0694 220.97 29.9192 221.15 29.8199C221.33 29.7205 221.536 29.6763 221.741 29.6929C221.946 29.7095 222.141 29.7861 222.303 29.9131C222.464 30.04 222.584 30.2116 222.646 30.4061C222.731 30.6661 222.707 30.9486 222.582 31.1917C222.457 31.4348 222.239 31.6187 221.977 31.703Z" fill="#455A64"/>
<path d="M222.615 33.6672C222.42 33.73 222.21 33.7339 222.012 33.6783C221.814 33.6227 221.637 33.5101 221.504 33.3548C221.37 33.1994 221.286 33.0084 221.262 32.8057C221.238 32.603 221.275 32.3978 221.369 32.216C221.462 32.0343 221.608 31.8841 221.788 31.7845C221.967 31.6849 222.172 31.6404 222.377 31.6566C222.582 31.6727 222.778 31.7488 222.939 31.8752C223.101 32.0017 223.221 32.1728 223.284 32.3669C223.327 32.4958 223.343 32.6318 223.332 32.767C223.321 32.9021 223.284 33.0339 223.221 33.1546C223.159 33.2754 223.074 33.3828 222.97 33.4707C222.866 33.5587 222.745 33.6255 222.615 33.6672Z" fill="#455A64"/>
</svg>
