<svg width="20" height="20" viewBox="0 0 20 20" fill="none" xmlns="http://www.w3.org/2000/svg">
<path d="M14.0522 5.04253H10.4877C10.1483 5.04253 9.87319 4.75553 9.87319 4.40153V0.823848C9.83386 0.685863 9.83927 0.534888 9.89429 0.396091C9.9893 0.156402 10.2135 0 10.4622 0H10.4877C10.7109 0 10.9062 0.124011 11.0139 0.309557L14.4862 3.92151C14.6018 4.04176 14.6668 4.20509 14.6668 4.37538V4.40153C14.6668 4.75553 14.3916 5.04253 14.0522 5.04253ZM11.1023 3.76054H12.5908L11.1023 2.2122V3.76054Z" fill="white"/>
<path d="M11.3112 9.31592H4.79688V10.5979H11.3112V9.31592Z" fill="white"/>
<path d="M3.77018 9.31592H2.58203V10.5979H3.77018V9.31592Z" fill="white"/>
<path d="M11.3112 6.49561H4.79688V7.77759H11.3112V6.49561Z" fill="white"/>
<path d="M3.77018 6.49561H2.58203V7.77759H3.77018V6.49561Z" fill="white"/>
<path d="M9.26268 12.1367H4.79688V13.4187H9.26268V12.1367Z" fill="white"/>
<path d="M3.77018 12.1367H2.58203V13.4187H3.77018V12.1367Z" fill="white"/>
<path d="M7.82628 3.76074H2.58203V5.04273H7.82628V3.76074Z" fill="white"/>
<path d="M5.86242 17.6182C5.85234 17.6182 5.8423 17.6179 5.83218 17.6174C5.61188 17.6061 5.41424 17.4725 5.31435 17.2674L4.93111 16.4801L4.48002 17.2877C4.36994 17.4848 4.16771 17.6061 3.949 17.6061H2.41797V16.3241H3.59584L4.43721 14.8177C4.55049 14.6149 4.76158 14.4944 4.98597 14.4997C5.21094 14.5065 5.41432 14.641 5.51622 14.8502L5.92318 15.6862L6.15167 15.3128C6.26373 15.1296 6.45715 15.0181 6.66548 15.0165C6.66692 15.0165 6.66835 15.0165 6.66979 15.0165C6.87648 15.0165 7.06946 15.1249 7.18319 15.3052L7.82573 16.3241H9.13717V17.6061H7.4944C7.28758 17.6061 7.09465 17.4976 6.981 17.3174L6.67753 16.8363L6.38041 17.3219C6.26721 17.507 6.07153 17.6182 5.86242 17.6182Z" fill="white"/>
<path d="M10.7818 17.6873C10.6756 17.6873 10.5695 17.6586 10.4744 17.6012C10.2856 17.4875 10.1687 17.2779 10.1673 17.0505L10.1485 14.0766C10.1477 13.9625 10.1762 13.8503 10.231 13.7515L15.4164 4.39925C15.8122 3.68531 16.6918 3.43969 17.3772 3.85172L18.4562 4.50044C18.7887 4.70035 19.0264 5.02319 19.1257 5.40954C19.2249 5.79563 19.1738 6.1989 18.9819 6.54491L13.7965 15.8973C13.7418 15.9959 13.6629 16.0776 13.5679 16.1338L11.0852 17.6037C10.9911 17.6594 10.8865 17.6873 10.7818 17.6873ZM11.3786 14.2424L11.3895 15.9494L12.8161 15.1048L17.9179 5.90315C17.9548 5.83653 17.9466 5.7732 17.9384 5.74132C17.9302 5.70931 17.9068 5.64983 17.8424 5.61116L16.7633 4.96243C16.6643 4.90277 16.5373 4.93816 16.4804 5.04097L11.3786 14.2424Z" fill="white"/>
<path d="M14.053 20H0.614561C0.275159 20 0 19.713 0 19.359V0.64197C0 0.287971 0.275159 0.000976562 0.614561 0.000976562H10.4885V1.28296H1.22912V18.718H13.4384V14.1795H14.6675V19.359C14.6675 19.713 14.3924 20 14.053 20Z" fill="white"/>
<path d="M14.6666 4.40137H13.4375V8.16272H14.6666V4.40137Z" fill="white"/>
<path d="M15.5045 5.52109L14.8906 6.63184L17.3922 8.13581L18.0061 7.02506L15.5045 5.52109Z" fill="white"/>
<path d="M13.1355 14.9836C12.8693 14.2025 12.1078 13.7451 11.3244 13.8954L11.1016 12.6347C12.4816 12.3693 13.8242 13.1766 14.2936 14.5543L13.1355 14.9836Z" fill="white"/>
</svg>
