<svg width="28" height="30" viewBox="0 0 28 30" fill="none" xmlns="http://www.w3.org/2000/svg">
<path d="M23.1607 19.8337C22.4372 19.18 21.5024 18.8192 20.5283 18.8192C19.4202 18.8192 18.3588 19.2914 17.6161 20.112L16.7617 21.0559C16.3971 21.4594 16.1249 21.9235 15.9522 22.4363L15.8758 22.6646L15.6516 22.5761C11.8426 21.0722 8.73885 18.2235 6.91158 14.5548L6.79068 14.3124L7.05069 14.2342C7.73368 14.0288 8.34758 13.6394 8.82772 13.1084L9.68122 12.1651C10.3852 11.387 10.7435 10.3818 10.6905 9.33456C10.6383 8.28731 10.1808 7.32296 9.40331 6.61987L7.96229 5.31733C7.23879 4.6626 6.30427 4.30273 5.33019 4.30273C4.22202 4.30273 3.16032 4.77313 2.41736 5.59429L1.56354 6.53948C1.45458 6.66007 1.34907 6.79258 1.24984 6.93609L1.21059 6.97942C0.404504 7.66869 -0.281311 9.34586 0.116236 11.3999C1.95104 20.9548 10.0003 28.2353 19.6918 29.1042C20.9633 29.2201 22.16 28.9572 23.0672 28.3998C23.4305 28.1898 23.7508 27.9316 24.0259 27.627L24.88 26.6825C26.3317 25.0769 26.207 22.5896 24.6018 21.1379L23.1607 19.8337Z" fill="black"/>
<path d="M14.5361 0.868652C14.0306 0.868652 13.6211 1.27876 13.6211 1.78433C13.6211 2.28927 14.0309 2.69906 14.5361 2.69906C20.9506 2.69906 26.1692 7.91804 26.1692 14.3325C26.1692 14.8374 26.579 15.2472 27.0846 15.2472C27.5899 15.2472 27.9993 14.8377 27.9993 14.3325C27.9993 6.90816 21.9598 0.868652 14.5361 0.868652Z" fill="black"/>
<path d="M21.6905 14.4793C21.6905 14.9848 22.1003 15.3943 22.6055 15.3943C23.1108 15.3943 23.5206 14.9845 23.5206 14.4793C23.5206 9.44399 19.4236 5.34668 14.3874 5.34668C13.8821 5.34668 13.4727 5.75616 13.4727 6.2611C13.4727 6.76667 13.8821 7.17615 14.3874 7.17615C18.415 7.17615 21.6905 10.452 21.6905 14.4793Z" fill="black"/>
</svg>
