<svg width="116" height="36" viewBox="0 0 116 36" fill="none" xmlns="http://www.w3.org/2000/svg">
<path d="M0 12C0 5.37258 5.37258 0 12 0H104C110.627 0 116 5.37258 116 12V24C116 30.6274 110.627 36 104 36H12C5.37258 36 0 30.6274 0 24V12Z" fill="#F5F5F5"/>
<path fill-rule="evenodd" clip-rule="evenodd" d="M20.0005 10C15.5825 10 12 13.5816 12 18.0005C12 21.2754 13.97 24.0902 16.7896 25.3273C16.767 24.7694 16.7858 24.0977 16.9279 23.49C17.0821 22.8408 17.9571 19.1313 17.9571 19.1313C17.9571 19.1313 17.7021 18.6205 17.7021 17.865C17.7021 16.6796 18.3898 15.7943 19.245 15.7943C19.9722 15.7943 20.3241 16.3409 20.3241 16.9957C20.3241 17.7267 19.8575 18.8208 19.6176 19.8341C19.4172 20.6836 20.0428 21.3751 20.8801 21.3751C22.3957 21.3751 23.4165 19.4286 23.4165 17.1218C23.4165 15.3691 22.2358 14.0567 20.088 14.0567C17.6617 14.0567 16.1498 15.8658 16.1498 17.8866C16.1498 18.5847 16.3549 19.0758 16.6767 19.4559C16.8253 19.6318 16.8451 19.7014 16.7914 19.9027C16.7538 20.0486 16.6654 20.4042 16.6287 20.5444C16.5751 20.7466 16.4114 20.82 16.2288 20.7448C15.1102 20.2885 14.59 19.0645 14.59 17.6881C14.59 15.4161 16.5064 12.6897 20.3072 12.6897C23.3619 12.6897 25.3724 14.9015 25.3724 17.2732C25.3724 20.4117 23.6282 22.7562 21.0551 22.7562C20.1924 22.7562 19.3795 22.2895 19.1011 21.7599C19.1011 21.7599 18.6363 23.6029 18.5385 23.9585C18.3691 24.5747 18.037 25.1919 17.7332 25.6717C18.4529 25.8843 19.213 26 20.0005 26C24.4184 26 28 22.4184 28 18.0005C28 13.5816 24.4184 10 20.0005 10" fill="#151515"/>
<path d="M42.955 16.36C42.955 16.97 42.815 17.53 42.535 18.04C42.255 18.54 41.825 18.945 41.245 19.255C40.665 19.565 39.945 19.72 39.085 19.72H37.495V23.5H34.93V12.97H39.085C39.925 12.97 40.635 13.115 41.215 13.405C41.795 13.695 42.23 14.095 42.52 14.605C42.81 15.115 42.955 15.7 42.955 16.36ZM38.89 17.68C39.38 17.68 39.745 17.565 39.985 17.335C40.225 17.105 40.345 16.78 40.345 16.36C40.345 15.94 40.225 15.615 39.985 15.385C39.745 15.155 39.38 15.04 38.89 15.04H37.495V17.68H38.89ZM45.5804 14.26C45.1304 14.26 44.7604 14.13 44.4704 13.87C44.1904 13.6 44.0504 13.27 44.0504 12.88C44.0504 12.48 44.1904 12.15 44.4704 11.89C44.7604 11.62 45.1304 11.485 45.5804 11.485C46.0204 11.485 46.3804 11.62 46.6604 11.89C46.9504 12.15 47.0954 12.48 47.0954 12.88C47.0954 13.27 46.9504 13.6 46.6604 13.87C46.3804 14.13 46.0204 14.26 45.5804 14.26ZM46.8554 15.13V23.5H44.2904V15.13H46.8554ZM53.8142 15.04C54.7942 15.04 55.5742 15.36 56.1542 16C56.7442 16.63 57.0392 17.5 57.0392 18.61V23.5H54.4892V18.955C54.4892 18.395 54.3442 17.96 54.0542 17.65C53.7642 17.34 53.3742 17.185 52.8842 17.185C52.3942 17.185 52.0042 17.34 51.7142 17.65C51.4242 17.96 51.2792 18.395 51.2792 18.955V23.5H48.7142V15.13H51.2792V16.24C51.5392 15.87 51.8892 15.58 52.3292 15.37C52.7692 15.15 53.2642 15.04 53.8142 15.04ZM63.4866 21.325V23.5H62.1816C61.2516 23.5 60.5266 23.275 60.0066 22.825C59.4866 22.365 59.2266 21.62 59.2266 20.59V17.26H58.2066V15.13H59.2266V13.09H61.7916V15.13H63.4716V17.26H61.7916V20.62C61.7916 20.87 61.8516 21.05 61.9716 21.16C62.0916 21.27 62.2916 21.325 62.5716 21.325H63.4866ZM72.8054 19.18C72.8054 19.42 72.7904 19.67 72.7604 19.93H66.9554C66.9954 20.45 67.1604 20.85 67.4504 21.13C67.7504 21.4 68.1154 21.535 68.5454 21.535C69.1854 21.535 69.6304 21.265 69.8804 20.725H72.6104C72.4704 21.275 72.2154 21.77 71.8454 22.21C71.4854 22.65 71.0304 22.995 70.4804 23.245C69.9304 23.495 69.3154 23.62 68.6354 23.62C67.8154 23.62 67.0854 23.445 66.4454 23.095C65.8054 22.745 65.3054 22.245 64.9454 21.595C64.5854 20.945 64.4054 20.185 64.4054 19.315C64.4054 18.445 64.5804 17.685 64.9304 17.035C65.2904 16.385 65.7904 15.885 66.4304 15.535C67.0704 15.185 67.8054 15.01 68.6354 15.01C69.4454 15.01 70.1654 15.18 70.7954 15.52C71.4254 15.86 71.9154 16.345 72.2654 16.975C72.6254 17.605 72.8054 18.34 72.8054 19.18ZM70.1804 18.505C70.1804 18.065 70.0304 17.715 69.7304 17.455C69.4304 17.195 69.0554 17.065 68.6054 17.065C68.1754 17.065 67.8104 17.19 67.5104 17.44C67.2204 17.69 67.0404 18.045 66.9704 18.505H70.1804ZM76.7235 16.525C77.0235 16.065 77.3985 15.705 77.8485 15.445C78.2985 15.175 78.7985 15.04 79.3485 15.04V17.755H78.6435C78.0035 17.755 77.5235 17.895 77.2035 18.175C76.8835 18.445 76.7235 18.925 76.7235 19.615V23.5H74.1585V15.13H76.7235V16.525ZM88.4645 19.18C88.4645 19.42 88.4495 19.67 88.4195 19.93H82.6145C82.6545 20.45 82.8195 20.85 83.1095 21.13C83.4095 21.4 83.7745 21.535 84.2045 21.535C84.8445 21.535 85.2895 21.265 85.5395 20.725H88.2695C88.1295 21.275 87.8745 21.77 87.5045 22.21C87.1445 22.65 86.6895 22.995 86.1395 23.245C85.5895 23.495 84.9745 23.62 84.2945 23.62C83.4745 23.62 82.7445 23.445 82.1045 23.095C81.4645 22.745 80.9645 22.245 80.6045 21.595C80.2445 20.945 80.0645 20.185 80.0645 19.315C80.0645 18.445 80.2395 17.685 80.5895 17.035C80.9495 16.385 81.4495 15.885 82.0895 15.535C82.7295 15.185 83.4645 15.01 84.2945 15.01C85.1045 15.01 85.8245 15.18 86.4545 15.52C87.0845 15.86 87.5745 16.345 87.9245 16.975C88.2845 17.605 88.4645 18.34 88.4645 19.18ZM85.8395 18.505C85.8395 18.065 85.6895 17.715 85.3895 17.455C85.0895 17.195 84.7145 17.065 84.2645 17.065C83.8345 17.065 83.4695 17.19 83.1695 17.44C82.8795 17.69 82.6995 18.045 82.6295 18.505H85.8395ZM93.2227 23.62C92.4927 23.62 91.8427 23.495 91.2727 23.245C90.7027 22.995 90.2527 22.655 89.9227 22.225C89.5927 21.785 89.4077 21.295 89.3677 20.755H91.9027C91.9327 21.045 92.0677 21.28 92.3077 21.46C92.5477 21.64 92.8427 21.73 93.1927 21.73C93.5127 21.73 93.7577 21.67 93.9277 21.55C94.1077 21.42 94.1977 21.255 94.1977 21.055C94.1977 20.815 94.0727 20.64 93.8227 20.53C93.5727 20.41 93.1677 20.28 92.6077 20.14C92.0077 20 91.5077 19.855 91.1077 19.705C90.7077 19.545 90.3627 19.3 90.0727 18.97C89.7827 18.63 89.6377 18.175 89.6377 17.605C89.6377 17.125 89.7677 16.69 90.0277 16.3C90.2977 15.9 90.6877 15.585 91.1977 15.355C91.7177 15.125 92.3327 15.01 93.0427 15.01C94.0927 15.01 94.9177 15.27 95.5177 15.79C96.1277 16.31 96.4777 17 96.5677 17.86H94.1977C94.1577 17.57 94.0277 17.34 93.8077 17.17C93.5977 17 93.3177 16.915 92.9677 16.915C92.6677 16.915 92.4377 16.975 92.2777 17.095C92.1177 17.205 92.0377 17.36 92.0377 17.56C92.0377 17.8 92.1627 17.98 92.4127 18.1C92.6727 18.22 93.0727 18.34 93.6127 18.46C94.2327 18.62 94.7377 18.78 95.1277 18.94C95.5177 19.09 95.8577 19.34 96.1477 19.69C96.4477 20.03 96.6027 20.49 96.6127 21.07C96.6127 21.56 96.4727 22 96.1927 22.39C95.9227 22.77 95.5277 23.07 95.0077 23.29C94.4977 23.51 93.9027 23.62 93.2227 23.62ZM102.847 21.325V23.5H101.542C100.612 23.5 99.887 23.275 99.367 22.825C98.847 22.365 98.587 21.62 98.587 20.59V17.26H97.567V15.13H98.587V13.09H101.152V15.13H102.832V17.26H101.152V20.62C101.152 20.87 101.212 21.05 101.332 21.16C101.452 21.27 101.652 21.325 101.932 21.325H102.847Z" fill="#151515"/>
</svg>
