<svg width="15" height="15" viewBox="0 0 15 15" fill="none" xmlns="http://www.w3.org/2000/svg">
<path fill-rule="evenodd" clip-rule="evenodd" d="M0.415363 5.729C0.415363 8.66302 2.79385 11.0415 5.72786 11.0415C6.95444 11.0415 8.08393 10.6258 8.98314 9.92764C9.01701 9.99929 9.06357 10.0664 9.12283 10.1257L13.3728 14.3757C13.6495 14.6523 14.0979 14.6523 14.3746 14.3757C14.6512 14.0991 14.6512 13.6506 14.3746 13.374L10.1246 9.12397C10.0653 9.06471 9.99815 9.01814 9.9265 8.98427C10.6247 8.08507 11.0404 6.95558 11.0404 5.729C11.0404 2.79499 8.66188 0.416504 5.72786 0.416504C2.79385 0.416504 0.415363 2.79499 0.415363 5.729ZM1.83203 5.729C1.83203 3.57739 3.57625 1.83317 5.72786 1.83317C7.87947 1.83317 9.6237 3.57739 9.6237 5.729C9.6237 7.88061 7.87947 9.62484 5.72786 9.62484C3.57625 9.62484 1.83203 7.88061 1.83203 5.729Z" fill="black"/>
</svg>
