<svg width="23" height="23" viewBox="0 0 23 23" fill="none" xmlns="http://www.w3.org/2000/svg">
<path d="M14.6956 16.1159L10.6695 17.9464V9.5309L16.7398 6.7714V11.8531C17.0411 11.7599 17.3561 11.6949 17.6887 11.6949C18.1719 11.6949 18.6267 11.8088 19.0392 12.0002L19.039 4.97788C19.039 4.51813 18.7629 4.10463 18.3496 3.92055L9.98023 0.103727C9.65855 -0.0345757 9.33636 -0.0345757 9.014 0.103727L0.689601 3.92055C0.275397 4.10464 0 4.51813 0 4.97788V15.9696C0 16.4284 0.275901 16.8424 0.689601 17.026L9.05955 20.8442C9.19762 20.9351 9.38171 20.9351 9.5193 20.9351C9.70434 20.9351 9.84099 20.8888 9.97976 20.8442L16.4373 17.8988C15.6435 17.5636 15.0156 16.9188 14.6955 16.1162L14.6956 16.1159ZM8.36922 17.9459L2.29988 15.186V6.7711L8.36922 9.53059V17.9459ZM9.51977 7.4613L3.95553 4.93198L9.51977 2.40241L15.0847 4.93198L9.51977 7.4613Z" fill="black"/>
<path fill-rule="evenodd" clip-rule="evenodd" d="M22.0482 18.0283C22.0357 18.051 21.9816 18.1177 21.9621 18.1426C21.8217 18.3198 19.6285 21.0658 18.4874 22.4877H18.4843C18.2217 22.8002 17.8301 22.9999 17.3893 22.9999C16.9502 22.9999 16.5563 22.8002 16.2935 22.4877H16.2895C15.1579 21.0854 12.9675 18.3386 12.7711 18.0845C12.7538 18.0631 12.7348 18.0399 12.7234 18.0169C12.1317 17.1284 11.7852 16.0621 11.7852 14.9139C11.7852 11.8202 14.2948 9.3098 17.3888 9.3098C20.4837 9.3098 22.9929 11.8199 22.9929 14.9139C22.9934 16.067 22.6449 17.1369 22.0482 18.0282L22.0482 18.0283ZM17.3866 12.7242C16.1786 12.7242 15.1998 13.704 15.1998 14.9118C15.1998 16.1188 16.1786 17.0988 17.3866 17.0988C18.5946 17.0988 19.5744 16.1186 19.5744 14.9118C19.5744 13.704 18.5946 12.7242 17.3866 12.7242Z" fill="black"/>
</svg>
