<svg width="882" height="121" viewBox="0 0 882 121" fill="none" xmlns="http://www.w3.org/2000/svg">
<g clip-path="url(#clip0_351_2998)">
<path d="M32.7016 66.2474V102.889C32.7016 107.707 34.62 112.328 38.0347 115.735C41.4494 119.141 46.0807 121.055 50.9098 121.055H39.2663C35.189 121.057 31.2292 119.693 28.0219 117.181C24.8147 114.67 22.5458 111.156 21.5793 107.204L0.543397 22.5471C-0.121256 19.8698 -0.166489 17.0767 0.411125 14.3794C0.988738 11.682 2.17405 9.15118 3.87727 6.97858C5.5805 4.80597 7.75696 3.04857 10.2418 1.83949C12.7267 0.630412 15.4547 0.00136739 18.2193 5.00997e-06H62.0987C65.4657 -0.00249171 68.7673 0.928242 71.6352 2.6884L94.3234 16.595V18.2546L41.3732 50.7698C38.7228 52.3956 36.5341 54.6718 35.0161 57.3813C33.498 60.0909 32.7012 63.1433 32.7016 66.2474Z" fill="#F15733"/>
<path d="M190.809 22.5471L169.74 107.204C168.761 111.145 166.487 114.645 163.281 117.145C160.075 119.646 156.122 121.003 152.053 121H140.432C145.252 121 149.876 119.094 153.291 115.7C156.706 112.305 158.633 107.699 158.651 102.889V66.2474C158.653 63.1414 157.857 60.0867 156.339 57.3751C154.821 54.6635 152.631 52.3855 149.979 50.7587L97.0291 18.2877V16.595L119.762 2.6884C122.624 0.935371 125.917 0.00505302 129.276 1.19542e-07H173.122C175.888 -0.000316293 178.617 0.627497 181.103 1.83585C183.589 3.04421 185.767 4.80139 187.472 6.97422C189.176 9.14704 190.363 11.6785 190.941 14.3766C191.519 17.0748 191.474 19.8689 190.809 22.5471Z" fill="#4FA6B4"/>
<path d="M158.651 66.2474V102.889C158.648 107.708 156.727 112.329 153.311 115.735C149.894 119.142 145.262 121.055 140.431 121.055H50.9096C46.0805 121.055 41.4492 119.141 38.0345 115.735C34.6198 112.328 32.7014 107.707 32.7014 102.889V66.2474C32.6991 63.1414 33.495 60.0867 35.0132 57.3751C36.5313 54.6634 38.721 52.3854 41.3731 50.7587L94.3232 18.2877V27.935C94.3241 28.0655 94.2945 28.1944 94.2367 28.3116C94.179 28.4287 94.0947 28.5308 93.9906 28.6098L74.9174 42.9922C74.7691 43.0962 74.6579 43.2445 74.5997 43.4157C74.5415 43.5869 74.5394 43.7721 74.5937 43.9446C74.6481 44.1171 74.756 44.2679 74.9019 44.3751C75.0478 44.4823 75.2241 44.5404 75.4053 44.5411H89.6547C89.8567 44.5416 90.0518 44.6145 90.2045 44.7465C90.3571 44.8785 90.4572 45.0608 90.4864 45.2602C90.669 46.5033 91.2938 47.6394 92.2467 48.4608C93.1995 49.2823 94.4168 49.7343 95.6761 49.7343C96.9354 49.7343 98.1526 49.2823 99.1055 48.4608C100.058 47.6394 100.683 46.5033 100.866 45.2602C100.895 45.0608 100.995 44.8785 101.148 44.7465C101.3 44.6145 101.495 44.5416 101.697 44.5411H115.936C116.116 44.5436 116.291 44.4886 116.438 44.3843C116.584 44.2799 116.693 44.1316 116.749 43.961C116.804 43.7904 116.804 43.6066 116.748 43.4362C116.691 43.2659 116.581 43.1181 116.435 43.0143L97.3616 28.632C97.2575 28.553 97.1732 28.4508 97.1154 28.3337C97.0577 28.2166 97.0281 28.0876 97.0289 27.9571V18.2877L149.979 50.7697C152.63 52.3955 154.818 54.6718 156.336 57.3813C157.854 60.0909 158.651 63.1433 158.651 66.2474Z" fill="#EFA143"/>
<path d="M277.381 22.5803H256.157V92.711H242.074V22.5803H220.86V10.4106H277.414L277.381 22.5803Z" fill="#F15733"/>
<path d="M310.338 52.728C308.514 52.6938 306.703 53.0302 305.014 53.7168C303.324 54.4035 301.793 55.4259 300.513 56.7219C299.199 57.9729 298.159 59.4818 297.459 61.1536C296.758 62.8254 296.412 64.6238 296.443 66.4355V92.711H282.393V66.4355C282.321 62.7729 283.007 59.1349 284.407 55.7485C285.808 52.3622 287.893 49.3002 290.533 46.7538C293.115 44.1441 296.202 42.0862 299.607 40.7053C303.012 39.3245 306.663 38.6496 310.338 38.7218V52.728Z" fill="#F15733"/>
<path d="M371.128 93.2642C371.211 96.9305 370.537 100.575 369.148 103.97C367.759 107.365 365.685 110.439 363.055 113.001C360.461 115.611 357.361 117.666 353.944 119.041C350.528 120.417 346.866 121.083 343.183 121V106.961C345.004 106.99 346.812 106.65 348.497 105.961C350.182 105.273 351.709 104.25 352.986 102.956C354.302 101.703 355.343 100.193 356.046 98.519C356.748 96.8455 357.096 95.0451 357.067 93.231V90.7196C352.841 93.1212 348.058 94.3762 343.194 94.3595C339.52 94.3889 335.877 93.6893 332.476 92.3014C329.075 90.9135 325.985 88.865 323.385 86.2749C320.785 83.6849 318.726 80.605 317.33 77.2143C315.933 73.8236 315.226 70.1897 315.25 66.524V38.7218H329.344V66.524C329.487 70.096 331.011 73.4742 333.594 75.951C336.178 78.4278 339.622 79.811 343.206 79.811C346.789 79.811 350.233 78.4278 352.817 75.951C355.401 73.4742 356.924 70.096 357.067 66.524V38.7218H371.139L371.128 93.2642Z" fill="#F15733"/>
<path d="M477.494 22.5803H456.225V92.711H442.142V22.5803H420.973V10.4106H477.527L477.494 22.5803Z" fill="#F15733"/>
<path d="M538.395 92.711H524.323V66.4466C524.341 64.6455 523.988 62.8599 523.286 61.2004C522.584 59.5409 521.548 58.0429 520.242 56.7993C518.982 55.498 517.468 54.4675 515.793 53.7711C514.119 53.0748 512.32 52.7274 510.506 52.7501C508.679 52.722 506.865 53.0623 505.173 53.7504C503.481 54.4386 501.945 55.4606 500.659 56.7551C499.344 58.0009 498.302 59.5055 497.599 61.1737C496.897 62.8419 496.549 64.6374 496.578 66.4466V92.711H482.506V10.4106H496.578V42.251C500.825 39.9138 505.6 38.6989 510.45 38.7218C514.128 38.6495 517.781 39.3254 521.188 40.7082C524.595 42.091 527.684 44.1518 530.267 46.7649C532.904 49.3122 534.987 52.3746 536.386 55.7609C537.784 59.1473 538.468 62.7848 538.395 66.4466V92.711Z" fill="#F15733"/>
<path d="M599.296 66.3802C599.297 67.7689 599.194 69.1558 598.985 70.5289H558.211C559.051 73.3562 560.811 75.8241 563.212 77.5431C565.597 79.2967 568.489 80.2287 571.451 80.1983C573.465 80.2368 575.46 79.8163 577.286 78.9689C579.111 78.1215 580.719 76.8695 581.986 75.3083L590.536 86.6482C588.014 89.1073 585.029 91.0447 581.754 92.3491C578.479 93.6534 574.977 94.299 571.451 94.2488C567.772 94.2962 564.121 93.609 560.712 92.2275C557.303 90.846 554.205 88.7981 551.602 86.2044C548.998 83.6108 546.94 80.5237 545.55 77.1248C544.16 73.726 543.465 70.084 543.507 66.4133C543.436 62.7509 544.122 59.113 545.522 55.7268C546.922 52.3405 549.007 49.2784 551.646 46.7316C556.937 41.5796 564.036 38.6956 571.429 38.6956C578.822 38.6956 585.922 41.5796 591.212 46.7316C593.835 49.281 595.905 52.34 597.296 55.7197C598.686 59.0993 599.367 62.7276 599.296 66.3802ZM583.55 60.0187C582.379 57.8172 580.63 55.9752 578.49 54.6906C576.35 53.4059 573.899 52.7272 571.401 52.7272C568.904 52.7272 566.453 53.4059 564.313 54.6906C562.173 55.9752 560.424 57.8172 559.253 60.0187H583.55Z" fill="#F15733"/>
<path d="M660.408 92.711H646.336V66.4466C646.354 64.6444 646.001 62.8577 645.297 61.1979C644.593 59.5381 643.553 58.0407 642.244 56.7993C640.983 55.4979 639.469 54.4674 637.795 53.7711C636.121 53.0748 634.321 52.7273 632.508 52.7501C630.682 52.7209 628.869 53.0607 627.179 53.749C625.489 54.4373 623.955 55.4599 622.672 56.755C621.356 58.0009 620.315 59.5055 619.612 61.1737C618.91 62.8419 618.562 64.6374 618.591 66.4466V92.711H604.508V66.4355C604.436 62.773 605.122 59.1352 606.523 55.7489C607.923 52.3626 610.008 49.3006 612.647 46.7538C617.949 41.5975 625.059 38.7117 632.463 38.7117C639.867 38.7117 646.978 41.5975 652.279 46.7538C654.917 49.3011 657 52.3635 658.398 55.7498C659.797 59.1362 660.481 62.7737 660.408 66.4355V92.711Z" fill="#F15733"/>
<path d="M759.998 64.8202C760.106 68.4825 759.448 72.127 758.065 75.5213C756.683 78.9157 754.607 81.9856 751.97 84.5351C749.385 87.1541 746.299 89.2275 742.894 90.632C739.49 92.0366 735.837 92.7436 732.154 92.711L709.111 92.8105V10.4106H725.223C728.003 10.3507 730.765 10.8598 733.34 11.9063C735.914 12.9528 738.247 14.5147 740.193 16.4955C742.18 18.4413 743.753 20.7668 744.818 23.3331C745.883 25.8994 746.418 28.6536 746.392 31.431C746.41 34.3994 745.806 37.3389 744.618 40.0604C749.176 42.4102 753.009 45.9511 755.707 50.3051C758.462 54.6514 759.948 59.6779 759.998 64.8202ZM732.364 31.5306C732.298 29.6441 731.504 27.8563 730.147 26.541C729.511 25.8772 728.747 25.3495 727.9 24.99C727.054 24.6305 726.143 24.4468 725.223 24.45H723.216V38.4009H725.323C727.215 38.386 729.037 37.6817 730.446 36.4206C731.114 35.8021 731.633 35.0411 731.966 34.1944C732.298 33.3477 732.434 32.4372 732.364 31.5306ZM745.915 64.9309C745.923 63.1054 745.568 61.2964 744.871 59.6083C744.175 57.9203 743.15 56.3865 741.857 55.0955C740.584 53.794 739.058 52.7669 737.372 52.078C735.686 51.3891 733.876 51.053 732.054 51.0906H723.183V78.6605H732.154C733.974 78.6884 735.781 78.3478 737.466 77.6595C739.151 76.9711 740.678 75.9493 741.956 74.6556C743.266 73.4049 744.296 71.8919 744.979 70.2159C745.661 68.5398 745.98 66.7387 745.915 64.9309Z" fill="#F15733"/>
<path d="M820.999 66.4908C820.999 73.885 818.055 80.9763 812.814 86.2047C807.574 91.4332 800.466 94.3705 793.055 94.3705C785.643 94.3705 778.536 91.4332 773.295 86.2047C768.054 80.9763 765.11 73.885 765.11 66.4908V38.7218H779.182V66.4908C779.154 68.3081 779.496 70.1121 780.188 71.7934C780.88 73.4746 781.907 74.9979 783.208 76.2709C784.475 77.5791 785.998 78.6135 787.682 79.3101C789.366 80.0066 791.176 80.3504 792.999 80.32C796.683 80.323 800.217 78.8691 802.828 76.2768C805.438 73.6846 806.912 70.1656 806.927 66.4908V38.7218H820.999V66.4908Z" fill="#F15733"/>
<path d="M882 93.2642C882.083 96.9305 881.409 100.575 880.02 103.97C878.631 107.365 876.557 110.439 873.927 113.001C871.333 115.611 868.233 117.666 864.817 119.041C861.4 120.417 857.739 121.083 854.056 121V106.961C855.872 106.987 857.676 106.645 859.357 105.957C861.038 105.269 862.561 104.248 863.836 102.956C865.15 101.702 866.189 100.191 866.89 98.5177C867.59 96.8442 867.936 95.0443 867.906 93.231V90.7196C863.68 93.1212 858.897 94.3762 854.033 94.3595C850.364 94.3829 846.726 93.6794 843.331 92.2895C839.936 90.8997 836.852 88.8512 834.256 86.2629C831.661 83.6747 829.607 80.5981 828.212 77.2116C826.818 73.8251 826.111 70.1961 826.133 66.5351V38.7218H840.205V66.524C840.168 68.3464 840.505 70.157 841.196 71.8446C841.886 73.5322 842.915 75.0611 844.22 76.3372C845.486 77.6421 847.008 78.6737 848.69 79.3683C850.372 80.0629 852.18 80.4056 854 80.3754C855.829 80.4047 857.644 80.0618 859.335 79.3674C861.026 78.6731 862.558 77.6421 863.836 76.3372C865.15 75.0764 866.19 73.5596 866.892 71.8811C867.594 70.2025 867.943 68.398 867.917 66.5793V38.7218H881.989L882 93.2642Z" fill="#F15733"/>
</g>
<defs>
<clipPath id="clip0_351_2998">
<rect width="882" height="121" fill="white"/>
</clipPath>
</defs>
</svg>
