<svg width="101" height="36" viewBox="0 0 101 36" fill="none" xmlns="http://www.w3.org/2000/svg">
<path d="M0 12C0 5.37258 5.37258 0 12 0H89C95.6274 0 101 5.37258 101 12V24C101 30.6274 95.6274 36 89 36H12C5.37259 36 0 30.6274 0 24V12Z" fill="#F5F5F5"/>
<path fill-rule="evenodd" clip-rule="evenodd" d="M28 12.9114C27.4121 13.1792 26.7791 13.3602 26.1152 13.4411C26.7932 13.0251 27.3135 12.3654 27.5586 11.5795C26.9238 11.9648 26.2222 12.245 25.4728 12.3952C24.8755 11.7413 24.0218 11.333 23.0771 11.333C21.2655 11.333 19.7957 12.8402 19.7957 14.6988C19.7957 14.9627 19.8239 15.2189 19.8803 15.4654C17.1521 15.3248 14.7338 13.9862 13.1138 11.9474C12.8311 12.4463 12.6696 13.0251 12.6696 13.6414C12.6696 14.8086 13.249 15.8391 14.13 16.4429C13.5928 16.4265 13.0856 16.2734 12.6424 16.023V16.0644C12.6424 17.6958 13.774 19.0566 15.2766 19.3648C15.0015 19.4438 14.7113 19.4832 14.4117 19.4832C14.2004 19.4832 13.9938 19.463 13.7937 19.4235C14.2117 20.7602 15.4231 21.7339 16.86 21.7599C15.7368 22.6632 14.3206 23.2016 12.7832 23.2016C12.5184 23.2016 12.2564 23.1861 12 23.1553C13.4528 24.1087 15.179 24.6663 17.0319 24.6663C23.0705 24.6663 26.3715 19.5381 26.3715 15.0898C26.3715 14.9435 26.3687 14.7971 26.3631 14.6536C27.0045 14.1788 27.5614 13.5865 28 12.9114Z" fill="#151515"/>
<path d="M42.505 12.97V15.025H39.715V23.5H37.15V15.025H34.36V12.97H42.505ZM55.8073 15.13L53.5423 23.5H50.7073L49.3873 18.07L48.0223 23.5H45.2023L42.9223 15.13H45.4873L46.6723 21.115L48.0823 15.13H50.7973L52.2223 21.085L53.3923 15.13H55.8073ZM58.0755 14.26C57.6255 14.26 57.2555 14.13 56.9655 13.87C56.6855 13.6 56.5455 13.27 56.5455 12.88C56.5455 12.48 56.6855 12.15 56.9655 11.89C57.2555 11.62 57.6255 11.485 58.0755 11.485C58.5155 11.485 58.8755 11.62 59.1555 11.89C59.4455 12.15 59.5905 12.48 59.5905 12.88C59.5905 13.27 59.4455 13.6 59.1555 13.87C58.8755 14.13 58.5155 14.26 58.0755 14.26ZM59.3505 15.13V23.5H56.7855V15.13H59.3505ZM65.8743 21.325V23.5H64.5693C63.6393 23.5 62.9143 23.275 62.3943 22.825C61.8743 22.365 61.6143 21.62 61.6143 20.59V17.26H60.5943V15.13H61.6143V13.09H64.1793V15.13H65.8593V17.26H64.1793V20.62C64.1793 20.87 64.2393 21.05 64.3593 21.16C64.4793 21.27 64.6793 21.325 64.9593 21.325H65.8743ZM71.968 21.325V23.5H70.663C69.733 23.5 69.008 23.275 68.488 22.825C67.968 22.365 67.708 21.62 67.708 20.59V17.26H66.688V15.13H67.708V13.09H70.273V15.13H71.953V17.26H70.273V20.62C70.273 20.87 70.333 21.05 70.453 21.16C70.573 21.27 70.773 21.325 71.053 21.325H71.968ZM81.2868 19.18C81.2868 19.42 81.2718 19.67 81.2418 19.93H75.4368C75.4768 20.45 75.6418 20.85 75.9318 21.13C76.2318 21.4 76.5968 21.535 77.0268 21.535C77.6668 21.535 78.1118 21.265 78.3618 20.725H81.0918C80.9518 21.275 80.6968 21.77 80.3268 22.21C79.9668 22.65 79.5118 22.995 78.9618 23.245C78.4118 23.495 77.7968 23.62 77.1168 23.62C76.2968 23.62 75.5668 23.445 74.9268 23.095C74.2868 22.745 73.7868 22.245 73.4268 21.595C73.0668 20.945 72.8868 20.185 72.8868 19.315C72.8868 18.445 73.0618 17.685 73.4118 17.035C73.7718 16.385 74.2718 15.885 74.9118 15.535C75.5518 15.185 76.2868 15.01 77.1168 15.01C77.9268 15.01 78.6468 15.18 79.2768 15.52C79.9068 15.86 80.3968 16.345 80.7468 16.975C81.1068 17.605 81.2868 18.34 81.2868 19.18ZM78.6618 18.505C78.6618 18.065 78.5118 17.715 78.2118 17.455C77.9118 17.195 77.5368 17.065 77.0868 17.065C76.6568 17.065 76.2918 17.19 75.9918 17.44C75.7018 17.69 75.5218 18.045 75.4518 18.505H78.6618ZM85.205 16.525C85.505 16.065 85.88 15.705 86.33 15.445C86.78 15.175 87.28 15.04 87.83 15.04V17.755H87.125C86.485 17.755 86.005 17.895 85.685 18.175C85.365 18.445 85.205 18.925 85.205 19.615V23.5H82.64V15.13H85.205V16.525Z" fill="#151515"/>
</svg>
