<svg width="42" height="42" viewBox="0 0 42 42" fill="none" xmlns="http://www.w3.org/2000/svg">
<rect width="42" height="42" rx="21" fill="#FEEEEB"/>
<path d="M32.4195 19.8542L31.4274 19.1265C31.1667 18.9353 30.979 18.6609 30.8953 18.3486C30.8116 18.0362 30.837 17.7047 30.9671 17.4088L31.4624 16.2825C31.5523 16.0782 31.5927 15.8557 31.5806 15.6329C31.5684 15.41 31.5039 15.1932 31.3923 15C31.2807 14.8067 31.1252 14.6425 30.9383 14.5205C30.7515 14.3986 30.5385 14.3223 30.3167 14.298L29.0937 14.1638C28.7723 14.1286 28.4725 13.9848 28.2439 13.7561C28.0153 13.5275 27.8714 13.2277 27.8362 12.9063L27.702 11.6833C27.6777 11.4615 27.6014 11.2485 27.4795 11.0617C27.3575 10.8748 27.1933 10.7193 27 10.6077C26.8068 10.4961 26.5899 10.4316 26.3671 10.4194C26.1443 10.4073 25.9218 10.4477 25.7175 10.5376L24.5912 11.0329C24.2952 11.163 23.9637 11.1883 23.6514 11.1047C23.3391 11.021 23.0647 10.8333 22.8734 10.5726L22.1458 9.58051C22.0138 9.40058 21.8413 9.25426 21.6422 9.15341C21.4432 9.05255 21.2232 9 21 9C20.7769 9 20.5569 9.05255 20.3578 9.15341C20.1587 9.25426 19.9862 9.40058 19.8543 9.58051L19.1265 10.5726C18.9353 10.8333 18.6609 11.021 18.3486 11.1047C18.0363 11.1883 17.7047 11.163 17.4088 11.0328L16.2825 10.5376C16.0782 10.4477 15.8557 10.4073 15.6329 10.4194C15.4101 10.4316 15.1933 10.4961 15 10.6077C14.8068 10.7193 14.6425 10.8748 14.5205 11.0617C14.3986 11.2485 14.3223 11.4615 14.298 11.6833L14.1638 12.9063C14.1286 13.2277 13.9847 13.5275 13.7561 13.7561C13.5275 13.9848 13.2277 14.1286 12.9063 14.1638L11.6833 14.298C11.4615 14.3223 11.2485 14.3986 11.0617 14.5205C10.8748 14.6425 10.7193 14.8067 10.6077 15C10.4961 15.1932 10.4316 15.4101 10.4195 15.6329C10.4073 15.8557 10.4477 16.0782 10.5376 16.2825L11.0329 17.4088C11.163 17.7047 11.1884 18.0362 11.1047 18.3485C11.021 18.6609 10.8333 18.9353 10.5726 19.1265L9.58052 19.8542C9.40058 19.9862 9.25426 20.1587 9.15341 20.3578C9.05256 20.5568 9 20.7769 9 21C9 21.2232 9.05256 21.4432 9.15341 21.6422C9.25426 21.8413 9.40058 22.0138 9.58052 22.1458L10.5726 22.8735C10.8333 23.0647 11.021 23.3391 11.1047 23.6515C11.1884 23.9638 11.163 24.2953 11.0329 24.5913L10.5376 25.7175C10.4477 25.9218 10.4073 26.1443 10.4195 26.3671C10.4316 26.5899 10.4961 26.8068 10.6077 27C10.7193 27.1933 10.8748 27.3575 11.0617 27.4795C11.2485 27.6014 11.4615 27.6777 11.6833 27.702L12.9063 27.8362C13.2277 27.8714 13.5275 28.0152 13.7561 28.2439C13.9847 28.4725 14.1286 28.7723 14.1638 29.0937L14.298 30.3167C14.3223 30.5385 14.3986 30.7515 14.5205 30.9383C14.6425 31.1252 14.8067 31.2807 15 31.3923C15.1932 31.5039 15.4101 31.5684 15.6329 31.5805C15.8557 31.5927 16.0782 31.5523 16.2825 31.4624L17.4088 30.9671C17.7047 30.837 18.0363 30.8117 18.3486 30.8953C18.6609 30.979 18.9353 31.1667 19.1265 31.4274L19.8543 32.4195C19.9862 32.5994 20.1587 32.7457 20.3578 32.8466C20.5569 32.9474 20.7769 33 21 33C21.2231 33 21.4432 32.9474 21.6422 32.8466C21.8413 32.7457 22.0138 32.5994 22.1457 32.4195L22.8735 31.4274C23.0647 31.1667 23.3391 30.979 23.6514 30.8953C23.9637 30.8117 24.2953 30.837 24.5912 30.9671L25.7175 31.4624C25.9218 31.5523 26.1443 31.5927 26.3671 31.5806C26.59 31.5684 26.8068 31.5039 27 31.3923C27.1933 31.2807 27.3575 31.1252 27.4795 30.9383C27.6014 30.7515 27.6777 30.5385 27.702 30.3167L27.8362 29.0937C27.8714 28.7723 28.0153 28.4725 28.2439 28.2439C28.4725 28.0152 28.7723 27.8714 29.0937 27.8362L30.3167 27.702C30.5385 27.6777 30.7515 27.6014 30.9383 27.4795C31.1252 27.3575 31.2807 27.1933 31.3923 27C31.5039 26.8068 31.5684 26.5899 31.5806 26.3671C31.5927 26.1443 31.5523 25.9218 31.4625 25.7175L30.9671 24.5913C30.837 24.2953 30.8116 23.9638 30.8953 23.6515C30.979 23.3391 31.1667 23.0647 31.4274 22.8735L32.4195 22.1458C32.5994 22.0138 32.7457 21.8413 32.8466 21.6422C32.9474 21.4432 33 21.2232 33 21C33 20.7769 32.9475 20.5568 32.8466 20.3578C32.7457 20.1587 32.5994 19.9862 32.4195 19.8542ZM26.5147 21.5646C25.9722 26.0912 22.4452 27.8113 21 28.0877C19.5548 27.8113 16.0278 26.0912 15.4853 21.5646L15.0628 18.0403C15.0589 18.0075 15.0653 17.9744 15.0811 17.9454C15.0968 17.9165 15.1212 17.8931 15.1509 17.8787L20.9304 15.0594C20.9521 15.0488 20.9759 15.0433 21 15.0433C21.0241 15.0433 21.0479 15.0488 21.0696 15.0594L26.8491 17.8787C26.8788 17.8931 26.9032 17.9165 26.9189 17.9454C26.9347 17.9744 26.9411 18.0075 26.9372 18.0403L26.5147 21.5646ZM19.9967 22.3873L23.3687 19.0152C23.4967 18.8816 23.6692 18.7997 23.8536 18.7851C24.0379 18.7704 24.2213 18.824 24.3687 18.9357C24.4475 18.9998 24.5121 19.0797 24.5581 19.1703C24.6041 19.2609 24.6306 19.3602 24.6358 19.4616C24.641 19.5631 24.6249 19.6645 24.5885 19.7594C24.552 19.8542 24.496 19.9404 24.4242 20.0122L20.5097 23.9267C20.4424 23.9941 20.3624 24.0476 20.2743 24.084C20.1863 24.1205 20.0919 24.1393 19.9966 24.1393C19.9013 24.1393 19.807 24.1205 19.7189 24.084C19.6309 24.0476 19.5509 23.9941 19.4835 23.9267L17.6048 22.048C17.4712 21.9201 17.3894 21.7475 17.3747 21.5632C17.3601 21.3789 17.4138 21.1956 17.5255 21.0482C17.5895 20.9694 17.6695 20.9049 17.7601 20.8589C17.8507 20.8129 17.9499 20.7864 18.0514 20.7811C18.1529 20.7759 18.2543 20.792 18.3492 20.8284C18.444 20.8649 18.5302 20.9208 18.6021 20.9926L19.9967 22.3873Z" fill="#F15733"/>
</svg>
