<svg width="20" height="18" viewBox="0 0 20 18" fill="none" xmlns="http://www.w3.org/2000/svg">
<path fill-rule="evenodd" clip-rule="evenodd" d="M1.00098 0C0.448692 0 0.000976562 0.447715 0.000976562 1C0.000976562 1.55228 0.448692 2 1.00098 2V1L1.00099 2H1.00103H1.00119H1.00131H1.00145H1.00163H1.00183H1.00288H1.00435H1.00524H1.00572H1.00623H1.00851H1.0112H1.01193H1.01269H1.01428H1.05273H1.19629H1.68848H2.20275L4.52584 12.2216C4.64562 12.7486 5.1613 13.083 5.68802 12.9824C5.7489 12.9939 5.81173 13 5.87598 13H16.001C16.4178 13 16.7909 12.7414 16.9373 12.3511L19.9373 4.35112C20.0525 4.04403 20.0097 3.69998 19.8229 3.43041C19.6361 3.16083 19.329 3 19.001 3H4.48102L3.97611 0.778379C3.87264 0.32309 3.46788 0 3.00098 0H1.68848H1.19629H1.05273H1.04663H1.04088H1.03951H1.03815H1.03551H1.0305H1.02162H1.02062H1.01964H1.01869H1.01776H1.01685H1.01597H1.01428H1.00851H1.00623H1.00572H1.00524H1.00435H1.00183H1.00145H1.00131H1.00119H1.00103H1.00099L1.00098 1V0ZM4.93557 5L6.29921 11H15.308L17.558 5H4.93557ZM8.00098 14C6.89641 14 6.00098 14.8954 6.00098 16C6.00098 17.1046 6.89641 18 8.00098 18C9.10555 18 10.001 17.1046 10.001 16C10.001 14.8954 9.10555 14 8.00098 14ZM12.001 16C12.001 14.8954 12.8964 14 14.001 14C15.1055 14 16.001 14.8954 16.001 16C16.001 17.1046 15.1055 18 14.001 18C12.8964 18 12.001 17.1046 12.001 16Z" fill="white"/>
</svg>
