<svg width="48" height="48" viewBox="0 0 48 48" fill="none" xmlns="http://www.w3.org/2000/svg">
<circle cx="24" cy="24" r="23.5" stroke="#C4C4C4"/>
<path fill-rule="evenodd" clip-rule="evenodd" d="M18.3038 15.9979L18.3044 15.9988L18.3038 15.9979ZM18.3468 16.0662L20.3541 19.26C20.1115 19.49 19.847 19.7178 19.5622 19.9629C19.3175 20.1736 19.0579 20.3971 18.7845 20.6459C18.1071 21.2624 17.9762 22.2539 18.4147 23.0256C20.7333 27.1062 23.8957 28.963 25.3107 29.6296C26.1632 30.0312 27.0894 29.7143 27.605 29.058L28.994 27.2899C28.994 27.2899 28.9952 27.2889 28.9973 27.2885C28.9994 27.2882 29.0032 27.2885 29.0032 27.2885C29.0032 27.2885 29.0062 27.2892 29.0091 27.291C29.8185 27.7906 30.9477 28.4694 31.985 29.0442C31.7987 30.1688 31.3708 30.824 30.8989 31.2246C30.4035 31.6451 29.7628 31.8665 29.0482 31.9464C27.6213 32.106 26.1728 31.6731 25.8516 31.5677C25.4971 31.3864 23.5536 30.3634 21.4772 28.7056C19.3361 26.9961 17.1892 24.7178 16.3681 22.1049C15.768 20.1953 15.9943 18.8515 16.4659 17.9246C16.9219 17.0285 17.6597 16.4203 18.3468 16.0662ZM17.6207 14.176C18.5666 13.7273 19.5448 14.1951 20.0004 14.92L22.1003 18.2612C22.5248 18.9367 22.5539 19.9241 21.8637 20.6006C21.568 20.8905 21.1564 21.2468 20.7735 21.5784C20.5633 21.7604 20.3617 21.9349 20.1926 22.0869C22.1881 25.5617 24.856 27.1693 26.0694 27.7572L27.4201 26.0378C28.0579 25.226 29.1934 25.0363 30.0581 25.57C30.858 26.0636 31.9638 26.7281 32.966 27.2829C33.6343 27.653 34.1124 28.4244 33.977 29.2954C33.7337 30.8596 33.0982 31.999 32.1926 32.7678C31.3022 33.5237 30.2415 33.8444 29.2698 33.953C27.3585 34.1668 25.5305 33.588 25.1967 33.4763C25.1122 33.448 25.042 33.4181 24.9666 33.3798C24.6083 33.1977 22.4963 32.0965 20.2302 30.2872C17.9876 28.4967 15.4585 25.9066 14.4551 22.7137C13.7181 20.3682 13.9361 18.4665 14.6801 17.0044C15.411 15.5679 16.5948 14.6626 17.6207 14.176Z" fill="#E5E5E5"/>
<path fill-rule="evenodd" clip-rule="evenodd" d="M27.6409 15.4945C27.0886 15.4945 26.6409 15.9422 26.6409 16.4945L26.6409 19.6406C26.6409 20.1928 27.0886 20.6406 27.6409 20.6406L30.787 20.6406C31.3393 20.6406 31.787 20.1929 31.787 19.6406C31.787 19.0883 31.3393 18.6406 30.787 18.6406L29.9987 18.6406L32.2925 16.2681C32.6763 15.8711 32.6657 15.238 32.2686 14.8541C31.8716 14.4702 31.2385 14.4809 30.8546 14.8779L28.6409 17.1676L28.6409 16.4945C28.6409 15.9422 28.1932 15.4945 27.6409 15.4945Z" fill="#E5E5E5"/>
</svg>
