<svg width="48" height="48" viewBox="0 0 48 48" fill="none" xmlns="http://www.w3.org/2000/svg">
<circle cx="24" cy="24" r="23.5" stroke="#C4C4C4"/>
<path fill-rule="evenodd" clip-rule="evenodd" d="M18.1666 17.3334C16.7859 17.3334 15.6666 18.4527 15.6666 19.8334V28.1667C15.6666 29.5474 16.7859 30.6667 18.1666 30.6667H29.8333C31.214 30.6667 32.3333 29.5474 32.3333 28.1667V19.8334C32.3333 18.4527 31.214 17.3334 29.8333 17.3334H18.1666ZM17.4094 19.485C17.5413 19.1987 17.8308 19 18.1666 19H29.8333C30.1692 19 30.4586 19.1987 30.5905 19.485L24.5116 24.2131C24.2107 24.4471 23.7893 24.4471 23.4883 24.2131L17.4094 19.485ZM17.3333 21.5372V26.3875L20.3438 23.8787L17.3333 21.5372ZM17.4024 28.4994C17.5308 28.7941 17.8247 29 18.1666 29H29.8333C30.1752 29 30.4691 28.7941 30.5975 28.4994L26.3095 24.9261L25.5348 25.5287C24.632 26.2308 23.3679 26.2308 22.4651 25.5287L21.6904 24.9261L17.4024 28.4994ZM30.6666 26.3875V21.5372L27.6561 23.8787L30.6666 26.3875Z" fill="white"/>
</svg>
