<svg width="48" height="48" viewBox="0 0 48 48" fill="none" xmlns="http://www.w3.org/2000/svg">
<circle cx="24" cy="24" r="23.5" stroke="#C4C4C4"/>
<path fill-rule="evenodd" clip-rule="evenodd" d="M14 17.3514V27.4056C14 29.2565 15.3431 30.757 17 30.757H20V31.2017C20 33.6012 22.5298 34.8836 24.1463 33.3036L26.7515 30.757H31C32.6569 30.757 34 29.2565 34 27.4056V17.3514C34 15.5005 32.6569 14 31 14H17C15.3431 14 14 15.5005 14 17.3514ZM20 28.5227C20.7613 28.5227 21.4233 28.9979 21.7612 29.6973L21.7772 29.7311C21.8931 29.9811 21.9679 30.2588 21.9918 30.5529C21.9972 30.6201 22 30.6882 22 30.757V31.2017C22 31.6816 22.506 31.9381 22.8293 31.6221L25.4345 29.0755C25.799 28.7192 26.267 28.5227 26.7515 28.5227H31C31.5523 28.5227 32 28.0226 32 27.4056V17.3514C32 16.7344 31.5523 16.2343 31 16.2343H17C16.4477 16.2343 16 16.7344 16 17.3514V27.4056C16 28.0226 16.4477 28.5227 17 28.5227H20ZM24.0359 24.4622C24.5011 24.4622 24.8209 24.0542 24.8813 23.6219L24.8948 23.5325C25.5136 23.3786 26.0912 23.1259 26.5252 22.6979C26.9987 22.2308 27.2839 21.5718 27.2839 20.6667V20.64C27.2839 19.6939 26.9678 18.9384 26.4073 18.4237C25.8516 17.9134 25.0758 17.6578 24.1799 17.6578C23.0766 17.6578 22.2272 18.05 21.5558 18.6693C21.2926 18.913 21.1719 19.2431 21.1719 19.56C21.1719 20.1894 21.6454 20.7156 22.2119 20.7156C22.4694 20.7156 22.7025 20.5989 22.8719 20.4578C23.2719 20.1244 23.6744 19.9689 24.1439 19.9689C24.4654 19.9689 24.6927 20.0495 24.8349 20.1711C24.97 20.2867 25.0479 20.4554 25.0479 20.6933V20.72C25.0479 20.9721 24.9614 21.1572 24.7646 21.3065C24.5536 21.4665 24.2106 21.5876 23.6989 21.6595C23.4649 21.692 23.2599 21.8051 23.1239 21.998C22.9872 22.1919 22.9374 22.4432 22.9741 22.7133L23.094 23.6192C23.1541 24.0699 23.4769 24.4622 23.9399 24.4622H24.0359ZM22.6959 26.2533V26.28C22.6959 27.0461 23.2325 27.6356 23.9399 27.6356C24.6473 27.6356 25.1839 27.0461 25.1839 26.28V26.2533C25.1839 25.4872 24.6473 24.8978 23.9399 24.8978C23.2325 24.8978 22.6959 25.4872 22.6959 26.2533Z" fill="white"/>
</svg>
