<svg width="325" height="325" viewBox="0 0 325 325" fill="none" xmlns="http://www.w3.org/2000/svg">
<path d="M162.5 277.914C232.104 277.914 288.529 274.62 288.529 270.556C288.529 266.492 232.104 263.198 162.5 263.198C92.8966 263.198 36.4717 266.492 36.4717 270.556C36.4717 274.62 92.8966 277.914 162.5 277.914Z" fill="#F5F5F5"/>
<path d="M121.257 83.382C121.26 82.1713 121.162 80.9625 120.965 79.768C120.093 74.4883 117.389 69.6847 113.327 66.2015C109.265 62.7183 104.105 60.7785 98.7541 60.723H98.5591C94.9694 60.7251 91.4316 61.5809 88.2377 63.2197C85.0438 64.8584 82.2854 67.2332 80.1901 70.148C79.8456 70.6225 79.5401 71.11 79.2281 71.5975C79.2027 71.6296 79.1809 71.6645 79.1631 71.7015C77.0294 75.2305 75.9052 79.2775 75.9131 83.4015V83.447C75.9265 88.24 77.4586 92.9054 80.2892 96.7733C83.1199 100.641 87.1036 103.512 91.6681 104.975C96.2326 106.437 101.143 106.415 105.694 104.912C110.246 103.409 114.204 100.502 117 96.6095C117.338 96.135 117.65 95.654 117.955 95.16C117.981 95.1278 118.002 95.0929 118.02 95.056C120.151 91.536 121.271 87.4968 121.257 83.382ZM76.8816 82.8685C76.9568 79.1572 77.9937 75.5289 79.8911 72.3385H86.9826C85.8989 75.7447 85.3315 79.2941 85.2991 82.8685H76.8816ZM87.9771 72.3385H98.0911V82.8685H86.2741C86.2956 79.2917 86.8701 75.7397 87.9771 72.3385ZM99.0661 71.3635V61.6655C100.472 61.7929 101.818 62.2933 102.966 63.115C105.378 64.766 107.399 67.665 108.816 71.3635H99.0661ZM109.167 72.3385C109.971 74.7734 110.495 77.2922 110.727 79.846C110.825 80.86 110.87 81.8675 110.883 82.8685H99.0661V72.3385H109.167ZM96.6611 61.9385C97.1277 61.8059 97.6071 61.7231 98.0911 61.6915V71.383H88.3411C90.1611 66.482 93.1121 62.92 96.6611 61.919V61.9385ZM98.0911 83.863V94.393H87.9966C87.1923 91.952 86.6732 89.4262 86.4496 86.866C86.3586 85.852 86.3066 84.8445 86.2936 83.8435L98.0911 83.863ZM98.0911 95.368V105.066C96.6855 104.938 95.3394 104.437 94.1911 103.616C91.7861 101.965 89.7646 99.0665 88.3411 95.368H98.0911ZM100.496 104.812C100.03 104.946 99.5503 105.028 99.0661 105.059V95.3485H108.816C106.996 100.23 104.045 103.798 100.496 104.793V104.812ZM99.0661 94.4125V83.85H110.883C110.865 87.427 110.29 90.9795 109.18 94.38L99.0661 94.4125ZM111.858 83.85H120.308C120.229 87.5607 119.193 91.1881 117.299 94.38H110.175C111.258 90.9737 111.826 87.4243 111.858 83.85ZM120.308 82.875H111.858C111.858 81.848 111.793 80.808 111.696 79.7615C111.474 77.2421 110.975 74.7549 110.207 72.345H117.286C118.654 74.6675 119.577 77.2244 120.009 79.885C120.164 80.8726 120.255 81.8691 120.282 82.8685L120.308 82.875ZM111.293 65.7605C113.417 67.2908 115.249 69.1909 116.701 71.37H109.85C108.394 67.3465 106.203 64.1615 103.519 62.3155L103.311 62.179C106.177 62.8208 108.883 64.037 111.267 65.754L111.293 65.7605ZM93.8271 62.192C91.0906 63.9925 88.8416 67.2685 87.3271 71.37H80.5021L80.9766 70.6745C84.0634 66.3654 88.6286 63.3436 93.8011 62.1855L93.8271 62.192ZM76.9271 83.85H85.3446C85.3446 84.877 85.4096 85.917 85.5071 86.9635C85.7321 89.4824 86.2313 91.9693 86.9956 94.38H79.8781C78.5075 92.0587 77.5837 89.5013 77.1546 86.84C76.9928 85.851 76.9016 84.8518 76.8816 83.85H76.9271ZM80.5281 95.355H87.3271C88.7831 99.3785 90.9736 102.563 93.6581 104.409L93.8726 104.546C88.411 103.306 83.6342 100.015 80.5281 95.355ZM103.35 104.526C106.08 102.732 108.329 99.45 109.85 95.3485H116.662C116.506 95.5825 116.35 95.8165 116.187 96.044C113.098 100.355 108.527 103.375 103.35 104.526Z" fill="#AAAAAA"/>
<path opacity="0.8" d="M121.257 83.382C121.26 82.1713 121.162 80.9625 120.965 79.768C120.093 74.4883 117.389 69.6847 113.327 66.2015C109.265 62.7183 104.105 60.7785 98.7541 60.723H98.5591C94.9694 60.7251 91.4316 61.5809 88.2377 63.2197C85.0438 64.8584 82.2854 67.2332 80.1901 70.148C79.8456 70.6225 79.5401 71.11 79.2281 71.5975C79.2027 71.6296 79.1809 71.6645 79.1631 71.7015C77.0294 75.2305 75.9052 79.2775 75.9131 83.4015V83.447C75.9265 88.24 77.4586 92.9054 80.2892 96.7733C83.1199 100.641 87.1036 103.512 91.6681 104.975C96.2326 106.437 101.143 106.415 105.694 104.912C110.246 103.409 114.204 100.502 117 96.6095C117.338 96.135 117.65 95.654 117.955 95.16C117.981 95.1278 118.002 95.0929 118.02 95.056C120.151 91.536 121.271 87.4968 121.257 83.382ZM76.8816 82.8685C76.9568 79.1572 77.9937 75.5289 79.8911 72.3385H86.9826C85.8989 75.7447 85.3315 79.2941 85.2991 82.8685H76.8816ZM87.9771 72.3385H98.0911V82.8685H86.2741C86.2956 79.2917 86.8701 75.7397 87.9771 72.3385ZM99.0661 71.3635V61.6655C100.472 61.7929 101.818 62.2933 102.966 63.115C105.378 64.766 107.399 67.665 108.816 71.3635H99.0661ZM109.167 72.3385C109.971 74.7734 110.495 77.2922 110.727 79.846C110.825 80.86 110.87 81.8675 110.883 82.8685H99.0661V72.3385H109.167ZM96.6611 61.9385C97.1277 61.8059 97.6071 61.7231 98.0911 61.6915V71.383H88.3411C90.1611 66.482 93.1121 62.92 96.6611 61.919V61.9385ZM98.0911 83.863V94.393H87.9966C87.1923 91.952 86.6732 89.4262 86.4496 86.866C86.3586 85.852 86.3066 84.8445 86.2936 83.8435L98.0911 83.863ZM98.0911 95.368V105.066C96.6855 104.938 95.3394 104.437 94.1911 103.616C91.7861 101.965 89.7646 99.0665 88.3411 95.368H98.0911ZM100.496 104.812C100.03 104.946 99.5503 105.028 99.0661 105.059V95.3485H108.816C106.996 100.23 104.045 103.798 100.496 104.793V104.812ZM99.0661 94.4125V83.85H110.883C110.865 87.427 110.29 90.9795 109.18 94.38L99.0661 94.4125ZM111.858 83.85H120.308C120.229 87.5607 119.193 91.1881 117.299 94.38H110.175C111.258 90.9737 111.826 87.4243 111.858 83.85ZM120.308 82.875H111.858C111.858 81.848 111.793 80.808 111.696 79.7615C111.474 77.2421 110.975 74.7549 110.207 72.345H117.286C118.654 74.6675 119.577 77.2244 120.009 79.885C120.164 80.8726 120.255 81.8691 120.282 82.8685L120.308 82.875ZM111.293 65.7605C113.417 67.2908 115.249 69.1909 116.701 71.37H109.85C108.394 67.3465 106.203 64.1615 103.519 62.3155L103.311 62.179C106.177 62.8208 108.883 64.037 111.267 65.754L111.293 65.7605ZM93.8271 62.192C91.0906 63.9925 88.8416 67.2685 87.3271 71.37H80.5021L80.9766 70.6745C84.0634 66.3654 88.6286 63.3436 93.8011 62.1855L93.8271 62.192ZM76.9271 83.85H85.3446C85.3446 84.877 85.4096 85.917 85.5071 86.9635C85.7321 89.4824 86.2313 91.9693 86.9956 94.38H79.8781C78.5075 92.0587 77.5837 89.5013 77.1546 86.84C76.9928 85.851 76.9016 84.8518 76.8816 83.85H76.9271ZM80.5281 95.355H87.3271C88.7831 99.3785 90.9736 102.563 93.6581 104.409L93.8726 104.546C88.411 103.306 83.6342 100.015 80.5281 95.355ZM103.35 104.526C106.08 102.732 108.329 99.45 109.85 95.3485H116.662C116.506 95.5825 116.35 95.8165 116.187 96.044C113.098 100.355 108.527 103.375 103.35 104.526Z" fill="#FAFAFA"/>
<path d="M269.288 94.185H64.9282V143.702H269.288V94.185Z" fill="#AAAAAA"/>
<path opacity="0.6" d="M269.288 94.185H64.9282V143.702H269.288V94.185Z" fill="#FAFAFA"/>
<path d="M264.68 98.7935H60.3198V148.31H264.68V98.7935Z" fill="#AAAAAA"/>
<path opacity="0.3" d="M264.68 98.7935H60.3198V148.31H264.68V98.7935Z" fill="black"/>
<path d="M260.071 103.402H55.7114V152.919H260.071V103.402Z" fill="#AAAAAA"/>
<path opacity="0.1" d="M260.071 103.402H55.7114V152.919H260.071V103.402Z" fill="#FAFAFA"/>
<path d="M250.321 143.169V113.152L65.4613 113.152V143.169H250.321Z" fill="#AAAAAA"/>
<path opacity="0.9" d="M250.321 143.169V113.152L65.4613 113.152V143.169H250.321Z" fill="#FAFAFA"/>
<path d="M219.225 113.152V143.169H220.311V113.152H219.225Z" fill="#AAAAAA"/>
<path opacity="0.6" d="M219.225 113.152V143.169H220.311V113.152H219.225Z" fill="#FAFAFA"/>
<path d="M70.0698 117.293V139.029H71.1553V117.293H70.0698Z" fill="#AAAAAA"/>
<path opacity="0.6" d="M70.0698 117.293V139.029H71.1553V117.293H70.0698Z" fill="#FAFAFA"/>
<path d="M234.279 131.95C233.491 131.95 232.714 131.755 232.019 131.383C231.323 131.011 230.73 130.473 230.292 129.817C229.854 129.161 229.585 128.407 229.507 127.622C229.43 126.837 229.548 126.046 229.85 125.317C230.152 124.588 230.628 123.945 231.238 123.445C231.848 122.945 232.571 122.602 233.345 122.448C234.119 122.294 234.918 122.333 235.673 122.562C236.428 122.791 237.114 123.202 237.672 123.76C238.344 124.431 238.801 125.286 238.986 126.217C239.171 127.147 239.076 128.112 238.713 128.989C238.35 129.866 237.735 130.615 236.945 131.142C236.156 131.669 235.228 131.95 234.279 131.95ZM234.279 123.662C233.47 123.663 232.686 123.944 232.061 124.457C231.435 124.971 231.008 125.685 230.85 126.479C230.693 127.273 230.816 128.097 231.198 128.81C231.58 129.524 232.197 130.082 232.945 130.391C233.693 130.7 234.525 130.741 235.299 130.505C236.073 130.269 236.742 129.772 237.19 129.099C237.639 128.425 237.84 127.617 237.76 126.812C237.68 126.007 237.322 125.254 236.749 124.683C236.428 124.352 236.045 124.088 235.621 123.907C235.196 123.727 234.74 123.632 234.279 123.63V123.662Z" fill="#AAAAAA"/>
<path d="M240.5 133.991C240.414 133.991 240.329 133.973 240.25 133.94C240.17 133.906 240.099 133.857 240.039 133.796L236.756 130.513C236.688 130.455 236.633 130.383 236.594 130.303C236.555 130.222 236.533 130.134 236.529 130.045C236.526 129.955 236.541 129.866 236.574 129.783C236.606 129.699 236.656 129.623 236.719 129.56C236.783 129.497 236.858 129.447 236.942 129.415C237.025 129.382 237.114 129.367 237.204 129.37C237.293 129.374 237.381 129.396 237.462 129.435C237.543 129.474 237.614 129.529 237.673 129.597L240.955 132.879C241.076 133.001 241.144 133.166 241.144 133.338C241.144 133.509 241.076 133.674 240.955 133.796C240.835 133.918 240.671 133.989 240.5 133.991Z" fill="#AAAAAA"/>
<g opacity="0.6">
<path d="M234.279 131.95C233.491 131.95 232.714 131.755 232.019 131.383C231.323 131.011 230.73 130.473 230.292 129.817C229.854 129.161 229.585 128.407 229.507 127.622C229.43 126.837 229.548 126.046 229.85 125.317C230.152 124.588 230.628 123.945 231.238 123.445C231.848 122.945 232.571 122.602 233.345 122.448C234.119 122.294 234.918 122.333 235.673 122.562C236.428 122.791 237.114 123.202 237.672 123.76C238.344 124.431 238.801 125.286 238.986 126.217C239.171 127.147 239.076 128.112 238.713 128.989C238.35 129.866 237.735 130.615 236.945 131.142C236.156 131.669 235.228 131.95 234.279 131.95ZM234.279 123.662C233.47 123.663 232.686 123.944 232.061 124.457C231.435 124.971 231.008 125.685 230.85 126.479C230.693 127.273 230.816 128.097 231.198 128.81C231.58 129.524 232.197 130.082 232.945 130.391C233.693 130.7 234.525 130.741 235.299 130.505C236.073 130.269 236.742 129.772 237.19 129.099C237.639 128.425 237.84 127.617 237.76 126.812C237.68 126.007 237.322 125.254 236.749 124.683C236.428 124.352 236.045 124.088 235.621 123.907C235.196 123.727 234.74 123.632 234.279 123.63V123.662Z" fill="#FAFAFA"/>
<path d="M240.5 133.991C240.414 133.991 240.329 133.973 240.25 133.94C240.17 133.906 240.099 133.857 240.039 133.796L236.756 130.513C236.688 130.455 236.633 130.383 236.594 130.303C236.555 130.222 236.533 130.134 236.529 130.045C236.526 129.955 236.541 129.866 236.574 129.783C236.606 129.699 236.656 129.623 236.719 129.56C236.783 129.497 236.858 129.447 236.942 129.415C237.025 129.382 237.114 129.367 237.204 129.37C237.293 129.374 237.381 129.396 237.462 129.435C237.543 129.474 237.614 129.529 237.673 129.597L240.955 132.879C241.076 133.001 241.144 133.166 241.144 133.338C241.144 133.509 241.076 133.674 240.955 133.796C240.835 133.918 240.671 133.989 240.5 133.991Z" fill="#FAFAFA"/>
</g>
<path d="M190.184 64.2525H169.748V64.7595H190.184V64.2525Z" fill="#AAAAAA"/>
<path d="M190.184 66.404H169.748V66.911H190.184V66.404Z" fill="#AAAAAA"/>
<path d="M190.184 68.562H169.748V69.069H190.184V68.562Z" fill="#AAAAAA"/>
<path d="M190.184 70.7135H169.748V71.2205H190.184V70.7135Z" fill="#AAAAAA"/>
<path d="M190.184 72.865H169.748V73.372H190.184V72.865Z" fill="#AAAAAA"/>
<path d="M183.073 75.023H169.748V75.53H183.073V75.023Z" fill="#AAAAAA"/>
<g opacity="0.5">
<path d="M190.184 64.2525H169.748V64.7595H190.184V64.2525Z" fill="#FAFAFA"/>
<path d="M190.184 66.404H169.748V66.911H190.184V66.404Z" fill="#FAFAFA"/>
<path d="M190.184 68.562H169.748V69.069H190.184V68.562Z" fill="#FAFAFA"/>
<path d="M190.184 70.7135H169.748V71.2205H190.184V70.7135Z" fill="#FAFAFA"/>
<path d="M190.184 72.865H169.748V73.372H190.184V72.865Z" fill="#FAFAFA"/>
<path d="M183.073 75.023H169.748V75.53H183.073V75.023Z" fill="#FAFAFA"/>
</g>
<path d="M67.1773 157.196H45.4023V157.521H67.1773V157.196Z" fill="#AAAAAA"/>
<path d="M67.1773 158.574H45.4023V158.899H67.1773V158.574Z" fill="#AAAAAA"/>
<path d="M67.1773 159.952H45.4023V160.277H67.1773V159.952Z" fill="#AAAAAA"/>
<path d="M67.1773 161.33H45.4023V161.655H67.1773V161.33Z" fill="#AAAAAA"/>
<path d="M67.1773 162.708H45.4023V163.033H67.1773V162.708Z" fill="#AAAAAA"/>
<path d="M59.0913 164.092H45.4023V164.417H59.0913V164.092Z" fill="#AAAAAA"/>
<g opacity="0.4">
<path d="M67.1773 157.196H45.4023V157.521H67.1773V157.196Z" fill="#FAFAFA"/>
<path d="M67.1773 158.574H45.4023V158.899H67.1773V158.574Z" fill="#FAFAFA"/>
<path d="M67.1773 159.952H45.4023V160.277H67.1773V159.952Z" fill="#FAFAFA"/>
<path d="M67.1773 161.33H45.4023V161.655H67.1773V161.33Z" fill="#FAFAFA"/>
<path d="M67.1773 162.708H45.4023V163.033H67.1773V162.708Z" fill="#FAFAFA"/>
<path d="M59.0913 164.092H45.4023V164.417H59.0913V164.092Z" fill="#FAFAFA"/>
</g>
<path d="M138.742 67.444C137.653 67.444 136.608 67.8768 135.837 68.6472C135.067 69.4176 134.634 70.4625 134.634 71.552V85.1045C134.634 86.194 135.067 87.2389 135.837 88.0093C136.608 88.7797 137.653 89.2125 138.742 89.2125C139.832 89.2125 140.877 88.7797 141.647 88.0093C142.417 87.2389 142.85 86.194 142.85 85.1045V71.552C142.85 70.4625 142.417 69.4176 141.647 68.6472C140.877 67.8768 139.832 67.444 138.742 67.444Z" fill="#AAAAAA"/>
<path opacity="0.2" d="M138.742 67.444C137.653 67.444 136.608 67.8768 135.837 68.6472C135.067 69.4176 134.634 70.4625 134.634 71.552V85.1045C134.634 86.194 135.067 87.2389 135.837 88.0093C136.608 88.7797 137.653 89.2125 138.742 89.2125C139.832 89.2125 140.877 88.7797 141.647 88.0093C142.417 87.2389 142.85 86.194 142.85 85.1045V71.552C142.85 70.4625 142.417 69.4176 141.647 68.6472C140.877 67.8768 139.832 67.444 138.742 67.444Z" fill="#FAFAFA"/>
<path d="M149.038 59.3645C147.952 59.3696 146.912 59.8047 146.146 60.5746C145.38 61.3444 144.95 62.3863 144.95 63.4725V85.1045C144.95 86.194 145.383 87.2389 146.153 88.0093C146.923 88.7797 147.968 89.2125 149.058 89.2125C150.147 89.2125 151.192 88.7797 151.962 88.0093C152.733 87.2389 153.166 86.194 153.166 85.1045V63.4725C153.166 62.9314 153.059 62.3956 152.851 61.8959C152.643 61.3962 152.339 60.9425 151.956 60.5608C151.572 60.1791 151.117 59.8769 150.616 59.6716C150.116 59.4663 149.579 59.3619 149.038 59.3645Z" fill="#AAAAAA"/>
<path opacity="0.3" d="M149.038 59.3645C147.952 59.3696 146.912 59.8047 146.146 60.5746C145.38 61.3444 144.95 62.3863 144.95 63.4725V85.1045C144.95 86.194 145.383 87.2389 146.153 88.0093C146.923 88.7797 147.968 89.2125 149.058 89.2125C150.147 89.2125 151.192 88.7797 151.962 88.0093C152.733 87.2389 153.166 86.194 153.166 85.1045V63.4725C153.166 62.9314 153.059 62.3956 152.851 61.8959C152.643 61.3962 152.339 60.9425 151.956 60.5608C151.572 60.1791 151.117 59.8769 150.616 59.6716C150.116 59.4663 149.579 59.3619 149.038 59.3645Z" fill="black"/>
<path d="M159.328 75.5235C158.238 75.5235 157.193 75.9563 156.423 76.7267C155.653 77.4971 155.22 78.542 155.22 79.6315V85.1045C155.22 86.194 155.653 87.2389 156.423 88.0093C157.193 88.7797 158.238 89.2125 159.328 89.2125C159.868 89.2134 160.403 89.1077 160.902 88.9017C161.401 88.6956 161.855 88.3931 162.237 88.0116C162.619 87.63 162.922 87.1769 163.129 86.6781C163.336 86.1792 163.442 85.6445 163.442 85.1045V79.6315C163.442 79.0915 163.336 78.5568 163.129 78.0579C162.922 77.5591 162.619 77.106 162.237 76.7244C161.855 76.3429 161.401 76.0404 160.902 75.8343C160.403 75.6283 159.868 75.5226 159.328 75.5235Z" fill="#AAAAAA"/>
<path opacity="0.6" d="M159.328 75.5235C158.238 75.5235 157.193 75.9563 156.423 76.7267C155.653 77.4971 155.22 78.542 155.22 79.6315V85.1045C155.22 86.194 155.653 87.2389 156.423 88.0093C157.193 88.7797 158.238 89.2125 159.328 89.2125C159.868 89.2134 160.403 89.1077 160.902 88.9017C161.401 88.6956 161.855 88.3931 162.237 88.0116C162.619 87.63 162.922 87.1769 163.129 86.6781C163.336 86.1792 163.442 85.6445 163.442 85.1045V79.6315C163.442 79.0915 163.336 78.5568 163.129 78.0579C162.922 77.5591 162.619 77.106 162.237 76.7244C161.855 76.3429 161.401 76.0404 160.902 75.8343C160.403 75.6283 159.868 75.5226 159.328 75.5235Z" fill="#FAFAFA"/>
<path d="M246.097 168.435H262.704L234.351 139.029L246.097 168.435Z" fill="#AAAAAA"/>
<g opacity="0.1">
<path d="M246.097 168.435H262.704L234.351 139.029L246.097 168.435Z" fill="black"/>
</g>
<g style="mix-blend-mode:multiply">
<path d="M230.132 152.913L234.351 139.029L236.743 152.913H230.132Z" fill="#AAAAAA"/>
</g>
<path d="M234.351 139.029V180.174L237.289 177.242L246.097 168.435L234.351 139.029Z" fill="#AAAAAA"/>
<path opacity="0.3" d="M234.351 139.029V180.174L237.289 177.242L246.097 168.435L234.351 139.029Z" fill="#FAFAFA"/>
<path d="M263.718 50.7715H227.318C225.473 50.7783 223.706 51.5138 222.401 52.8176C221.096 54.1215 220.359 55.8882 220.35 57.733V76.531C220.359 78.3747 221.095 80.1404 222.399 81.4441C223.702 82.7477 225.468 83.4839 227.312 83.4925H254.02L253.825 90.064L260.566 83.4925H263.705C265.55 83.4856 267.317 82.7502 268.622 81.4463C269.927 80.1425 270.665 78.3758 270.673 76.531V57.733C270.665 55.8904 269.929 54.1257 268.627 52.8222C267.325 51.5187 265.561 50.7817 263.718 50.7715ZM226.499 58.7795C226.499 58.2623 226.705 57.7663 227.07 57.4006C227.436 57.0349 227.932 56.8295 228.449 56.8295H236.828C237.345 56.8295 237.841 57.0349 238.206 57.4006C238.572 57.7663 238.778 58.2623 238.778 58.7795C238.778 59.2967 238.572 59.7926 238.206 60.1583C237.841 60.524 237.345 60.7295 236.828 60.7295H228.443C227.927 60.7278 227.432 60.5216 227.068 60.156C226.704 59.7905 226.499 59.2955 226.499 58.7795ZM261.651 76.9795H247.169C246.889 77.0286 246.601 77.0157 246.326 76.9419C246.052 76.868 245.796 76.7349 245.578 76.5518C245.36 76.3688 245.185 76.1403 245.065 75.8824C244.945 75.6244 244.883 75.3433 244.883 75.0587C244.883 74.7742 244.945 74.4931 245.065 74.2351C245.185 73.9772 245.36 73.7487 245.578 73.5656C245.796 73.3826 246.052 73.2495 246.326 73.1756C246.601 73.1017 246.889 73.0889 247.169 73.138H261.651C261.931 73.0889 262.219 73.1017 262.494 73.1756C262.769 73.2495 263.024 73.3826 263.242 73.5656C263.46 73.7487 263.635 73.9772 263.755 74.2351C263.875 74.4931 263.938 74.7742 263.938 75.0587C263.938 75.3433 263.875 75.6244 263.755 75.8824C263.635 76.1403 263.46 76.3688 263.242 76.5518C263.024 76.7349 262.769 76.868 262.494 76.9419C262.219 77.0157 261.931 77.0286 261.651 76.9795ZM261.651 68.848H230.393C230.112 68.8971 229.825 68.8842 229.55 68.8104C229.275 68.7365 229.02 68.6034 228.802 68.4203C228.584 68.2373 228.409 68.0088 228.289 67.7508C228.168 67.4929 228.106 67.2118 228.106 66.9272C228.106 66.6427 228.168 66.3616 228.289 66.1036C228.409 65.8457 228.584 65.6172 228.802 65.4341C229.02 65.2511 229.275 65.118 229.55 65.0441C229.825 64.9702 230.112 64.9574 230.393 65.0065H261.651C261.931 64.9574 262.219 64.9702 262.494 65.0441C262.769 65.118 263.024 65.2511 263.242 65.4341C263.46 65.6172 263.635 65.8457 263.755 66.1036C263.875 66.3616 263.938 66.6427 263.938 66.9272C263.938 67.2118 263.875 67.4929 263.755 67.7508C263.635 68.0088 263.46 68.2373 263.242 68.4203C263.024 68.6034 262.769 68.7365 262.494 68.8104C262.219 68.8842 261.931 68.8971 261.651 68.848ZM261.651 60.7165H243.146C242.628 60.7165 242.132 60.511 241.767 60.1453C241.401 59.7796 241.196 59.2837 241.196 58.7665C241.196 58.2493 241.401 57.7533 241.767 57.3876C242.132 57.0219 242.628 56.8165 243.146 56.8165H261.651C262.168 56.8165 262.664 57.0219 263.03 57.3876C263.396 57.7533 263.601 58.2493 263.601 58.7665C263.601 59.2837 263.396 59.7796 263.03 60.1453C262.664 60.511 262.168 60.7165 261.651 60.7165Z" fill="#AAAAAA"/>
<path d="M206.791 110.357C205.237 106.087 202.863 102.161 199.804 98.8H148.122C145.063 102.161 142.689 106.087 141.135 110.357L148.285 145.951C153.755 151.881 161.109 155.734 169.097 156.856C177.086 157.978 185.217 156.3 192.109 152.107C199 147.913 204.228 141.464 206.903 133.853C209.579 126.242 209.537 117.94 206.785 110.357H206.791Z" fill="#AAAAAA"/>
<path opacity="0.1" d="M206.791 110.357C205.237 106.087 202.863 102.161 199.804 98.8H148.122C145.063 102.161 142.689 106.087 141.135 110.357L148.285 145.951C153.755 151.881 161.109 155.734 169.097 156.856C177.086 157.978 185.217 156.3 192.109 152.107C199 147.913 204.228 141.464 206.903 133.853C209.579 126.242 209.537 117.94 206.785 110.357H206.791Z" fill="#FAFAFA"/>
<path d="M208.851 123.896C208.482 132.104 205.222 139.916 199.647 145.951H148.297C143.962 141.24 141.003 135.431 139.743 129.154C138.482 122.878 138.968 116.376 141.147 110.357H206.797C208.374 114.689 209.072 119.292 208.851 123.896Z" fill="#AAAAAA"/>
<path opacity="0.9" d="M208.851 123.896C208.482 132.104 205.222 139.916 199.647 145.951H148.297C143.962 141.24 141.003 135.431 139.743 129.154C138.482 122.878 138.968 116.376 141.147 110.357H206.797C208.374 114.689 209.072 119.292 208.851 123.896Z" fill="#FAFAFA"/>
<path opacity="0.3" d="M208.852 123.897C208.448 132.533 204.847 140.711 198.749 146.841C192.652 152.972 184.493 156.616 175.859 157.066C167.225 157.517 158.731 154.741 152.029 149.279C145.327 143.817 140.894 136.058 139.594 127.51C138.293 118.962 140.216 110.236 144.99 103.027C149.764 95.8185 157.047 90.6419 165.425 88.5034C173.802 86.3649 182.676 87.4173 190.321 91.4561C197.966 95.4949 203.836 102.232 206.791 110.357C208.368 114.689 209.068 119.291 208.852 123.897Z" fill="white"/>
<path opacity="0.4" d="M193.648 93.444L143.429 139.243C143.178 138.779 142.931 138.311 142.688 137.839C141.152 134.765 140.085 131.479 139.522 128.089L182.897 88.53C186.735 89.5415 190.372 91.2036 193.648 93.444Z" fill="white"/>
<path opacity="0.4" d="M207.084 111.196L159.9 154.252C155.006 152.092 150.674 148.836 147.238 144.736L198.796 97.7145C202.554 101.515 205.389 106.127 207.084 111.196Z" fill="white"/>
<path d="M208.839 102.148C204.856 95.2408 198.913 89.6709 191.764 86.1423C184.614 82.6138 176.578 81.2853 168.674 82.3249C160.769 83.3646 153.35 86.7256 147.356 91.9828C141.361 97.2399 137.061 104.157 134.999 111.859C132.937 119.56 133.206 127.701 135.772 135.25C138.338 142.798 143.085 149.417 149.413 154.267C155.741 159.117 163.366 161.981 171.322 162.496C179.278 163.012 187.209 161.156 194.11 157.164C203.353 151.816 210.096 143.018 212.857 132.703C215.619 122.388 214.174 111.398 208.839 102.148ZM146.439 138.184C143.296 132.741 141.838 126.488 142.249 120.216C142.659 113.945 144.921 107.936 148.746 102.949C152.572 97.9628 157.791 94.2227 163.742 92.202C169.693 90.1813 176.11 89.9707 182.181 91.5968C188.252 93.223 193.705 96.6129 197.849 101.338C201.994 106.063 204.644 111.911 205.465 118.142C206.286 124.373 205.241 130.708 202.462 136.345C199.683 141.982 195.295 146.669 189.852 149.812C186.239 151.899 182.249 153.254 178.112 153.799C173.975 154.344 169.771 154.069 165.74 152.989C161.709 151.909 157.931 150.046 154.62 147.506C151.309 144.965 148.532 141.798 146.445 138.184H146.439Z" fill="#AAAAAA"/>
<path opacity="0.1" d="M208.839 102.148C204.856 95.2408 198.913 89.6709 191.764 86.1423C184.614 82.6138 176.578 81.2853 168.674 82.3249C160.769 83.3646 153.35 86.7256 147.356 91.9828C141.361 97.2399 137.061 104.157 134.999 111.859C132.937 119.56 133.206 127.701 135.772 135.25C138.338 142.798 143.085 149.417 149.413 154.267C155.741 159.117 163.366 161.981 171.322 162.496C179.278 163.012 187.209 161.156 194.11 157.164C203.353 151.816 210.096 143.018 212.857 132.703C215.619 122.388 214.174 111.398 208.839 102.148ZM146.439 138.184C143.296 132.741 141.838 126.488 142.249 120.216C142.659 113.945 144.921 107.936 148.746 102.949C152.572 97.9628 157.791 94.2227 163.742 92.202C169.693 90.1813 176.11 89.9707 182.181 91.5968C188.252 93.223 193.705 96.6129 197.849 101.338C201.994 106.063 204.644 111.911 205.465 118.142C206.286 124.373 205.241 130.708 202.462 136.345C199.683 141.982 195.295 146.669 189.852 149.812C186.239 151.899 182.249 153.254 178.112 153.799C173.975 154.344 169.771 154.069 165.74 152.989C161.709 151.909 157.931 150.046 154.62 147.506C151.309 144.965 148.532 141.798 146.445 138.184H146.439Z" fill="black"/>
<path d="M81.2894 163.729L86.2684 164.886L82.1409 167.967C82.1409 167.967 79.1834 166.628 79.0469 164.528L81.2894 163.729Z" fill="#E4897B"/>
<path d="M88.9331 168.201L85.3451 170.593L82.1406 167.967L86.2681 164.892L88.9331 168.201Z" fill="#E4897B"/>
<path d="M145.256 143.507C139.965 147.407 134.537 151.112 129.084 154.733C123.63 158.353 118.105 161.883 112.554 165.347C107.003 168.812 101.4 172.204 95.7777 175.5C92.9697 177.177 90.1357 178.802 87.3277 180.453C85.9328 181.341 84.412 182.014 82.8167 182.448C81.9654 182.674 81.095 182.82 80.2167 182.884C79.2415 182.964 78.2601 182.913 77.2981 182.734C76.6107 182.599 75.9568 182.328 75.3739 181.939C74.791 181.55 74.2906 181.05 73.9012 180.468C73.5117 179.885 73.241 179.231 73.1045 178.544C72.968 177.857 72.9684 177.149 73.1057 176.462C73.1501 176.241 73.211 176.024 73.2877 175.812C73.6014 174.891 74.0387 174.016 74.5877 173.212C75.0773 172.489 75.6345 171.814 76.2516 171.197C77.4272 170.033 78.7702 169.052 80.2362 168.285C83.0767 166.666 85.8977 165.035 88.7577 163.429C94.4517 160.212 100.198 157.079 105.957 153.985C111.716 150.891 117.546 147.894 123.409 144.969C129.272 142.044 135.181 139.197 141.213 136.571C142.123 136.169 143.15 136.117 144.096 136.426C145.042 136.734 145.841 137.381 146.339 138.243C146.838 139.105 147 140.12 146.795 141.094C146.59 142.068 146.033 142.932 145.23 143.52L145.256 143.507Z" fill="#AAAAAA"/>
<path opacity="0.1" d="M145.256 143.507C139.965 147.407 134.537 151.112 129.084 154.733C123.63 158.353 118.105 161.883 112.554 165.347C107.003 168.812 101.4 172.204 95.7777 175.5C92.9697 177.177 90.1357 178.802 87.3277 180.453C85.9328 181.341 84.412 182.014 82.8167 182.448C81.9654 182.674 81.095 182.82 80.2167 182.884C79.2415 182.964 78.2601 182.913 77.2981 182.734C76.6107 182.599 75.9568 182.328 75.3739 181.939C74.791 181.55 74.2906 181.05 73.9012 180.468C73.5117 179.885 73.241 179.231 73.1045 178.544C72.968 177.857 72.9684 177.149 73.1057 176.462C73.1501 176.241 73.211 176.024 73.2877 175.812C73.6014 174.891 74.0387 174.016 74.5877 173.212C75.0773 172.489 75.6345 171.814 76.2516 171.197C77.4272 170.033 78.7702 169.052 80.2362 168.285C83.0767 166.666 85.8977 165.035 88.7577 163.429C94.4517 160.212 100.198 157.079 105.957 153.985C111.716 150.891 117.546 147.894 123.409 144.969C129.272 142.044 135.181 139.197 141.213 136.571C142.123 136.169 143.15 136.117 144.096 136.426C145.042 136.734 145.841 137.381 146.339 138.243C146.838 139.105 147 140.12 146.795 141.094C146.59 142.068 146.033 142.932 145.23 143.52L145.256 143.507Z" fill="black"/>
<path d="M88.504 132.938C88.179 133.465 87.8085 134.102 87.4575 134.7C87.1065 135.298 86.762 135.922 86.437 136.552C85.787 137.794 85.137 139.055 84.487 140.335C83.837 141.616 83.3105 142.935 82.7775 144.235C82.5175 144.885 82.2445 145.535 82.004 146.185L81.64 147.18C81.5685 147.368 81.5555 147.446 81.51 147.583C81.4645 147.719 81.445 147.849 81.406 147.979C81.1523 149.264 81.0238 150.57 81.0225 151.879C80.99 153.277 81.0225 154.7 81.1005 156.137C81.1785 157.573 81.2565 159.016 81.3865 160.459C81.5165 161.902 81.6465 163.371 81.783 164.801L79.274 165.315C78.832 163.865 78.4875 162.422 78.143 160.96C77.7985 159.497 77.5385 158.028 77.285 156.533C77.0315 155.038 76.8625 153.537 76.752 151.983C76.6168 150.356 76.6582 148.719 76.8755 147.102C76.9145 146.874 76.947 146.66 77.0055 146.452C77.064 146.244 77.1225 145.951 77.1745 145.802L77.493 144.697C77.701 143.962 77.9415 143.234 78.1885 142.513C78.689 141.063 79.235 139.64 79.846 138.236C80.457 136.832 81.107 135.46 81.796 134.108C82.1535 133.458 82.5305 132.763 82.914 132.093C83.2975 131.424 83.681 130.793 84.162 130.085L88.504 132.938Z" fill="#E4897B"/>
<path d="M85.7288 267.15C85.2902 267.136 84.8544 267.075 84.4288 266.968C84.406 266.964 84.385 266.953 84.3687 266.937C84.3524 266.921 84.3416 266.9 84.3378 266.877C84.3337 266.854 84.3364 266.83 84.3456 266.808C84.3548 266.786 84.3702 266.767 84.3898 266.754C84.5653 266.637 86.0993 265.649 86.6908 265.915C86.7566 265.945 86.813 265.992 86.8542 266.052C86.8953 266.111 86.9197 266.181 86.9248 266.253C86.9553 266.369 86.9533 266.491 86.9189 266.606C86.8845 266.72 86.819 266.823 86.7298 266.903C86.437 267.104 86.0814 267.191 85.7288 267.15ZM84.7343 266.799C85.6183 266.975 86.2813 266.942 86.5348 266.708C86.5905 266.655 86.6312 266.587 86.6529 266.513C86.6746 266.439 86.6764 266.361 86.6583 266.286C86.6575 266.252 86.6473 266.22 86.6289 266.193C86.6105 266.165 86.5846 266.143 86.5543 266.13C86.2488 265.993 85.3583 266.422 84.7343 266.799Z" fill="#AAAAAA"/>
<path d="M84.4224 266.975C84.4033 266.98 84.383 266.98 84.3639 266.975C84.3452 266.965 84.3297 266.95 84.3194 266.931C84.309 266.913 84.3041 266.892 84.3054 266.871C84.3054 266.812 84.3054 265.356 84.8579 264.869C84.9261 264.807 85.0066 264.761 85.094 264.733C85.1813 264.705 85.2737 264.696 85.3649 264.706C85.4607 264.707 85.5531 264.742 85.6266 264.803C85.7 264.865 85.7499 264.95 85.7679 265.044C85.8849 265.61 84.9619 266.702 84.4679 266.994C84.4513 266.991 84.4357 266.985 84.4224 266.975ZM85.2869 264.921C85.1883 264.921 85.0935 264.958 85.0204 265.025C84.7008 265.495 84.5371 266.055 84.5524 266.624C85.0334 266.234 85.6054 265.415 85.5339 265.07C85.5339 265.012 85.4884 264.947 85.3389 264.927L85.2869 264.921Z" fill="#AAAAAA"/>
<path d="M108.752 267.15C108.216 267.142 107.683 267.081 107.159 266.968C107.134 266.965 107.111 266.954 107.094 266.936C107.076 266.919 107.065 266.895 107.062 266.871C107.059 266.846 107.064 266.821 107.075 266.799C107.087 266.777 107.105 266.759 107.127 266.747C107.354 266.63 109.369 265.603 109.987 265.941C110.046 265.971 110.097 266.017 110.133 266.073C110.17 266.129 110.191 266.193 110.195 266.26C110.209 266.367 110.196 266.476 110.158 266.577C110.119 266.678 110.056 266.768 109.974 266.838C109.614 267.079 109.183 267.189 108.752 267.15ZM107.556 266.799C108.68 266.988 109.506 266.936 109.818 266.663C109.87 266.614 109.909 266.554 109.933 266.487C109.957 266.421 109.964 266.349 109.954 266.279C109.954 266.252 109.947 266.226 109.933 266.203C109.919 266.181 109.9 266.162 109.876 266.149C109.538 265.967 108.381 266.403 107.556 266.799Z" fill="#AAAAAA"/>
<path d="M107.179 266.975C107.168 266.979 107.157 266.981 107.146 266.981C107.135 266.981 107.124 266.979 107.114 266.975C107.095 266.965 107.08 266.95 107.07 266.931C107.061 266.912 107.058 266.891 107.062 266.871C107.062 266.812 107.185 265.447 107.816 264.921C107.997 264.769 108.23 264.694 108.466 264.713C108.797 264.745 108.888 264.914 108.914 265.051C109.005 265.623 107.816 266.715 107.211 267.001L107.179 266.975ZM108.388 264.921C108.235 264.922 108.088 264.977 107.972 265.077C107.599 265.517 107.372 266.062 107.322 266.637C107.933 266.266 108.745 265.408 108.687 265.064C108.687 265.064 108.687 264.947 108.453 264.927L108.388 264.921Z" fill="#AAAAAA"/>
<path d="M96.2002 113.419C96.5967 116.454 97.5002 122.61 95.3032 124.469C95.3032 124.469 95.9532 127.563 101.491 127.92C107.614 128.317 104.611 125.073 104.611 125.073C101.322 124.059 101.569 121.583 102.304 119.295L96.2002 113.419Z" fill="#E4897B"/>
<path d="M107.556 107.25C107.517 107.249 107.479 107.238 107.445 107.218C107.417 107.203 107.392 107.183 107.371 107.159C107.351 107.135 107.336 107.106 107.327 107.076C107.318 107.046 107.315 107.014 107.318 106.982C107.322 106.951 107.332 106.92 107.348 106.893C107.517 106.549 107.766 106.251 108.075 106.024C108.384 105.798 108.744 105.65 109.122 105.593C109.18 105.595 109.236 105.618 109.278 105.658C109.32 105.698 109.347 105.752 109.352 105.81C109.358 105.868 109.342 105.926 109.308 105.973C109.274 106.02 109.224 106.054 109.168 106.067C108.871 106.119 108.591 106.238 108.349 106.417C108.106 106.595 107.908 106.827 107.77 107.094C107.752 107.137 107.722 107.174 107.684 107.201C107.647 107.229 107.602 107.246 107.556 107.25Z" fill="#263238"/>
<path d="M109.304 109.915C109.752 110.808 110.321 111.635 110.994 112.372C110.801 112.54 110.574 112.664 110.328 112.734C110.082 112.805 109.823 112.821 109.571 112.782L109.304 109.915Z" fill="#DE5753"/>
<path d="M108.875 109.252C108.914 109.662 109.161 109.967 109.421 109.941C109.681 109.915 109.876 109.571 109.837 109.161C109.798 108.752 109.551 108.446 109.285 108.472C109.018 108.498 108.836 108.849 108.875 109.252Z" fill="#263238"/>
<path d="M109.2 108.505L110.149 108.134C110.149 108.134 109.694 108.94 109.2 108.505Z" fill="#263238"/>
<path d="M101.615 266.851H106.678L107.016 255.138H101.953L101.615 266.851Z" fill="#E4897B"/>
<path d="M78.624 266.851H83.6875L85.3125 255.138H80.2555L78.624 266.851Z" fill="#E4897B"/>
<path d="M83.9995 266.266H78.312C78.2145 266.265 78.12 266.299 78.0459 266.363C77.9718 266.426 77.9232 266.514 77.909 266.611L77.259 271.109C77.2462 271.222 77.2575 271.337 77.2922 271.446C77.3268 271.555 77.384 271.655 77.4601 271.74C77.5362 271.826 77.6294 271.894 77.7336 271.941C77.8378 271.988 77.9508 272.012 78.065 272.012C80.015 271.98 81.003 271.863 83.5055 271.863C85.0395 271.863 87.2885 272.019 89.414 272.019C91.5395 272.019 91.65 269.919 90.766 269.731C86.801 268.879 86.177 267.703 84.838 266.578C84.6042 266.378 84.3071 266.268 83.9995 266.266Z" fill="#263238"/>
<path d="M106.847 266.266H101.166C101.068 266.264 100.973 266.297 100.899 266.361C100.824 266.425 100.776 266.514 100.763 266.611L100.113 271.109C100.101 271.222 100.114 271.338 100.149 271.446C100.184 271.555 100.242 271.656 100.319 271.741C100.395 271.826 100.489 271.894 100.594 271.941C100.698 271.987 100.811 272.012 100.926 272.012C102.876 271.98 103.864 271.863 106.36 271.863C107.9 271.863 111.079 272.019 113.204 272.019C115.33 272.019 115.44 269.919 114.556 269.731C110.591 268.879 109.031 267.703 107.692 266.578C107.457 266.377 107.157 266.266 106.847 266.266Z" fill="#263238"/>
<path d="M107.01 255.138L106.841 261.177H101.777L101.953 255.138H107.01Z" fill="#CE6F64"/>
<path d="M80.2491 255.138H85.3126L84.4742 261.177H79.4106L80.2491 255.138Z" fill="#CE6F64"/>
<path d="M90.662 133.718C89.7011 135.219 88.588 136.618 87.3405 137.891L86.762 137.508L80.353 133.25C80.353 133.25 83.85 125.45 86.4825 125.054C88.998 124.651 90.831 127.251 91.6825 130.033C92.0075 131.04 91.468 132.405 90.662 133.718Z" fill="#AAAAAA"/>
<path opacity="0.6" d="M90.662 133.718C89.7011 135.219 88.588 136.618 87.3405 137.891L86.762 137.508L80.353 133.25C80.353 133.25 83.85 125.45 86.4825 125.054C88.998 124.651 90.831 127.251 91.6825 130.033C92.0075 131.04 91.468 132.405 90.662 133.718Z" fill="#FAFAFA"/>
<path d="M90.6622 133.718C89.7012 135.219 88.5882 136.618 87.3407 137.891L86.7622 137.508C87.0482 135.168 87.9582 132.847 88.9982 132.113C89.6352 132.178 90.2007 132.854 90.6622 133.718Z" fill="#AAAAAA"/>
<path opacity="0.4" d="M90.6622 133.718C89.7012 135.219 88.5882 136.618 87.3407 137.891L86.7622 137.508C87.0482 135.168 87.9582 132.847 88.9982 132.113C89.6352 132.178 90.2007 132.854 90.6622 133.718Z" fill="#FAFAFA"/>
<path d="M112.586 137.612C112.281 139.562 111.884 141.856 111.351 144.58C110.701 148.064 109.791 152.243 108.641 157.242L88.1334 155.942C89.0174 147.615 89.3619 142.467 86.4824 125.08C89.3938 124.673 92.3309 124.479 95.2704 124.501C98.3835 124.481 101.494 124.683 104.578 125.106C108.556 125.756 113.028 126.952 113.028 126.952C113.028 126.952 114.172 127.4 112.586 137.612Z" fill="#AAAAAA"/>
<path opacity="0.6" d="M112.586 137.612C112.281 139.562 111.884 141.856 111.351 144.58C110.701 148.064 109.791 152.243 108.641 157.242L88.1334 155.942C89.0174 147.615 89.3619 142.467 86.4824 125.08C89.3938 124.673 92.3309 124.479 95.2704 124.501C98.3835 124.481 101.494 124.683 104.578 125.106C108.556 125.756 113.028 126.952 113.028 126.952C113.028 126.952 114.172 127.4 112.586 137.612Z" fill="#FAFAFA"/>
<path d="M112.587 137.612C112.281 139.562 111.885 141.856 111.352 144.58C110.224 142.181 109.287 139.696 108.55 137.15H112.359L112.587 137.612Z" fill="#AAAAAA"/>
<path opacity="0.4" d="M112.587 137.612C112.281 139.562 111.885 141.856 111.352 144.58C110.224 142.181 109.287 139.696 108.55 137.15H112.359L112.587 137.612Z" fill="#FAFAFA"/>
<path d="M95.082 109.148C95.8555 114.108 96.083 116.227 98.8455 118.547C102.999 122.044 108.92 120.003 109.642 114.907C110.292 110.325 108.914 102.98 103.837 101.459C102.721 101.116 101.535 101.065 100.393 101.31C99.2511 101.555 98.1909 102.088 97.3133 102.859C96.4357 103.63 95.7699 104.613 95.3793 105.713C94.9888 106.814 94.8864 107.997 95.082 109.148Z" fill="#E4897B"/>
<path d="M103.22 156.891C103.22 156.891 102.895 165.919 102.115 177.307C101.465 186.862 100.483 198.068 99.112 206.999L99.073 207.246C96.6095 223.054 85.696 260 85.696 260H78.793C78.793 260 84.4805 224.315 85.7285 208.65C88.894 169.085 80.964 164.606 88.1335 155.883L103.22 156.891Z" fill="#AAAAAA"/>
<path opacity="0.3" d="M103.22 156.891C103.22 156.891 102.895 165.919 102.115 177.307C101.465 186.862 100.483 198.068 99.112 206.999L99.073 207.246C96.6095 223.054 85.696 260 85.696 260H78.793C78.793 260 84.4805 224.315 85.7285 208.65C88.894 169.085 80.964 164.606 88.1335 155.883L103.22 156.891Z" fill="black"/>
<path d="M102.115 177.307C101.465 186.862 100.484 198.068 99.1123 206.999C96.7788 195.396 92.9438 178.451 98.0918 167.349C99.3203 170.501 100.75 174.064 102.115 177.307Z" fill="#AAAAAA"/>
<path opacity="0.4" d="M102.115 177.307C101.465 186.862 100.484 198.068 99.1123 206.999C96.7788 195.396 92.9438 178.451 98.0918 167.349C99.3203 170.501 100.75 174.064 102.115 177.307Z" fill="black"/>
<path d="M108.641 157.248C108.641 157.248 114.491 191.919 114.14 207.35C113.796 223.405 107.913 260 107.913 260H101.075C101.075 260 102.154 224.335 101.55 208.572C100.9 191.386 93.6196 156.267 93.6196 156.267L108.641 157.248Z" fill="#AAAAAA"/>
<path opacity="0.3" d="M108.641 157.248C108.641 157.248 114.491 191.919 114.14 207.35C113.796 223.405 107.913 260 107.913 260H101.075C101.075 260 102.154 224.335 101.55 208.572C100.9 191.386 93.6196 156.267 93.6196 156.267L108.641 157.248Z" fill="black"/>
<path d="M99.9051 260.325H109.077L109.792 257.25L99.5801 257.322L99.9051 260.325Z" fill="#263238"/>
<path d="M77.792 260.325H86.9635L87.6785 257.25L77.857 257.322L77.792 260.325Z" fill="#263238"/>
<path d="M87.8996 154.7L86.8596 156.481C86.7751 156.618 86.9376 156.774 87.1716 156.787L108.68 158.184C108.862 158.184 109.025 158.119 109.044 158.002L109.35 156.176C109.35 156.052 109.213 155.935 109.012 155.922L88.2116 154.57C88.1532 154.567 88.0949 154.578 88.041 154.6C87.9871 154.623 87.9388 154.657 87.8996 154.7Z" fill="#263238"/>
<path d="M90.5385 157.196L89.9861 157.157C89.8756 157.157 89.7911 157.086 89.8041 157.021L90.2201 154.648C90.2201 154.583 90.3306 154.531 90.4411 154.538L91.0001 154.57C91.1106 154.57 91.1886 154.642 91.1821 154.713L90.7661 157.079C90.7531 157.151 90.649 157.203 90.5385 157.196Z" fill="#AAAAAA"/>
<path opacity="0.3" d="M90.5385 157.196L89.9861 157.157C89.8756 157.157 89.7911 157.086 89.8041 157.021L90.2201 154.648C90.2201 154.583 90.3306 154.531 90.4411 154.538L91.0001 154.57C91.1106 154.57 91.1886 154.642 91.1821 154.713L90.7661 157.079C90.7531 157.151 90.649 157.203 90.5385 157.196Z" fill="black"/>
<path d="M104 158.067L103.447 158.035C103.337 158.035 103.252 157.963 103.265 157.892L103.681 155.526C103.681 155.454 103.792 155.409 103.909 155.415L104.461 155.448C104.572 155.448 104.656 155.519 104.643 155.591L104.227 157.957C104.234 158.028 104.13 158.074 104 158.067Z" fill="#AAAAAA"/>
<path opacity="0.3" d="M104 158.067L103.447 158.035C103.337 158.035 103.252 157.963 103.265 157.892L103.681 155.526C103.681 155.454 103.792 155.409 103.909 155.415L104.461 155.448C104.572 155.448 104.656 155.519 104.643 155.591L104.227 157.957C104.234 158.028 104.13 158.074 104 158.067Z" fill="black"/>
<path d="M114.192 132.151C114.972 134.751 115.713 137.384 116.435 140.01L118.612 147.868L118.885 148.843L118.957 149.084L118.989 149.207V149.272C119.013 149.359 119.041 149.443 119.074 149.526C119.233 149.921 119.453 150.289 119.724 150.618C120.5 151.437 121.399 152.13 122.389 152.672C124.656 153.899 127.055 154.867 129.539 155.558L129.162 158.093C126.247 157.943 123.376 157.322 120.66 156.253C119.157 155.665 117.772 154.81 116.571 153.731C115.884 153.094 115.312 152.342 114.881 151.508C114.765 151.283 114.663 151.051 114.576 150.813L114.504 150.637L114.459 150.514L114.374 150.273L114.03 149.292C113.12 146.692 112.275 144.092 111.475 141.453C110.676 138.814 109.889 136.214 109.174 133.562L114.192 132.151Z" fill="#E4897B"/>
<path d="M113.028 126.926C115.628 127.777 118.358 136.279 118.358 136.279L108.972 140.322C108.972 140.322 105.072 130.78 106.801 128.622C108.53 126.464 110.045 125.951 113.028 126.926Z" fill="#AAAAAA"/>
<path opacity="0.6" d="M113.028 126.926C115.628 127.777 118.358 136.279 118.358 136.279L108.972 140.322C108.972 140.322 105.072 130.78 106.801 128.622C108.53 126.464 110.045 125.951 113.028 126.926Z" fill="#FAFAFA"/>
<path d="M108.011 101.173C106.353 99.125 93.5481 97.6625 92.8656 103.24C88.3156 106.425 92.6316 114.654 93.2816 116.747C90.1421 117.618 80.0281 121.076 87.4316 127.797C94.8351 134.518 105.937 133.374 108.108 126.419C109.629 121.557 104.8 113.419 104.904 110.572C105.008 107.725 110.851 104.65 108.011 101.173Z" fill="#263238"/>
<path d="M94.1787 117.774C94.155 117.774 94.1314 117.769 94.1099 117.759C94.0884 117.749 94.0697 117.734 94.0552 117.715C92.8787 116.285 88.7837 108.771 90.2202 105.196C90.443 104.641 90.8207 104.163 91.3083 103.817C91.7958 103.471 92.3726 103.273 92.9697 103.246C92.9907 103.243 93.0121 103.245 93.0324 103.251C93.0528 103.257 93.0718 103.266 93.0882 103.28C93.1046 103.293 93.1181 103.31 93.1279 103.329C93.1377 103.347 93.1436 103.368 93.1452 103.389C93.1508 103.431 93.1396 103.474 93.1141 103.508C93.0886 103.542 93.0508 103.565 93.0087 103.571C92.4718 103.591 91.9519 103.764 91.5106 104.071C91.0694 104.377 90.7253 104.804 90.5192 105.3C89.1347 108.758 93.1517 116.097 94.3022 117.501C94.3228 117.523 94.3361 117.552 94.3405 117.582C94.3449 117.613 94.3402 117.644 94.327 117.672C94.3138 117.699 94.2927 117.723 94.2663 117.739C94.2399 117.754 94.2094 117.762 94.1787 117.761V117.774Z" fill="#263238"/>
<path d="M103.89 110.266C104.035 111.215 104.492 112.089 105.19 112.749C106.113 113.633 106.984 113.029 107.068 111.904C107.146 110.897 106.756 109.226 105.664 108.758C104.572 108.29 103.753 109.141 103.89 110.266Z" fill="#E4897B"/>
<path d="M126.354 154.856L130.046 153.602L129.467 158.041C129.467 158.041 128.011 158.691 126.126 157.053L124.326 155.903L125.743 155.129C125.937 155.018 126.142 154.927 126.354 154.856Z" fill="#E4897B"/>
<path d="M132.626 153.589L131.495 157.469L129.467 158.035L130.046 153.602L132.626 153.589Z" fill="#E4897B"/>
</svg>
