<svg width="24" height="24" viewBox="0 0 24 24" fill="none" xmlns="http://www.w3.org/2000/svg">
<g clip-path="url(#clip0_3_997)">
<path d="M8.88672 21.3333C9.71515 21.3333 10.3867 20.6617 10.3867 19.8333C10.3867 19.0049 9.71515 18.3333 8.88672 18.3333C8.05829 18.3333 7.38672 19.0049 7.38672 19.8333C7.38672 20.6617 8.05829 21.3333 8.88672 21.3333Z" fill="#222222"/>
<path d="M18 21.3333C18.8284 21.3333 19.5 20.6617 19.5 19.8333C19.5 19.0049 18.8284 18.3333 18 18.3333C17.1716 18.3333 16.5 19.0049 16.5 19.8333C16.5 20.6617 17.1716 21.3333 18 21.3333Z" fill="#222222"/>
<path d="M22.0146 3.61148L22.0154 3.61248C22.0764 3.68377 22.1203 3.76804 22.1439 3.85887C22.1673 3.94953 22.1698 4.04434 22.1512 4.13611C22.1512 4.13629 22.1511 4.13647 22.1511 4.13664L20.038 13.4689L20.038 13.469C20.0066 13.6081 19.9281 13.732 19.8156 13.8197C19.7032 13.9074 19.5638 13.9535 19.4213 13.95L19.4213 13.95H19.4201H9.12674H9.1087L9.09481 13.9615L7.48814 15.2948L7.48109 15.3007L7.47658 15.3086C7.43446 15.383 7.41221 15.4669 7.41199 15.5523C7.41177 15.6377 7.43358 15.7217 7.47531 15.7962C7.51704 15.8708 7.57729 15.9333 7.65023 15.9777C7.72317 16.0221 7.80634 16.047 7.8917 16.0499L7.8917 16.05H7.89341H19.1267C19.2903 16.05 19.4471 16.1149 19.5628 16.2306C19.6784 16.3462 19.7434 16.5031 19.7434 16.6666C19.7434 16.8302 19.6784 16.987 19.5628 17.1027C19.4471 17.2183 19.2903 17.2833 19.1267 17.2833H8.00007V17.2832L7.9976 17.2834C7.71966 17.2971 7.44235 17.2456 7.18786 17.133C6.93354 17.0205 6.70906 16.85 6.53236 16.6353C6.28433 16.3204 6.1538 15.9289 6.16326 15.5282C6.17271 15.1279 6.32125 14.7434 6.58335 14.4407L6.66699 14.3571L7.75838 13.4654L7.78465 13.4439L7.77441 13.4115L4.71441 3.74488L4.70649 3.71986L4.68139 3.71216L2.28809 2.97884C2.13103 2.93058 1.99957 2.8219 1.92264 2.67671C1.84571 2.53152 1.8296 2.36172 1.87787 2.20466C1.92613 2.0476 2.03481 1.91614 2.18 1.83921C2.25189 1.80111 2.33058 1.77755 2.41157 1.76987C2.49257 1.76219 2.57428 1.77053 2.65205 1.79443L5.38539 2.63443L5.38548 2.63446C5.48062 2.66349 5.56732 2.71511 5.63819 2.78491C5.70903 2.85467 5.76195 2.94053 5.79244 3.03516C5.79245 3.03521 5.79247 3.03525 5.79248 3.03529L8.83906 12.6817L8.8501 12.7166H8.88674H18.8867H18.9268L18.9355 12.6775L20.7155 4.6775L20.7291 4.61664H20.6667H8.12973L7.7289 3.3833H21.5399C21.6309 3.38393 21.7207 3.4047 21.8028 3.44413C21.8849 3.48358 21.9572 3.54073 22.0146 3.61147L22.0146 3.61148Z" fill="#222222" stroke="white" stroke-width="0.1"/>
</g>
<defs>
<clipPath id="clip0_3_997">
<rect width="24" height="24" fill="white"/>
</clipPath>
</defs>
</svg>
