<svg width="20" height="18" viewBox="0 0 20 18" fill="none" xmlns="http://www.w3.org/2000/svg">
<path fill-rule="evenodd" clip-rule="evenodd" d="M8.97213 17.2157L10 15.5L11.0536 17.2C10.4174 17.5943 9.61423 17.6003 8.97213 17.2157ZM8.49218 3.50745C7.71917 2.98243 6.70926 2.5 5.60808 2.5C3.08273 2.5 1.60046 4.35714 2.09455 6.90625C2.94048 11.2706 10 15.5 10 15.5C8.97213 17.2157 8.97213 17.2157 8.97213 17.2157L8.96813 17.2133L8.96156 17.2093L8.94081 17.1967C8.92366 17.1863 8.89992 17.1718 8.87001 17.1533C8.8102 17.1164 8.72561 17.0636 8.61952 16.996C8.40752 16.8607 8.10873 16.6655 7.74967 16.4184C7.03429 15.9259 6.06604 15.2178 5.06315 14.3585C4.0659 13.5039 2.99626 12.4675 2.1042 11.3133C1.22465 10.1752 0.425295 8.80467 0.131093 7.28682C-0.204593 5.55495 0.0971789 3.8269 1.15547 2.50009C2.22058 1.16473 3.84213 0.5 5.60808 0.5C7.43175 0.5 8.94766 1.35898 9.88811 2.04462C9.92598 2.07223 9.96328 2.09983 10 2.12737C10.0367 2.09983 10.074 2.07223 10.1119 2.04462C11.0523 1.35898 12.5683 0.5 14.3919 0.5C18.337 0.5 20.6129 4.15474 19.8515 7.36746C19.5024 8.84055 18.6936 10.1821 17.8124 11.3083C16.9189 12.4501 15.8629 13.4815 14.8803 14.336C13.8928 15.1949 12.945 15.9046 12.2456 16.3991C11.8947 16.6473 11.6033 16.8434 11.3967 16.9793C11.2933 17.0473 11.2109 17.1003 11.1527 17.1374C11.138 17.1468 11.1248 17.1552 11.1132 17.1625C11.1019 17.1697 11.0922 17.1759 11.0839 17.181L11.0638 17.1936L11.0575 17.1976L11.0536 17.2C11.0536 17.2 11.0536 17.2 10 15.5C10 15.5 16.8792 11.2363 17.9054 6.90625C18.3995 4.82142 16.9173 2.5 14.3919 2.5C13.2907 2.5 12.2808 2.98243 11.5078 3.50745C10.5852 4.13411 10 4.82143 10 4.82143C10 4.82143 9.41484 4.13411 8.49218 3.50745Z" fill="#F15733"/>
</svg>
