<svg width="24" height="24" viewBox="0 0 24 24" fill="none" xmlns="http://www.w3.org/2000/svg">
<path d="M2.84257 6.03592L2.84254 6.03597C2.11619 7.42512 1.95897 9.42055 3.27061 11.9519L3.27062 11.9519C4.53306 14.387 7.15409 17.2943 11.8675 20.4556L11.9093 20.4836L11.9511 20.4556C16.6645 17.2943 19.2841 14.387 20.5479 11.9519L20.548 11.9519C21.8596 9.41926 21.7038 7.42513 20.976 6.03591C19.4355 3.0951 15.1679 2.28139 12.8339 4.62716L12.8338 4.62719L11.9092 5.55768L10.9847 4.62849C8.65073 2.28275 4.38311 3.09506 2.84257 6.03592ZM11.6191 3.57981L11.6192 3.57991C11.7001 3.65237 11.7794 3.72733 11.8559 3.80477L11.9095 3.85902L11.9629 3.80453C12.0384 3.72733 12.1171 3.65306 12.1986 3.58189L12.1986 3.5819L12.1995 3.58112C15.2578 0.82643 20.3677 2.04986 22.1266 5.63625C23.0038 7.42469 23.0506 9.80948 21.573 12.5935C20.0983 15.3722 17.1055 18.5467 11.9093 21.9107C6.71303 18.547 3.72014 15.3728 2.24534 12.5944C0.767693 9.81064 0.814367 7.42602 1.69142 5.63758C3.45018 2.05118 8.56008 0.827086 11.6191 3.57981Z" fill="#222222" stroke="white" stroke-width="0.15"/>
</svg>
