<svg width="24" height="24" viewBox="0 0 24 24" fill="none" xmlns="http://www.w3.org/2000/svg">
<g clip-path="url(#clip0_3_988)">
<path d="M6.47208 3.72688C8.10835 2.63356 10.0321 2.05 12 2.05C14.6389 2.05 17.1697 3.0983 19.0357 4.96429C20.9017 6.83027 21.95 9.36109 21.95 12C21.95 13.9679 21.3664 15.8917 20.2731 17.5279C19.1798 19.1642 17.6258 20.4395 15.8077 21.1926C13.9896 21.9457 11.989 22.1427 10.0589 21.7588C8.12874 21.3749 6.35582 20.4272 4.96429 19.0357C3.57276 17.6442 2.62511 15.8713 2.24119 13.9411C1.85727 12.011 2.05431 10.0104 2.8074 8.1923C3.56049 6.37417 4.83581 4.8202 6.47208 3.72688ZM7.11099 19.3169C8.55814 20.2839 10.2595 20.8 12 20.8C14.3339 20.8 16.5722 19.8729 18.2225 18.2225C19.8729 16.5722 20.8 14.3339 20.8 12C20.8 10.2595 20.2839 8.55813 19.3169 7.11098C18.35 5.66383 16.9756 4.53591 15.3676 3.86986C13.7596 3.20381 11.9902 3.02954 10.2832 3.36909C8.57618 3.70864 7.00817 4.54676 5.77746 5.77746C4.54676 7.00816 3.70864 8.57617 3.36909 10.2832C3.02954 11.9902 3.20381 13.7596 3.86986 15.3676C4.53592 16.9756 5.66383 18.35 7.11099 19.3169Z" fill="#222222" stroke="white" stroke-width="0.1"/>
<path d="M12.1926 5.99665V5.99666H12.1934C13.3664 5.99666 14.3356 6.36001 15.0134 6.96723C15.6908 7.57413 16.0801 8.42718 16.0901 9.41354V9.44666C16.0901 10.5261 15.6909 11.3222 15.0472 11.884C14.4019 12.4472 13.5072 12.778 12.5131 12.9171L12.4701 12.9232V12.9667L12.4701 14.34L12.4701 14.3402C12.4709 14.4936 12.4144 14.6418 12.3118 14.7559C12.2097 14.8693 12.0692 14.9408 11.9175 14.9567H11.8467L11.8465 14.9567C11.6931 14.9574 11.5449 14.901 11.4309 14.7984C11.3175 14.6963 11.2459 14.5558 11.2301 14.4041V14.4032V14.4015V14.3997V14.3979V14.3961V14.3942V14.3923V14.3904V14.3884V14.3865V14.3845V14.3824V14.3804V14.3783V14.3762V14.374V14.3719V14.3697V14.3675V14.3652V14.3629V14.3607V14.3583V14.356V14.3536V14.3512V14.3488V14.3463V14.3439V14.3414V14.3388V14.3363V14.3337V14.3311V14.3285V14.3258V14.3232V14.3205V14.3177V14.315V14.3122V14.3094V14.3066V14.3038V14.3009V14.298V14.2951V14.2922V14.2892V14.2863V14.2833V14.2802V14.2772V14.2741V14.271V14.2679V14.2648V14.2617V14.2585V14.2553V14.2521V14.2488V14.2456V14.2423V14.239V14.2357V14.2323V14.229V14.2256V14.2222V14.2188V14.2153V14.2119V14.2084V14.2049V14.2014V14.1978V14.1943V14.1907V14.1871V14.1835V14.1799V14.1762V14.1725V14.1689V14.1652V14.1614V14.1577V14.1539V14.1502V14.1464V14.1426V14.1387V14.1349V14.131V14.1271V14.1232V14.1193V14.1154V14.1115V14.1075V14.1035V14.0995V14.0955V14.0915V14.0875V14.0834V14.0793V14.0752V14.0711V14.067V14.0629V14.0588V14.0546V14.0504V14.0462V14.042V14.0378V14.0336V14.0293V14.0251V14.0208V14.0165V14.0122V14.0079V14.0036V13.9993V13.9949V13.9905V13.9862V13.9818V13.9774V13.973V13.9686V13.9641V13.9597V13.9552V13.9507V13.9463V13.9418V13.9373V13.9327V13.9282V13.9237V13.9191V13.9146V13.91V13.9054V13.9008V13.8962V13.8916V13.887V13.8824V13.8777V13.8731V13.8684V13.8638V13.8591V13.8544V13.8497V13.845V13.8403V13.8356V13.8309V13.8261V13.8214V13.8166V13.8119V13.8071V13.8023V13.7976V13.7928V13.788V13.7832V13.7784V13.7736V13.7687V13.7639V13.7591V13.7542V13.7494V13.7445V13.7397V13.7348V13.7299V13.7251V13.7202V13.7153V13.7104V13.7055V13.7006V13.6957V13.6908V13.6859V13.6809V13.676V13.6711V13.6662V13.6612V13.6563V13.6513V13.6464V13.6414V13.6365V13.6315V13.6266V13.6216V13.6166V13.6117V13.6067V13.6017V13.5968V13.5918V13.5868V13.5818V13.5768V13.5719V13.5669V13.5619V13.5569V13.5519V13.5469V13.5419V13.5369V13.5319V13.5269V13.5219V13.517V13.512V13.507V13.502V13.497V13.492V13.487V13.482V13.477V13.472V13.467V13.462V13.4571V13.4521V13.4471V13.4421V13.4371V13.4321V13.4272V13.4222V13.4172V13.4123V13.4073V13.4023V13.3974V13.3924V13.3874V13.3825V13.3775V13.3726V13.3677V13.3627V13.3578V13.3528V13.3479V13.343V13.3381V13.3332V13.3283V13.3233V13.3184V13.3136V13.3087V13.3038V13.2989V13.294V13.2892V13.2843V13.2794V13.2746V13.2697V13.2649V13.2601V13.2552V13.2504V13.2456V13.2408V13.236V13.2312V13.2264V13.2216V13.2169V13.2121V13.2073V13.2026V13.1979V13.1931V13.1884V13.1837V13.179V13.1743V13.1696V13.1649V13.1602V13.1556V13.1509V13.1463V13.1416V13.137V13.1324V13.1278V13.1232V13.1186V13.114V13.1095V13.1049V13.1004V13.0958V13.0913V13.0868V13.0823V13.0778V13.0733V13.0689V13.0644V13.06V13.0555V13.0511V13.0467V13.0423V13.0379V13.0336V13.0292V13.0249V13.0205V13.0162V13.0119V13.0076V13.0033V12.9991V12.9948V12.9906V12.9863V12.9821V12.9779V12.9737V12.9696V12.9654V12.9613V12.9571V12.953V12.9489V12.9449V12.9408V12.9367V12.9327V12.9287V12.9247V12.9207V12.9167V12.9128V12.9088V12.9049V12.901V12.8971V12.8932V12.8894V12.8855V12.8817V12.8779V12.8741V12.8704V12.8666V12.8629V12.8591V12.8554V12.8518V12.8481V12.8445V12.8408V12.8372V12.8336V12.8301V12.8265V12.823V12.8195V12.816V12.8125V12.809V12.8056V12.8022V12.7988V12.7954V12.7921V12.7887V12.7854V12.7821V12.7789V12.7756V12.7724V12.7692V12.766V12.7628V12.7597V12.7565V12.7534V12.7504V12.7473V12.7443V12.7412V12.7383V12.7353V12.7323V12.7294V12.7265V12.7236V12.7208V12.7179V12.7151V12.7124V12.7096V12.7069V12.7041V12.7015V12.6988V12.6961V12.6935V12.6909V12.6884V12.6858V12.6833V12.6808V12.6783V12.6759V12.6735V12.6711V12.6687V12.6664V12.6641V12.6618V12.6595V12.6573V12.6551V12.6529V12.6507V12.6486V12.6465V12.6444V12.6424V12.6403V12.6383V12.6364V12.6344V12.6325V12.6306V12.6288V12.627V12.6252V12.6234V12.6216V12.6199V12.6182V12.6166V12.615V12.6134V12.6118V12.6103V12.6087V12.6073V12.6058V12.6044V12.603V12.6016V12.6003V12.599V12.5977V12.5965V12.5953V12.5941V12.593V12.5918V12.5908V12.5897V12.5887V12.5877V12.5867V12.5858V12.5849V12.5841V12.5832V12.5824V12.5817V12.5809V12.5802V12.5796V12.5789V12.5783V12.5778V12.5772V12.5767V12.5763V12.5758V12.5754V12.5751V12.5747V12.5744V12.5742V12.574V12.5738V12.5736V12.5735V12.5734V12.5733L11.1801 12.5733H11.2307L11.2295 12.5658C11.2193 12.4985 11.2233 12.4298 11.2414 12.3642C11.2596 12.2986 11.2913 12.2376 11.3347 12.1851C11.378 12.1326 11.432 12.0899 11.493 12.0597C11.554 12.0295 11.6207 12.0126 11.6887 12.01L11.6887 12.01L11.6905 12.0098C12.6228 11.9394 13.3902 11.6977 13.9257 11.2829C14.4632 10.8665 14.7634 10.2785 14.7634 9.52666V9.49332C14.7634 8.20236 13.7576 7.16999 12.1601 7.16999L12.16 7.16999C11.6039 7.17056 11.0545 7.29162 10.5496 7.52482C10.0456 7.75761 9.59794 8.09664 9.23727 8.51866C9.11766 8.62932 8.9618 8.69263 8.79884 8.69667L8.79845 8.69668C8.72294 8.69915 8.64771 8.6864 8.57723 8.65919C8.50675 8.63199 8.44246 8.59088 8.38819 8.53832C8.33391 8.48577 8.29077 8.42283 8.26132 8.35326C8.23194 8.28386 8.21678 8.20928 8.21675 8.13392C8.21876 8.05165 8.23721 7.97061 8.27103 7.89558C8.30492 7.82037 8.35356 7.75273 8.41407 7.69666L8.41429 7.6969L8.41801 7.69257C8.88404 7.15007 9.46385 6.71687 10.1162 6.42376C10.7686 6.13066 11.4775 5.98483 12.1926 5.99665Z" fill="#222222" stroke="white" stroke-width="0.1"/>
<path d="M11.8534 18.3C12.3136 18.3 12.6867 17.9269 12.6867 17.4667C12.6867 17.0065 12.3136 16.6334 11.8534 16.6334C11.3931 16.6334 11.02 17.0065 11.02 17.4667C11.02 17.9269 11.3931 18.3 11.8534 18.3Z" fill="#222222"/>
</g>
<defs>
<clipPath id="clip0_3_988">
<rect width="24" height="24" fill="white"/>
</clipPath>
</defs>
</svg>
