<svg width="24" height="24" viewBox="0 0 24 24" fill="none" xmlns="http://www.w3.org/2000/svg">
<path d="M11.04 17.28C7.58405 17.28 4.80005 14.496 4.80005 11.04C4.80005 7.58399 7.58405 4.79999 11.04 4.79999C14.496 4.79999 17.28 7.58399 17.28 11.04C17.28 14.496 14.496 17.28 11.04 17.28ZM11.04 5.75999C8.11205 5.75999 5.76005 8.11199 5.76005 11.04C5.76005 13.968 8.11205 16.32 11.04 16.32C13.968 16.32 16.32 13.968 16.32 11.04C16.32 8.11199 13.968 5.75999 11.04 5.75999Z" fill="#222222"/>
<path d="M16.4104 15.0082L20.7208 19.3186L20.0421 19.9973L15.7317 15.6869L16.4104 15.0082Z" fill="#222222"/>
</svg>
