<svg width="29" height="24" viewBox="0 0 29 24" fill="none" xmlns="http://www.w3.org/2000/svg">
<g clip-path="url(#clip0_3_993)">
<path d="M4.68727 19.1227H1.96818V13.0591H3.48636V17.4545V17.6045H3.63636H4.68727H4.80332L4.83247 17.4922C5.22158 15.9925 6.56971 14.8773 8.18182 14.8773C9.79392 14.8773 11.1421 15.9925 11.5312 17.4922L11.5603 17.6045H11.6764H17.2727H17.4227V17.4545V3.81818V3.66818H17.2727H0.15V2.15H18.9409V5.63636V5.78636H19.0909H26.9083L27.0724 6.30609L27.0724 6.3061L27.0732 6.30834L28.8913 11.7629L28.8911 11.763L28.8944 11.7713L28.9409 11.8872V19.1227H26.2218H26.1058L26.0766 19.2351C25.6875 20.7348 24.3394 21.85 22.7273 21.85C21.1152 21.85 19.767 20.7348 19.3779 19.2351L19.3488 19.1227H19.2327H11.6764H11.5603L11.5312 19.2351C11.1421 20.7348 9.79392 21.85 8.18182 21.85C6.56971 21.85 5.22158 20.7348 4.83247 19.2351L4.80332 19.1227H4.68727ZM19.0909 7.30455H18.9409V7.45455V17.4545V17.6045H19.0909H19.2327H19.3488L19.3779 17.4922C19.767 15.9925 21.1152 14.8773 22.7273 14.8773C24.3394 14.8773 25.6875 15.9925 26.0766 17.4922L26.1058 17.6045H26.2218H27.2727H27.4227V17.4545V12.1136V12.0892L27.4149 12.0659L25.8522 7.40685L25.8179 7.30455H25.71H19.0909ZM8.94091 7.30455H1.05909V5.78636H8.94091V7.30455ZM7.12273 10.9409H1.96818V9.42273H7.12273V10.9409ZM10.15 18.3636C10.15 17.2653 9.28012 16.3955 8.18182 16.3955C7.08352 16.3955 6.21364 17.2653 6.21364 18.3636C6.21364 19.4619 7.08352 20.3318 8.18182 20.3318C9.28012 20.3318 10.15 19.4619 10.15 18.3636ZM24.6955 18.3636C24.6955 17.2653 23.8256 16.3955 22.7273 16.3955C21.629 16.3955 20.7591 17.2653 20.7591 18.3636C20.7591 19.4619 21.629 20.3318 22.7273 20.3318C23.8256 20.3318 24.6955 19.4619 24.6955 18.3636Z" fill="#222222" stroke="white" stroke-width="0.3"/>
</g>
<defs>
<clipPath id="clip0_3_993">
<rect width="29" height="24" fill="white"/>
</clipPath>
</defs>
</svg>
